<?xml version="1.0" encoding="UTF-8" standalone="no"?>
<svg
   viewBox="0 0 2304 1152"
   width="24in"
   height="12in"
   version="1.1"
   id="svg89"
   sodipodi:docname="main_body_v4.svg"
   inkscape:version="1.3 (0e150ed6c4, 2023-07-21)"
   xmlns:inkscape="http://www.inkscape.org/namespaces/inkscape"
   xmlns:sodipodi="http://sodipodi.sourceforge.net/DTD/sodipodi-0.dtd"
   xmlns="http://www.w3.org/2000/svg"
   xmlns:svg="http://www.w3.org/2000/svg">
  <sodipodi:namedview
     id="namedview89"
     pagecolor="#ffffff"
     bordercolor="#000000"
     borderopacity="0.25"
     inkscape:showpageshadow="2"
     inkscape:pageopacity="0.0"
     inkscape:pagecheckerboard="0"
     inkscape:deskcolor="#d1d1d1"
     inkscape:document-units="mm"
     inkscape:zoom="0.48945421"
     inkscape:cx="305.44226"
     inkscape:cy="767.18106"
     inkscape:window-width="1920"
     inkscape:window-height="991"
     inkscape:window-x="-9"
     inkscape:window-y="-9"
     inkscape:window-maximized="1"
     inkscape:current-layer="g89" />
  <desc
     id="desc1">main_body_v4.DXF - scale = 1.000000, origin = (0.000000, 0.000000), method = file</desc>
  <defs
     id="defs4">
    <marker
       id="DistanceX"
       orient="auto"
       refX="0"
       refY="0"
       style="overflow:visible">
      <path
         d="M 3,-3 -3,3 M 0,-5 V 5"
         style="stroke:#000000;stroke-width:0.5"
         id="path1" />
    </marker>
    <pattern
       id="Hatch"
       patternUnits="userSpaceOnUse"
       width="8"
       height="8"
       x="0"
       y="0">
      <path
         d="M8 4 l-4,4"
         stroke="#000000"
         stroke-width="0.25"
         linecap="square"
         id="path2" />
      <path
         d="M6 2 l-4,4"
         stroke="#000000"
         stroke-width="0.25"
         linecap="square"
         id="path3" />
      <path
         d="M4 0 l-4,4"
         stroke="#000000"
         stroke-width="0.25"
         linecap="square"
         id="path4" />
    </pattern>
    <symbol
       id="*Model_Space" />
    <symbol
       id="*Paper_Space" />
    <symbol
       id="*Paper_Space0" />
  </defs>
  <g
     inkscape:groupmode="layer"
     inkscape:label="0"
     id="g89">
    <path
       d="m 1050.7899,514.94261 a 8.50394,8.50394 0 0 0 -17.0079,0 8.50394,8.50394 0 0 0 17.0079,0 z"
       style="fill:none;stroke:#000000;stroke-width:3.571;stroke-linecap:round"
       id="path5" />
    <path
       d="m 1050.7899,605.65127 a 8.50394,8.50394 0 0 0 -17.0079,0 8.50394,8.50394 0 0 0 17.0079,0 z"
       style="fill:none;stroke:#000000;stroke-width:3.571;stroke-linecap:round"
       id="path6" />
    <path
       d="m 1002.034,514.94261 a 4.1574805,4.1574805 0 0 0 -8.31498,0 4.1574805,4.1574805 0 0 0 8.31498,0 z"
       style="fill:none;stroke:#000000;stroke-width:3.571;stroke-linecap:round"
       id="path7" />
    <path
       d="m 1002.034,605.65127 a 4.1574805,4.1574805 0 0 0 -8.31498,0 4.1574805,4.1574805 0 0 0 8.31498,0 z"
       style="fill:none;stroke:#000000;stroke-width:3.571;stroke-linecap:round"
       id="path8" />
    <path
       d="m 901.1836,645.33631 a 3.023622,3.023622 0 0 0 -6.04724,0 3.023622,3.023622 0 0 0 6.04724,0 z"
       style="fill:none;stroke:#000000;stroke-width:3.571;stroke-linecap:round"
       id="path9" />
    <path
       d="m 901.1836,475.25757 a 3.023622,3.023622 0 0 0 -6.04724,0 3.023622,3.023622 0 0 0 6.04724,0 z"
       style="fill:none;stroke:#000000;stroke-width:3.571;stroke-linecap:round"
       id="path10" />
    <path
       d="m 759.64029,526.2812 a 4.1574805,4.1574805 0 0 0 -8.31496,0 4.1574805,4.1574805 0 0 0 8.31496,0 z"
       style="fill:none;stroke:#000000;stroke-width:3.571;stroke-linecap:round"
       id="path11" />
    <path
       d="m 1038.5476,687.30841 a 4.157485,4.157485 0 0 0 -8.3149,0 4.157485,4.157485 0 0 0 8.3149,0 z"
       style="fill:none;stroke:#000000;stroke-width:3.571;stroke-linecap:round"
       id="path12" />
    <path
       d="m 979.63061,399.26973 a 4.1574805,4.1574805 0 0 0 -8.31496,0 4.1574805,4.1574805 0 0 0 8.31496,0 z"
       style="fill:none;stroke:#000000;stroke-width:3.571;stroke-linecap:round"
       id="path13" />
    <path
       style="fill:none;stroke:#000000;stroke-width:3.571;stroke-linecap:round"
       d="m 976.08123,367.98026 -32.7316,18.898"
       id="path14" />
    <path
       style="fill:none;stroke:#000000;stroke-width:3.571;stroke-linecap:round"
       d="m 943.34963,386.87826 v 67.589"
       id="path15" />
    <path
       style="fill:none;stroke:#000000;stroke-width:3.571;stroke-linecap:round"
       d="M 943.34963,454.46726 H 826.27623"
       id="path16" />
    <path
       style="fill:none;stroke:#000000;stroke-width:3.571;stroke-linecap:round"
       d="m 826.27623,454.46726 -98.1952,56.7"
       id="path17" />
    <path
       style="fill:none;stroke:#000000;stroke-width:3.571;stroke-linecap:round"
       d="m 728.08103,511.16726 v 98.26"
       id="path18" />
    <path
       style="fill:none;stroke:#000000;stroke-width:3.571;stroke-linecap:round"
       d="m 728.08103,609.42726 98.1952,56.7"
       id="path19" />
    <path
       style="fill:none;stroke:#000000;stroke-width:3.571;stroke-linecap:round"
       d="m 826.27623,666.12726 h 117.0734"
       id="path20" />
    <path
       style="fill:none;stroke:#000000;stroke-width:3.571;stroke-linecap:round"
       d="m 943.34963,666.12726 v 67.59"
       id="path21" />
    <path
       style="fill:none;stroke:#000000;stroke-width:3.571;stroke-linecap:round"
       d="m 943.34963,733.71726 32.7316,18.9"
       id="path22" />
    <path
       style="fill:none;stroke:#000000;stroke-width:3.571;stroke-linecap:round"
       d="m 976.08123,752.61726 85.10277,-49.14"
       id="path23" />
    <path
       style="fill:none;stroke:#000000;stroke-width:3.571;stroke-linecap:round"
       d="m 1061.184,703.47726 v -75.15"
       id="path24" />
    <path
       style="fill:none;stroke:#000000;stroke-width:3.571;stroke-linecap:round"
       d="m 1071.003,611.31726 -9.819,17.01"
       id="path25" />
    <path
       d="m 1071.0031,611.32057 a 11.338583,11.338583 0 0 0 0,-11.33859"
       style="fill:none;stroke:#000000;stroke-width:3.571;stroke-linecap:round"
       id="path26" />
    <path
       style="fill:none;stroke:#000000;stroke-width:3.571;stroke-linecap:round"
       d="m 1071.003,599.97726 -9.819,-17"
       id="path27" />
    <path
       style="fill:none;stroke:#000000;stroke-width:3.571;stroke-linecap:round"
       d="m 1061.184,582.97726 v -45.36"
       id="path28" />
    <path
       style="fill:none;stroke:#000000;stroke-width:3.571;stroke-linecap:round"
       d="m 1071.003,520.60726 -9.819,17.01"
       id="path29" />
    <path
       d="m 1071.0031,520.6119 a 11.338583,11.338583 0 0 0 0,-11.33858"
       style="fill:none;stroke:#000000;stroke-width:3.571;stroke-linecap:round"
       id="path30" />
    <path
       style="fill:none;stroke:#000000;stroke-width:3.571;stroke-linecap:round"
       d="m 1071.003,509.27726 -9.819,-17.01"
       id="path31" />
    <path
       style="fill:none;stroke:#000000;stroke-width:3.571;stroke-linecap:round"
       d="m 1061.184,492.26726 v -75.153"
       id="path32" />
    <path
       style="fill:none;stroke:#000000;stroke-width:3.571;stroke-linecap:round"
       d="m 1061.184,417.11426 -85.10277,-49.134"
       id="path33" />
    <path
       style="fill:none;stroke:#000000;stroke-width:3.571;stroke-linecap:round"
       d="m 939.73483,484.70726 h -83.1496"
       id="path34" />
    <path
       style="fill:none;stroke:#000000;stroke-width:3.571;stroke-linecap:round"
       d="m 939.73483,635.88726 v -151.18"
       id="path35" />
    <path
       style="fill:none;stroke:#000000;stroke-width:3.571;stroke-linecap:round"
       d="m 864.14423,635.88726 h 75.5906"
       id="path36" />
    <path
       style="fill:none;stroke:#000000;stroke-width:3.571;stroke-linecap:round"
       d="m 864.14423,643.44726 v -7.56"
       id="path37" />
    <path
       style="fill:none;stroke:#000000;stroke-width:3.571;stroke-linecap:round"
       d="m 818.79003,643.44726 h 45.3542"
       id="path38" />
    <path
       d="m 818.7899,624.54891 a 9.44882,9.44882 0 0 0 0,18.89764"
       style="fill:none;stroke:#000000;stroke-width:3.571;stroke-linecap:round"
       id="path39" />
    <path
       style="fill:none;stroke:#000000;stroke-width:3.571;stroke-linecap:round"
       d="m 856.58523,624.54726 h -37.7952"
       id="path40" />
    <path
       style="fill:none;stroke:#000000;stroke-width:3.571;stroke-linecap:round"
       d="m 856.58523,484.70726 v 139.84"
       id="path41" />
    <path
       d="m 1038.5476,433.28547 a 4.157485,4.157485 0 0 0 -8.3149,0 4.157485,4.157485 0 0 0 8.3149,0 z"
       style="fill:none;stroke:#000000;stroke-width:3.571;stroke-linecap:round"
       id="path42" />
    <path
       d="m 979.63061,721.32416 a 4.1574805,4.1574805 0 0 0 -8.31496,0 4.1574805,4.1574805 0 0 0 8.31496,0 z"
       style="fill:none;stroke:#000000;stroke-width:3.571;stroke-linecap:round"
       id="path43" />
    <path
       d="m 759.64029,594.31269 a 4.1574805,4.1574805 0 0 0 -8.31496,0 4.1574805,4.1574805 0 0 0 8.31496,0 z"
       style="fill:none;stroke:#000000;stroke-width:3.571;stroke-linecap:round"
       id="path44" />
    <path
       style="fill:none;stroke:#000000;stroke-width:3.571;stroke-linecap:round"
       d="m 1029.767,418.61526 16.366,9.449"
       id="path45" />
    <path
       style="fill:none;stroke:#000000;stroke-width:3.571;stroke-linecap:round"
       d="m 1035.437,408.79526 -5.67,9.82"
       id="path46" />
    <path
       style="fill:none;stroke:#000000;stroke-width:3.571;stroke-linecap:round"
       d="m 1051.803,418.24426 -16.366,-9.449"
       id="path47" />
    <path
       style="fill:none;stroke:#000000;stroke-width:3.571;stroke-linecap:round"
       d="m 1046.133,428.06426 5.67,-9.82"
       id="path48" />
    <path
       style="fill:none;stroke:#000000;stroke-width:3.571;stroke-linecap:round"
       d="m 979.79293,376.66926 -5.6693,9.82"
       id="path49" />
    <path
       style="fill:none;stroke:#000000;stroke-width:3.571;stroke-linecap:round"
       d="m 996.15873,386.11826 -16.3658,-9.449"
       id="path50" />
    <path
       style="fill:none;stroke:#000000;stroke-width:3.571;stroke-linecap:round"
       d="m 990.48953,395.93826 5.6692,-9.82"
       id="path51" />
    <path
       style="fill:none;stroke:#000000;stroke-width:3.571;stroke-linecap:round"
       d="m 974.12363,386.48926 16.3659,9.449"
       id="path52" />
    <path
       style="fill:none;stroke:#000000;stroke-width:3.571;stroke-linecap:round"
       d="m 1024.609,477.14726 v -11.34"
       id="path53" />
    <path
       d="m 1013.2708,477.14734 a 5.6692915,5.6692915 0 0 0 11.3386,0"
       style="fill:none;stroke:#000000;stroke-width:3.571;stroke-linecap:round"
       id="path54" />
    <path
       style="fill:none;stroke:#000000;stroke-width:3.571;stroke-linecap:round"
       d="m 1013.2708,465.80726 v 11.34"
       id="path55" />
    <path
       d="m 1024.6094,465.80875 a 5.6692915,5.6692915 0 0 0 -11.3386,0"
       style="fill:none;stroke:#000000;stroke-width:3.571;stroke-linecap:round"
       id="path56" />
    <path
       style="fill:none;stroke:#000000;stroke-width:3.571;stroke-linecap:round"
       d="m 996.15873,734.47726 -5.6692,-9.82"
       id="path57" />
    <path
       style="fill:none;stroke:#000000;stroke-width:3.571;stroke-linecap:round"
       d="m 979.79293,743.92726 16.3658,-9.45"
       id="path58" />
    <path
       style="fill:none;stroke:#000000;stroke-width:3.571;stroke-linecap:round"
       d="m 974.12363,734.10726 5.6693,9.82"
       id="path59" />
    <path
       style="fill:none;stroke:#000000;stroke-width:3.571;stroke-linecap:round"
       d="m 990.48953,724.65726 -16.3659,9.45"
       id="path60" />
    <path
       style="fill:none;stroke:#000000;stroke-width:3.571;stroke-linecap:round"
       d="m 1051.803,702.34726 -5.67,-9.82"
       id="path61" />
    <path
       style="fill:none;stroke:#000000;stroke-width:3.571;stroke-linecap:round"
       d="m 1035.437,711.79726 16.366,-9.45"
       id="path62" />
    <path
       style="fill:none;stroke:#000000;stroke-width:3.571;stroke-linecap:round"
       d="m 1029.767,701.97726 5.67,9.82"
       id="path63" />
    <path
       style="fill:none;stroke:#000000;stroke-width:3.571;stroke-linecap:round"
       d="m 1046.133,692.52726 -16.366,9.45"
       id="path64" />
    <path
       style="fill:none;stroke:#000000;stroke-width:3.571;stroke-linecap:round"
       d="m 733.75103,537.61726 h 11.338"
       id="path65" />
    <path
       style="fill:none;stroke:#000000;stroke-width:3.571;stroke-linecap:round"
       d="m 733.75103,518.71726 v 18.9"
       id="path66" />
    <path
       style="fill:none;stroke:#000000;stroke-width:3.571;stroke-linecap:round"
       d="m 745.08903,518.71726 h -11.338"
       id="path67" />
    <path
       style="fill:none;stroke:#000000;stroke-width:3.571;stroke-linecap:round"
       d="m 745.08903,537.61726 v -18.9"
       id="path68" />
    <path
       style="fill:none;stroke:#000000;stroke-width:3.571;stroke-linecap:round"
       d="m 733.75103,601.86726 h 11.338"
       id="path69" />
    <path
       style="fill:none;stroke:#000000;stroke-width:3.571;stroke-linecap:round"
       d="m 733.75103,582.97726 v 18.89"
       id="path70" />
    <path
       style="fill:none;stroke:#000000;stroke-width:3.571;stroke-linecap:round"
       d="m 745.08903,582.97726 h -11.338"
       id="path71" />
    <path
       style="fill:none;stroke:#000000;stroke-width:3.571;stroke-linecap:round"
       d="m 745.08903,601.86726 v -18.89"
       id="path72" />
    <path
       style="fill:none;stroke:#000000;stroke-width:3.571;stroke-linecap:round"
       d="m 816.90003,505.49726 v -11.34"
       id="path73" />
    <path
       d="m 805.56155,505.49379 a 5.669295,5.669295 0 0 0 11.33859,0"
       style="fill:none;stroke:#000000;stroke-width:3.571;stroke-linecap:round"
       id="path74" />
    <path
       style="fill:none;stroke:#000000;stroke-width:3.571;stroke-linecap:round"
       d="m 805.56203,494.15726 v 11.34"
       id="path75" />
    <path
       d="m 816.90014,494.15521 a 5.669295,5.669295 0 0 0 -11.33859,0"
       style="fill:none;stroke:#000000;stroke-width:3.571;stroke-linecap:round"
       id="path76" />
    <path
       style="fill:none;stroke:#000000;stroke-width:3.571;stroke-linecap:round"
       d="m 1024.609,654.78726 v -11.34"
       id="path77" />
    <path
       d="m 1013.2708,654.78513 a 5.6692915,5.6692915 0 0 0 11.3386,0"
       style="fill:none;stroke:#000000;stroke-width:3.571;stroke-linecap:round"
       id="path78" />
    <path
       style="fill:none;stroke:#000000;stroke-width:3.571;stroke-linecap:round"
       d="m 1013.2708,643.44726 v 11.34"
       id="path79" />
    <path
       d="m 1024.6094,643.44655 a 5.6692915,5.6692915 0 0 0 -11.3386,0"
       style="fill:none;stroke:#000000;stroke-width:3.571;stroke-linecap:round"
       id="path80" />
    <path
       style="fill:none;stroke:#000000;stroke-width:3.571;stroke-linecap:round"
       d="m 1037.562,545.17726 h -7.56"
       id="path81" />
    <path
       d="m 1045.1206,552.73789 a 7.559055,7.559055 0 0 0 -7.5591,-7.55906"
       style="fill:none;stroke:#000000;stroke-width:3.571;stroke-linecap:round"
       id="path82" />
    <path
       style="fill:none;stroke:#000000;stroke-width:3.571;stroke-linecap:round"
       d="m 1045.121,567.85726 v -15.12"
       id="path83" />
    <path
       d="m 1037.5615,575.41505 a 7.559055,7.559055 0 0 0 7.5591,-7.55905"
       style="fill:none;stroke:#000000;stroke-width:3.571;stroke-linecap:round"
       id="path84" />
    <path
       style="fill:none;stroke:#000000;stroke-width:3.571;stroke-linecap:round"
       d="m 1030.002,575.41726 h 7.56"
       id="path85" />
    <path
       d="m 1022.4434,567.856 a 7.559055,7.559055 0 0 0 7.5591,7.55905"
       style="fill:none;stroke:#000000;stroke-width:3.571;stroke-linecap:round"
       id="path86" />
    <path
       style="fill:none;stroke:#000000;stroke-width:3.571;stroke-linecap:round"
       d="m 1022.443,552.73726 v 15.12"
       id="path87" />
    <path
       d="m 1030.0025,545.17883 a 7.559055,7.559055 0 0 0 -7.5591,7.55906"
       style="fill:none;stroke:#000000;stroke-width:3.571;stroke-linecap:round"
       id="path88" />
  </g>
</svg>
