%FSTAX23Y23*%
%MOIN*%
%SFA1B1*%

%IPPOS*%
%ADD70R,0.051310X0.074930*%
%ADD71R,0.082800X0.102490*%
%ADD72O,0.086740X0.021780*%
%ADD73R,0.074930X0.051310*%
%ADD74R,0.045400X0.094610*%
%ADD75R,0.224530X0.271780*%
%ADD76O,0.076900X0.029650*%
%ADD77O,0.029650X0.076900*%
%ADD78R,0.078870X0.070990*%
%ADD79R,0.067060X0.067060*%
%ADD80C,0.067060*%
%ADD81O,0.106420X0.055240*%
%ADD82R,0.106420X0.055240*%
%ADD83R,0.067060X0.067060*%
%ADD84C,0.074930*%
%ADD85C,0.094610*%
%ADD86R,0.094610X0.094610*%
%ADD87C,0.058000*%
%LNpcb-1*%
%LPD*%
G54D70*
X00813Y01105D03*
X00706D03*
X01201D03*
X01308D03*
X01233Y00255D03*
X01126D03*
X01193Y0012D03*
X01086D03*
X01046Y00388D03*
X01153D03*
X00706Y00386D03*
X00813D03*
X00876Y00388D03*
X00983D03*
X00371Y01278D03*
X00478D03*
X00293D03*
X00186D03*
G54D71*
X00921Y01105D03*
X01098D03*
G54D72*
X0076Y00282D03*
Y00257D03*
Y00231D03*
Y00205D03*
Y0018D03*
Y00154D03*
Y00129D03*
Y00103D03*
X00989Y00282D03*
Y00257D03*
Y00231D03*
Y00205D03*
Y0018D03*
Y00154D03*
Y00129D03*
Y00103D03*
X00185Y01177D03*
Y01152D03*
Y01126D03*
Y011D03*
Y01075D03*
Y01049D03*
Y01024D03*
Y00998D03*
X00414Y01177D03*
Y01152D03*
Y01126D03*
Y011D03*
Y01075D03*
Y01049D03*
Y01024D03*
Y00998D03*
G54D73*
X01675Y00841D03*
Y00735D03*
X0151Y00731D03*
Y00838D03*
X0063Y00656D03*
Y0055D03*
G54D74*
X01555Y00939D03*
X01734D03*
G54D75*
X01645Y01197D03*
G54D76*
X01202Y0088D03*
Y00849D03*
Y00817D03*
Y00786D03*
Y00754D03*
Y00723D03*
Y00691D03*
Y0066D03*
Y00628D03*
Y00597D03*
Y00565D03*
X00757D03*
Y00597D03*
Y00628D03*
Y0066D03*
Y00691D03*
Y00723D03*
Y00754D03*
Y00786D03*
Y00817D03*
Y00849D03*
Y0088D03*
G54D77*
X01137Y005D03*
X01105D03*
X01074D03*
X01042D03*
X01011D03*
X0098D03*
X00948D03*
X00917D03*
X00885D03*
X00854D03*
X00822D03*
Y00945D03*
X00854D03*
X00885D03*
X00917D03*
X00948D03*
X0098D03*
X01011D03*
X01042D03*
X01074D03*
X01105D03*
X01137D03*
G54D78*
X0141Y01228D03*
Y01338D03*
X01304Y01228D03*
Y01338D03*
X01198Y01228D03*
Y01338D03*
X0141Y01443D03*
Y01553D03*
X01304Y01443D03*
Y01553D03*
X01198Y01443D03*
Y01553D03*
G54D79*
X00445Y0153D03*
X0062D03*
X0022Y00845D03*
G54D80*
X00445Y0143D03*
X00315Y0039D03*
X0085Y01228D03*
Y01328D03*
X0095Y01228D03*
Y01328D03*
X0105Y01228D03*
X0062Y0143D03*
X0032Y00845D03*
X0022Y00745D03*
X0032D03*
X0022Y00645D03*
X0032D03*
X0022Y00545D03*
X0032D03*
G54D81*
X01356Y00109D03*
Y00188D03*
Y00266D03*
Y00345D03*
Y00424D03*
Y00503D03*
Y00581D03*
Y0066D03*
Y00739D03*
Y00818D03*
X0049Y00109D03*
Y00188D03*
Y00266D03*
Y00345D03*
Y00424D03*
Y00503D03*
Y00581D03*
Y0066D03*
Y00739D03*
G54D82*
X0049Y00818D03*
G54D83*
X00215Y0039D03*
X0105Y01328D03*
G54D84*
X0149Y00403D03*
Y00503D03*
Y00603D03*
X0174D03*
Y00403D03*
G54D85*
X01577Y00188D03*
X01717Y01498D03*
X00272D03*
Y00188D03*
G54D86*
X01715Y00188D03*
X0158Y01498D03*
X00135D03*
Y00188D03*
G54D87*
X0076Y0098D03*
X007Y0093D03*
X00855Y0064D03*
X01205Y0051D03*
X0022Y00945D03*
X01105Y0083D03*
X01415Y0103D03*
Y01125D03*
X0095Y00625D03*
X01035D03*
X00295Y01375D03*
X0126Y0012D03*
X0096Y0077D03*
X01035D03*
X00615Y0035D03*
X0037Y01375D03*
X00295Y0097D03*
X00855Y00785D03*
X01115Y00625D03*
X01195Y0098D03*
X01625Y00955D03*
X00875Y0013D03*
M02*