%FSTAX23Y23*%
%MOIN*%
%SFA1B1*%

%IPPOS*%
%ADD90C,0.003940*%
%LNpcb-1*%
%LPD*%
G54D90*
X0076Y01085D02*
Y01124D01*
X0074Y01105D02*
X00779D01*
X00681Y01067D02*
X00838D01*
X00681Y01142D02*
X00838D01*
Y01067D02*
Y01142D01*
X00681Y01067D02*
Y01142D01*
X01255Y01085D02*
Y01124D01*
X01235Y01105D02*
X01274D01*
X01176Y01142D02*
X01333D01*
X01176Y01067D02*
X01333D01*
X01176D02*
Y01142D01*
X01333Y01067D02*
Y01142D01*
X0118Y00235D02*
Y00274D01*
X0116Y00255D02*
X01199D01*
X01101Y00217D02*
X01258D01*
X01101Y00292D02*
X01258D01*
Y00217D02*
Y00292D01*
X01101Y00217D02*
Y00292D01*
X0114Y001D02*
Y00139D01*
X0112Y0012D02*
X01159D01*
X01061Y00082D02*
X01218D01*
X01061Y00157D02*
X01218D01*
Y00082D02*
Y00157D01*
X01061Y00082D02*
Y00157D01*
X00701Y00073D02*
Y00313D01*
X01048Y00073D02*
Y00313D01*
X00701D02*
X01048D01*
X00701Y00073D02*
X01048D01*
X00855Y00193D02*
X00894D01*
X00875Y00173D02*
Y00212D01*
X011Y00368D02*
Y00407D01*
X0108Y00388D02*
X01119D01*
X01021Y00425D02*
X01178D01*
X01021Y0035D02*
X01178D01*
X01021D02*
Y00425D01*
X01178Y0035D02*
Y00425D01*
X0076Y00366D02*
Y00405D01*
X0074Y00386D02*
X00779D01*
X00681Y00423D02*
X00838D01*
X00681Y00348D02*
X00838D01*
X00681D02*
Y00423D01*
X00838Y00348D02*
Y00423D01*
X0093Y00368D02*
Y00407D01*
X0091Y00388D02*
X00949D01*
X00851Y00425D02*
X01008D01*
X00851Y0035D02*
X01008D01*
X00851D02*
Y00425D01*
X01008Y0035D02*
Y00425D01*
X01655Y00788D02*
X01694D01*
X01675Y00768D02*
Y00807D01*
X01712Y00709D02*
Y00866D01*
X01637Y00709D02*
Y00866D01*
X01712*
X01637Y00709D02*
X01712D01*
X0149Y00785D02*
X01529D01*
X0151Y00765D02*
Y00804D01*
X01472Y00706D02*
Y00863D01*
X01547Y00706D02*
Y00863D01*
X01472Y00706D02*
X01547D01*
X01472Y00863D02*
X01547D01*
X01491Y00876D02*
X01798D01*
X01491Y01349D02*
X01798D01*
X01491Y00876D02*
Y01349D01*
X01798Y00876D02*
Y01349D01*
X01645Y01093D02*
Y01132D01*
X01625Y01113D02*
X01664D01*
X00425Y01258D02*
Y01297D01*
X00405Y01278D02*
X00444D01*
X00346Y01315D02*
X00503D01*
X00346Y0124D02*
X00503D01*
X00346D02*
Y01315D01*
X00503Y0124D02*
Y01315D01*
X0024Y01258D02*
Y01297D01*
X0022Y01278D02*
X00259D01*
X00161Y0124D02*
X00318D01*
X00161Y01315D02*
X00318D01*
Y0124D02*
Y01315D01*
X00161Y0124D02*
Y01315D01*
X00126Y00968D02*
Y01208D01*
X00473Y00968D02*
Y01208D01*
X00126D02*
X00473D01*
X00126Y00968D02*
X00473D01*
X0028Y01088D02*
X00319D01*
X003Y01068D02*
Y01107D01*
X0096Y00723D02*
X00999D01*
X0098Y00703D02*
Y00742D01*
X00714Y00457D02*
Y00988D01*
X01245Y00457D02*
Y00988D01*
X00714Y00457D02*
X01245D01*
X00714Y00988D02*
X01245D01*
X0061Y00603D02*
X00649D01*
X0063Y00583D02*
Y00622D01*
X00667Y00524D02*
Y00681D01*
X00592Y00524D02*
Y00681D01*
X00667*
X00592Y00524D02*
X00667D01*
M02*