%FSTAX23Y23*%
%MOIN*%
%SFA1B1*%

%IPPOS*%
%ADD17R,0.043310X0.066930*%
%ADD18R,0.074800X0.094490*%
%ADD19O,0.078740X0.013780*%
%ADD20R,0.066930X0.043310*%
%ADD21R,0.037400X0.086610*%
%ADD22R,0.216540X0.263780*%
%ADD23O,0.068900X0.021650*%
%ADD24O,0.021650X0.068900*%
%ADD25R,0.070870X0.062990*%
%LNpcb-1*%
%LPD*%
G54D17*
X00813Y01105D03*
X00706D03*
X01201D03*
X01308D03*
X01233Y00255D03*
X01126D03*
X01193Y0012D03*
X01086D03*
X01046Y00388D03*
X01153D03*
X00706Y00386D03*
X00813D03*
X00876Y00388D03*
X00983D03*
X00371Y01278D03*
X00478D03*
X00293D03*
X00186D03*
G54D18*
X00921Y01105D03*
X01098D03*
G54D19*
X0076Y00282D03*
Y00257D03*
Y00231D03*
Y00205D03*
Y0018D03*
Y00154D03*
Y00129D03*
Y00103D03*
X00989Y00282D03*
Y00257D03*
Y00231D03*
Y00205D03*
Y0018D03*
Y00154D03*
Y00129D03*
Y00103D03*
X00185Y01177D03*
Y01152D03*
Y01126D03*
Y011D03*
Y01075D03*
Y01049D03*
Y01024D03*
Y00998D03*
X00414Y01177D03*
Y01152D03*
Y01126D03*
Y011D03*
Y01075D03*
Y01049D03*
Y01024D03*
Y00998D03*
G54D20*
X01675Y00841D03*
Y00735D03*
X0151Y00731D03*
Y00838D03*
X0063Y00656D03*
Y0055D03*
G54D21*
X01555Y00939D03*
X01734D03*
G54D22*
X01645Y01197D03*
G54D23*
X01202Y0088D03*
Y00849D03*
Y00817D03*
Y00786D03*
Y00754D03*
Y00723D03*
Y00691D03*
Y0066D03*
Y00628D03*
Y00597D03*
Y00565D03*
X00757D03*
Y00597D03*
Y00628D03*
Y0066D03*
Y00691D03*
Y00723D03*
Y00754D03*
Y00786D03*
Y00817D03*
Y00849D03*
Y0088D03*
G54D24*
X01137Y005D03*
X01105D03*
X01074D03*
X01042D03*
X01011D03*
X0098D03*
X00948D03*
X00917D03*
X00885D03*
X00854D03*
X00822D03*
Y00945D03*
X00854D03*
X00885D03*
X00917D03*
X00948D03*
X0098D03*
X01011D03*
X01042D03*
X01074D03*
X01105D03*
X01137D03*
G54D25*
X0141Y01228D03*
Y01338D03*
X01304Y01228D03*
Y01338D03*
X01198Y01228D03*
Y01338D03*
X0141Y01443D03*
Y01553D03*
X01304Y01443D03*
Y01553D03*
X01198Y01443D03*
Y01553D03*
M02*