%FSTAX23Y23*%
%MOIN*%
%SFA1B1*%

%IPPOS*%
%ADD61C,0.040000*%
%ADD62C,0.075430*%
%ADD63C,0.071500*%
%ADD64C,0.087240*%
%ADD65C,0.068000*%
%LNpcb-1*%
%LPD*%
G54D61*
X00025Y0003D02*
Y0164D01*
X01815*
Y0003D02*
Y0164D01*
X00025Y0003D02*
X01815D01*
G54D62*
X00445Y0153D03*
Y0143D03*
X00215Y0039D03*
X00315D03*
X0085Y01228D03*
Y01328D03*
X0095Y01228D03*
Y01328D03*
X0105Y01228D03*
Y01328D03*
X0062Y0153D03*
Y0143D03*
X0149Y00403D03*
Y00503D03*
Y00603D03*
X0174D03*
Y00403D03*
X0022Y00845D03*
X0032D03*
X0022Y00745D03*
X0032D03*
X0022Y00645D03*
X0032D03*
X0022Y00545D03*
X0032D03*
G54D63*
X01356Y00109D03*
Y00188D03*
Y00266D03*
Y00345D03*
Y00424D03*
Y00503D03*
Y00581D03*
Y0066D03*
Y00739D03*
Y00818D03*
X0049Y00109D03*
Y00188D03*
Y00266D03*
Y00345D03*
Y00424D03*
Y00503D03*
Y00581D03*
Y0066D03*
Y00739D03*
Y00818D03*
G54D64*
X01577Y00188D03*
X01715D03*
X01717Y01498D03*
X0158D03*
X00272D03*
X00135D03*
X00272Y00188D03*
X00135D03*
G54D65*
X0076Y0098D03*
X007Y0093D03*
X00855Y0064D03*
X01205Y0051D03*
X0022Y00945D03*
X01105Y0083D03*
X01415Y0103D03*
Y01125D03*
X0095Y00625D03*
X01035D03*
X00295Y01375D03*
X0126Y0012D03*
X0096Y0077D03*
X01035D03*
X00615Y0035D03*
X0037Y01375D03*
X00295Y0097D03*
X00855Y00785D03*
X01115Y00625D03*
X01195Y0098D03*
X01625Y00955D03*
X00875Y0013D03*
M02*