%FSTAX23Y23*%
%MOIN*%
%SFA1B1*%

%IPPOS*%
%ADD91C,0.005000*%
%LNpcb-1*%
%LPD*%
G54D91*
X00427Y0153D02*
X00462D01*
X00445Y01512D02*
Y01547D01*
X00427Y0143D02*
X00462D01*
X00445Y01412D02*
Y01447D01*
X0134Y00109D02*
X01371D01*
X01356Y00093D02*
Y00125D01*
X0134Y00188D02*
X01371D01*
X01356Y00172D02*
Y00203D01*
X0134Y00266D02*
X01371D01*
X01356Y00251D02*
Y00282D01*
X0134Y00345D02*
X01371D01*
X01356Y00329D02*
Y00361D01*
X0134Y00424D02*
X01371D01*
X01356Y00408D02*
Y0044D01*
X0134Y00503D02*
X01371D01*
X01356Y00487D02*
Y00518D01*
X0134Y00581D02*
X01371D01*
X01356Y00566D02*
Y00597D01*
X0134Y0066D02*
X01371D01*
X01356Y00644D02*
Y00676D01*
X0134Y00739D02*
X01371D01*
X01356Y00723D02*
Y00755D01*
X0134Y00818D02*
X01371D01*
X01356Y00802D02*
Y00833D01*
X00474Y00109D02*
X00505D01*
X0049Y00093D02*
Y00125D01*
X00474Y00188D02*
X00505D01*
X0049Y00172D02*
Y00203D01*
X00474Y00266D02*
X00505D01*
X0049Y00251D02*
Y00282D01*
X00474Y00345D02*
X00505D01*
X0049Y00329D02*
Y00361D01*
X00474Y00424D02*
X00505D01*
X0049Y00408D02*
Y0044D01*
X00474Y00503D02*
X00505D01*
X0049Y00487D02*
Y00518D01*
X00474Y00581D02*
X00505D01*
X0049Y00566D02*
Y00597D01*
X00474Y0066D02*
X00505D01*
X0049Y00644D02*
Y00676D01*
X00474Y00739D02*
X00505D01*
X0049Y00723D02*
Y00755D01*
X00474Y00818D02*
X00505D01*
X0049Y00802D02*
Y00833D01*
X00197Y0039D02*
X00232D01*
X00215Y00372D02*
Y00407D01*
X00297Y0039D02*
X00332D01*
X00315Y00372D02*
Y00407D01*
X00832Y01228D02*
X00867D01*
X0085Y0121D02*
Y01245D01*
X00832Y01328D02*
X00867D01*
X0085Y0131D02*
Y01345D01*
X00932Y01228D02*
X00967D01*
X0095Y0121D02*
Y01245D01*
X00932Y01328D02*
X00967D01*
X0095Y0131D02*
Y01345D01*
X01032Y01228D02*
X01067D01*
X0105Y0121D02*
Y01245D01*
X01032Y01328D02*
X01067D01*
X0105Y0131D02*
Y01345D01*
X00602Y0153D02*
X00637D01*
X0062Y01512D02*
Y01547D01*
X00602Y0143D02*
X00637D01*
X0062Y01412D02*
Y01447D01*
X01472Y00403D02*
X01507D01*
X0149Y00385D02*
Y0042D01*
X01472Y00503D02*
X01507D01*
X0149Y00485D02*
Y0052D01*
X01472Y00603D02*
X01507D01*
X0149Y00585D02*
Y0062D01*
X01722Y00603D02*
X01757D01*
X0174Y00585D02*
Y0062D01*
X01722Y00403D02*
X01757D01*
X0174Y00385D02*
Y0042D01*
X01553Y00188D02*
X016D01*
X01577Y00164D02*
Y00211D01*
X01691Y00188D02*
X01738D01*
X01715Y00164D02*
Y00211D01*
X01694Y01498D02*
X01741D01*
X01717Y01474D02*
Y01521D01*
X01556Y01498D02*
X01603D01*
X0158Y01474D02*
Y01521D01*
X00249Y01498D02*
X00296D01*
X00272Y01474D02*
Y01521D01*
X00111Y01498D02*
X00158D01*
X00135Y01474D02*
Y01521D01*
X00249Y00188D02*
X00296D01*
X00272Y00164D02*
Y00211D01*
X00111Y00188D02*
X00158D01*
X00135Y00164D02*
Y00211D01*
X00202Y00845D02*
X00237D01*
X0022Y00827D02*
Y00862D01*
X00302Y00845D02*
X00337D01*
X0032Y00827D02*
Y00862D01*
X00202Y00745D02*
X00237D01*
X0022Y00727D02*
Y00762D01*
X00302Y00745D02*
X00337D01*
X0032Y00727D02*
Y00762D01*
X00202Y00645D02*
X00237D01*
X0022Y00627D02*
Y00662D01*
X00302Y00645D02*
X00337D01*
X0032Y00627D02*
Y00662D01*
X00202Y00545D02*
X00237D01*
X0022Y00527D02*
Y00562D01*
X00302Y00545D02*
X00337D01*
X0032Y00527D02*
Y00562D01*
X00746Y0098D02*
X00774D01*
X0076Y00966D02*
Y00994D01*
X00686Y0093D02*
X00714D01*
X007Y00916D02*
Y00944D01*
X00841Y0064D02*
X00869D01*
X00855Y00626D02*
Y00654D01*
X01191Y0051D02*
X01219D01*
X01205Y00496D02*
Y00524D01*
X00206Y00945D02*
X00234D01*
X0022Y00931D02*
Y00959D01*
X01091Y0083D02*
X01119D01*
X01105Y00816D02*
Y00844D01*
X01401Y0103D02*
X01429D01*
X01415Y01016D02*
Y01044D01*
X01401Y01125D02*
X01429D01*
X01415Y01111D02*
Y01139D01*
X00936Y00625D02*
X00964D01*
X0095Y00611D02*
Y00639D01*
X01021Y00625D02*
X01049D01*
X01035Y00611D02*
Y00639D01*
X00281Y01375D02*
X00309D01*
X00295Y01361D02*
Y01389D01*
X01246Y0012D02*
X01274D01*
X0126Y00106D02*
Y00134D01*
X00946Y0077D02*
X00974D01*
X0096Y00756D02*
Y00784D01*
X01021Y0077D02*
X01049D01*
X01035Y00756D02*
Y00784D01*
X00601Y0035D02*
X00629D01*
X00615Y00336D02*
Y00364D01*
X00356Y01375D02*
X00384D01*
X0037Y01361D02*
Y01389D01*
X00281Y0097D02*
X00309D01*
X00295Y00956D02*
Y00984D01*
X00841Y00785D02*
X00869D01*
X00855Y00771D02*
Y00799D01*
X01101Y00625D02*
X01129D01*
X01115Y00611D02*
Y00639D01*
X01181Y0098D02*
X01209D01*
X01195Y00966D02*
Y00994D01*
X01611Y00955D02*
X01639D01*
X01625Y00941D02*
Y00969D01*
X00861Y0013D02*
X00889D01*
X00875Y00116D02*
Y00144D01*
M02*