%FSTAX23Y23*%
%MOIN*%
%SFA1B1*%

%IPPOS*%
%AMD66*
4,1,4,-0.000900,0.029200,-0.029200,0.000900,0.000900,-0.029200,0.029200,-0.000900,-0.000900,0.029200,0.0*
%
%ADD10C,0.027560*%
%ADD11C,0.011810*%
%ADD12C,0.019690*%
%ADD13C,0.015750*%
%ADD14C,0.035430*%
%ADD15C,0.039370*%
%ADD16C,0.031500*%
%ADD52R,0.059060X0.059060*%
%ADD53C,0.059060*%
%ADD54O,0.098430X0.047240*%
%ADD55R,0.098430X0.047240*%
%ADD56R,0.059060X0.059060*%
%ADD57C,0.066930*%
%ADD58C,0.086610*%
%ADD59R,0.086610X0.086610*%
%ADD60C,0.050000*%
G04~CAMADD=66~9~0.0~0.0~400.0~426.0~0.0~0.0~0~0.0~0.0~0.0~0.0~0~0.0~0.0~0.0~0.0~0~0.0~0.0~0.0~45.0~584.0~583.0*
%ADD66D66*%
%LNpcb-1*%
%LPD*%
G36*
X01825Y00014D02*
X00014D01*
Y0165*
X01825*
Y00014*
G37*
%LNpcb-2*%
%LPC*%
G36*
X00215Y00682D02*
X0021Y00681D01*
X00201Y00677*
X00193Y00671*
X00187Y00663*
X00183Y00654*
X00182Y0065*
X00215*
Y00682*
G37*
G36*
X0162Y0095D02*
X01592D01*
X01592Y00946*
X01596Y00938*
X01601Y00931*
X01608Y00926*
X01616Y00922*
X0162Y00922*
Y0095*
G37*
G36*
X0174Y00444D02*
X01729Y00443D01*
X01719Y00439*
X0171Y00432*
X01703Y00424*
X01699Y00413*
X01698Y00403*
X01699Y00392*
X01703Y00382*
X0171Y00373*
X01719Y00367*
X01729Y00362*
X0174Y00361*
X0175Y00362*
X0176Y00367*
X01769Y00373*
X01776Y00382*
X0178Y00392*
X01781Y00403*
X0178Y00413*
X01776Y00424*
X01769Y00432*
X0176Y00439*
X0175Y00443*
X0174Y00444*
G37*
G36*
Y00644D02*
X01729Y00643D01*
X01719Y00639*
X0171Y00632*
X01703Y00624*
X01699Y00613*
X01698Y00603*
X01699Y00592*
X01703Y00582*
X0171Y00573*
X01719Y00567*
X01729Y00562*
X0174Y00561*
X0175Y00562*
X0176Y00567*
X01769Y00573*
X01776Y00582*
X0178Y00592*
X01781Y00603*
X0178Y00613*
X01776Y00624*
X01769Y00632*
X0176Y00639*
X0175Y00643*
X0174Y00644*
G37*
G36*
X0163Y00987D02*
Y0096D01*
X01657*
X01657Y00963*
X01653Y00971*
X01648Y00978*
X01641Y00983*
X01633Y00987*
X0163Y00987*
G37*
G36*
X00845Y01223D02*
X00812D01*
X00813Y01218*
X00817Y01209*
X00823Y01201*
X00831Y01195*
X0084Y01191*
X00845Y01191*
Y01223*
G37*
G36*
X01657Y0095D02*
X0163D01*
Y00922*
X01633Y00922*
X01641Y00926*
X01648Y00931*
X01653Y00938*
X01657Y00946*
X01657Y0095*
G37*
G36*
X0162Y00987D02*
X01616Y00987D01*
X01608Y00983*
X01601Y00978*
X01596Y00971*
X01592Y00963*
X01592Y0096*
X0162*
Y00987*
G37*
G36*
X01582Y00239D02*
Y00193D01*
X01628*
X01627Y00201*
X01621Y00213*
X01613Y00224*
X01603Y00232*
X0159Y00238*
X01582Y00239*
G37*
G36*
X01381Y00141D02*
X0133D01*
X01322Y0014*
X01314Y00137*
X01308Y00131*
X01303Y00125*
X01299Y00117*
X01298Y00109*
X01299Y00101*
X01303Y00093*
X01308Y00087*
X01314Y00081*
X01322Y00078*
X0133Y00077*
X01381*
X01389Y00078*
X01397Y00081*
X01404Y00087*
X01409Y00093*
X01412Y00101*
X01413Y00109*
X01412Y00117*
X01409Y00125*
X01404Y00131*
X01397Y00137*
X01389Y0014*
X01381Y00141*
G37*
G36*
X0087Y00125D02*
X00842D01*
X00842Y00121*
X00846Y00113*
X00851Y00106*
X00858Y00101*
X00866Y00097*
X0087Y00097*
Y00125*
G37*
G36*
X00485Y00104D02*
X00433D01*
X00433Y00101*
X00436Y00093*
X00441Y00087*
X00448Y00081*
X00456Y00078*
X00464Y00077*
X00485*
Y00104*
G37*
G36*
X00546D02*
X00495D01*
Y00077*
X00515*
X00523Y00078*
X00531Y00081*
X00538Y00087*
X00543Y00093*
X00546Y00101*
X00546Y00104*
G37*
G36*
X01628Y00183D02*
X01582D01*
Y00137*
X0159Y00138*
X01603Y00143*
X01613Y00151*
X01621Y00162*
X01627Y00174*
X01628Y00183*
G37*
G36*
X01572Y00239D02*
X01563Y00238D01*
X01551Y00232*
X0154Y00224*
X01532Y00213*
X01527Y00201*
X01526Y00193*
X01572*
Y00239*
G37*
G36*
X00907Y00125D02*
X0088D01*
Y00097*
X00883Y00097*
X00891Y00101*
X00898Y00106*
X00903Y00113*
X00907Y00121*
X00907Y00125*
G37*
G36*
X01572Y00183D02*
X01526D01*
X01527Y00174*
X01532Y00162*
X0154Y00151*
X01551Y00143*
X01563Y00138*
X01572Y00137*
Y00183*
G37*
G36*
X00445Y01467D02*
X00435Y01466D01*
X00426Y01462*
X00418Y01456*
X00412Y01448*
X00408Y01439*
X00407Y0143*
X00408Y0142*
X00412Y01411*
X00418Y01403*
X00426Y01397*
X00435Y01393*
X00445Y01392*
X00454Y01393*
X00463Y01397*
X00471Y01403*
X00477Y01411*
X00481Y0142*
X00482Y0143*
X00481Y01439*
X00477Y01448*
X00471Y01456*
X00463Y01462*
X00454Y01466*
X00445Y01467*
G37*
G36*
X00615Y01425D02*
X00582D01*
X00583Y0142*
X00587Y01411*
X00593Y01403*
X00601Y01397*
X0061Y01393*
X00615Y01392*
Y01425*
G37*
G36*
X00375Y01407D02*
Y0138D01*
X00402*
X00402Y01383*
X00398Y01391*
X00393Y01398*
X00386Y01403*
X00378Y01407*
X00375Y01407*
G37*
G36*
X00402Y0137D02*
X00375D01*
Y01342*
X00378Y01342*
X00386Y01346*
X00393Y01351*
X00398Y01358*
X00402Y01366*
X00402Y0137*
G37*
G36*
X00365Y01407D02*
X00361Y01407D01*
X00353Y01403*
X00346Y01398*
X00341Y01391*
X00337Y01383*
X00337Y0138*
X00365*
Y01407*
G37*
G36*
X00615Y01467D02*
X0061Y01466D01*
X00601Y01462*
X00593Y01456*
X00587Y01448*
X00583Y01439*
X00582Y01435*
X00615*
Y01467*
G37*
G36*
X00657Y01567D02*
X00582D01*
Y01492*
X00657*
Y01567*
G37*
G36*
X01635Y01604D02*
X0149D01*
X0148Y01602*
X01472Y01597*
X01465Y01589*
X00795*
X00785Y01587*
X00777Y01582*
X00667Y01472*
X00662Y01464*
X0066Y01455*
Y01441*
X00656Y0144*
X00652Y01448*
X00646Y01456*
X00638Y01462*
X00629Y01466*
X00625Y01467*
Y0143*
Y01392*
X00629Y01393*
X00634Y01395*
X00637Y01391*
X00365Y01119*
X00275*
X00265Y01117*
X00257Y01112*
X00202Y01057*
X00197Y01049*
X00195Y0104*
Y00967*
X00191Y00961*
X00187Y00953*
X00186Y00945*
X00187Y00936*
X00191Y00928*
X00196Y00921*
X00203Y00916*
X00211Y00912*
X0022Y00911*
X00228Y00912*
X00236Y00916*
X00243Y00921*
X00248Y00928*
X00252Y00936*
X00253Y00945*
X00252Y00953*
X00248Y00961*
X00244Y00967*
Y0103*
X00284Y0107*
X00375*
X00384Y01072*
X00392Y01077*
X00702Y01387*
X00704Y01391*
X00709Y0139*
Y0138*
X00356Y01027*
X00344Y01017*
X00328Y01009*
X00312Y01004*
X00295Y01003*
X00295Y01003*
X00286Y01002*
X00278Y00998*
X00271Y00993*
X00266Y00986*
X00262Y00978*
X00261Y0097*
X00262Y00961*
X00266Y00953*
X00271Y00946*
X00277Y00941*
X00277Y00936*
X00271Y00934*
X00265Y00929*
X00218Y00882*
X00182*
Y00807*
X00257*
Y00843*
X00295Y0088*
X003Y00879*
X003Y00877*
X00293Y00871*
X00287Y00863*
X00283Y00854*
X00282Y00845*
X00283Y00835*
X00287Y00826*
X00293Y00818*
X00301Y00812*
X0031Y00808*
X0032Y00807*
X00329Y00808*
X00338Y00812*
X00346Y00818*
X00346Y00818*
X00346Y00818*
X00346Y00818*
X00352Y00823*
X00359Y00826*
X00366Y00826*
X00397*
X00415Y00809*
X00415Y00809*
X00416Y00808*
X00419Y00805*
X00424Y00801*
X00425Y00801*
X00426Y008*
X00432Y00797*
Y00786*
X00547*
Y00849*
X00515*
Y00909*
X00655Y01049*
X00875*
X00881Y0105*
X00884Y01051*
X00887Y01052*
X00893Y01056*
X00968Y01131*
X00972Y01137*
X00973Y0114*
X00974Y01143*
X00975Y0115*
Y012*
X00976Y01201*
X00982Y01209*
X00986Y01218*
X00987Y01228*
X00986Y01237*
X00982Y01247*
X00976Y01254*
X00975Y01255*
Y013*
X00976Y01301*
X00982Y01309*
X00986Y01318*
X00987Y01328*
X00986Y01337*
X00982Y01347*
X00976Y01354*
X00968Y0136*
X00959Y01364*
X0095Y01365*
X0094Y01364*
X00931Y0136*
X00923Y01354*
X00917Y01347*
X00913Y01337*
X00912Y01328*
X00913Y01318*
X00917Y01309*
X00923Y01301*
X00924Y013*
Y01255*
X00923Y01254*
X00917Y01247*
X00913Y01237*
X00912Y01228*
X00913Y01218*
X00917Y01209*
X00923Y01201*
X00924Y012*
Y0116*
X00864Y011*
X00645*
X00638Y01099*
X00636Y01099*
X00632Y01097*
X00626Y01093*
X00471Y00938*
X00467Y00932*
X00466Y00929*
X00465Y00926*
X00464Y0092*
Y00849*
X00432*
X00431Y00849*
X00425Y00851*
X00418Y00856*
X00417Y00857*
X00411Y00861*
X00405Y00863*
X00366*
X00359Y00863*
X00352Y00866*
X00346Y00871*
X00346Y00871*
X00346Y00871*
X00346Y00871*
X00339Y00877*
X0034Y00882*
X0034Y00882*
X0037*
X00377Y00883*
X00383Y00885*
X00389Y0089*
X00804Y01305*
X00809Y01311*
X0081Y01313*
X00815*
X00817Y01309*
X00823Y01301*
X00831Y01295*
X0084Y01291*
X00845Y01291*
Y01328*
Y01365*
X0084Y01364*
X00831Y0136*
X00823Y01354*
X00817Y01347*
X00813Y01349*
Y01358*
X00851Y01397*
X01343*
X01462Y01278*
Y00633*
X0146Y00632*
X01453Y00624*
X01449Y00613*
X01449Y00608*
X01444Y00609*
Y0092*
X01442Y00925*
X01439Y00929*
X01429Y0094*
Y00983*
X01429*
X01429Y00984*
Y00984*
X0143Y00992*
X01433Y00999*
X01438Y01006*
X01438Y01006*
X01443Y01013*
X01447Y01021*
X01448Y0103*
X01447Y01038*
X01443Y01046*
X01438Y01053*
X01431Y01058*
X01423Y01062*
X01415Y01063*
X01406Y01062*
X01398Y01058*
X01391Y01053*
X01386Y01046*
X01382Y01038*
X01381Y0103*
X01382Y01021*
X01386Y01013*
X01391Y01006*
X01391Y01006*
X01396Y00999*
X01399Y00992*
X014Y00984*
Y00984*
X014Y00983*
X014*
Y00935*
X01402Y00929*
X01405Y00925*
X01415Y00914*
Y0083*
X01411Y00829*
X01409Y00834*
X01404Y0084*
X01397Y00845*
X01389Y00848*
X01381Y00849*
X0133*
X01322Y00848*
X01319Y00847*
X01316Y00851*
X01369Y00905*
X01372Y00909*
X01374Y00915*
Y01064*
X01392Y01082*
X01392Y01082*
X01392Y01082*
X01392Y01082*
X01398Y01087*
X01406Y0109*
X01414Y01091*
X01415Y01091*
X01423Y01092*
X01431Y01096*
X01438Y01101*
X01443Y01108*
X01447Y01116*
X01448Y01125*
X01447Y01133*
X01443Y01141*
X01438Y01148*
X01431Y01153*
X01423Y01157*
X01415Y01158*
X01406Y01157*
X01398Y01153*
X01391Y01148*
X01386Y01141*
X01382Y01133*
X01381Y01125*
X01381Y01124*
X0138Y01116*
X01377Y01108*
X01372Y01102*
X01372Y01102*
X01372Y01102*
X01372Y01102*
X0135Y01079*
X01347Y01075*
X01345Y0107*
Y0092*
X01326Y00901*
X01321Y00903*
X01323Y0091*
Y0119*
X01321Y01196*
X01317Y01202*
X01179Y0134*
X01173Y01344*
X01166Y01346*
X01096*
X01089Y01347*
X01087Y01348*
Y01365*
X01012*
Y0129*
X01087*
Y01308*
X01089Y01309*
X01096Y0131*
X01159*
X01286Y01182*
Y00917*
X01268Y00898*
X01263Y00899*
X01263Y009*
Y01145*
X01261Y01151*
X01257Y01157*
X01174Y0124*
X01168Y01244*
X01161Y01246*
X01096*
X01089Y01247*
X01082Y0125*
X01076Y01254*
X01076Y01254*
X01076Y01254*
X01076Y01254*
X01076Y01255*
X01068Y0126*
X01059Y01264*
X0105Y01265*
X0104Y01264*
X01031Y0126*
X01023Y01254*
X01017Y01247*
X01013Y01237*
X01012Y01228*
X01013Y01218*
X01017Y01209*
X01023Y01201*
X01031Y01195*
X0104Y01191*
X0105Y0119*
X01059Y01191*
X01068Y01195*
X01076Y01201*
X01076Y01201*
X01076Y01201*
X01076Y01201*
X01082Y01206*
X01089Y01209*
X01096Y0121*
X01154*
X01226Y01137*
Y01*
X01222Y00998*
X01218Y01003*
X01211Y01008*
X01203Y01012*
X01195Y01013*
X01186Y01012*
X01178Y01008*
X01171Y01003*
X01171Y01003*
X01164Y00998*
X01157Y00995*
X01149Y00994*
X01149*
X01148Y00994*
Y00994*
X00875*
X00869Y00992*
X00865Y00989*
X0073Y00854*
X00727Y0085*
X00725Y00845*
Y0072*
X00563Y00558*
X00543*
X0054Y00563*
X00543Y00566*
X00546Y00573*
X00547Y00581*
X00546Y0059*
X00543Y00597*
X00538Y00604*
X00531Y00609*
X00523Y00612*
X00515Y00613*
X00464*
X00456Y00612*
X00448Y00609*
X00441Y00604*
X00436Y00597*
X00433Y0059*
X00429Y00591*
Y0065*
X00433Y00651*
X00436Y00644*
X00441Y00638*
X00448Y00633*
X00456Y00629*
X00464Y00628*
X00515*
X00523Y00629*
X00531Y00633*
X00537Y00637*
X00538Y00638*
X00538Y00638*
X00538Y00638*
X00545Y00643*
X00552Y00644*
X00553Y00644*
Y00644*
X00582*
X00587Y00645*
X00588Y00645*
X00593Y00649*
Y00649*
Y00649*
X00711Y00766*
X00714Y00772*
X00715Y00773*
X00716Y00778*
Y00888*
X00716*
X00716Y0089*
Y0089*
X00717Y00898*
X00722Y00906*
X00723Y00906*
X00723Y00906*
X00723Y00906*
X00728Y00913*
X00732Y00921*
X00733Y0093*
X00732Y00938*
X00728Y00946*
X00723Y00953*
X00716Y00958*
X00715Y00959*
X00718Y00963*
X0072Y00963*
X0072*
X00728Y00962*
X00736Y00957*
X00736Y00956*
X00736Y00956*
X00736Y00956*
X00743Y00951*
X00751Y00947*
X0076Y00946*
X00768Y00947*
X00776Y00951*
X00783Y00956*
X00788Y00963*
X00792Y00971*
X00793Y0098*
X00792Y00988*
X00788Y00996*
X00783Y01003*
X00776Y01008*
X00768Y01012*
X0076Y01013*
X00751Y01012*
X00743Y01008*
X00736Y01003*
X00736Y01003*
X00736Y01003*
X00736Y01002*
X00728Y00997*
X0072Y00996*
X0072*
X00718Y00996*
Y00996*
X0068*
X00673Y00994*
X00668Y00991*
X00628Y00951*
X00625Y00946*
X00624Y00945*
X00623Y0094*
Y00799*
X00579Y00755*
X00553*
Y00755*
X00552Y00755*
X00545Y00756*
X00538Y00761*
X00538Y00761*
X00538Y00761*
X00538Y00761*
X00537Y00762*
X00531Y00766*
X00523Y0077*
X00515Y00771*
X00464*
X00456Y0077*
X00448Y00766*
X00441Y00761*
X00436Y00755*
X00433Y00747*
X00432Y00739*
X00433Y00731*
X00436Y00723*
X00441Y00716*
X00448Y00711*
X00456Y00708*
X00464Y00707*
X00515*
X00523Y00708*
X00531Y00711*
X00537Y00716*
X00538Y00716*
X00538Y00716*
X00538Y00717*
X00545Y00721*
X00552Y00723*
X00553Y00723*
Y00723*
X00586*
X00591Y00724*
X00592Y00724*
X00597Y00728*
X00651Y00781*
X00654Y00787*
X00656Y00793*
Y00933*
X00663Y0094*
X00667Y00938*
X00667Y00938*
X00666Y0093*
X00667Y00921*
X00671Y00913*
X00676Y00906*
X00676Y00906*
X00676Y00906*
X00676Y00906*
X00677Y00906*
X00682Y00898*
X00683Y0089*
Y0089*
X00683Y00888*
X00683*
Y00784*
X00575Y00676*
X00553*
Y00676*
X00552Y00676*
X00545Y00678*
X00538Y00682*
X00538Y00683*
X00538Y00683*
X00538Y00683*
X00537Y00683*
X00531Y00688*
X00523Y00691*
X00515Y00692*
X00464*
X00456Y00691*
X00448Y00688*
X00441Y00683*
X00436Y00676*
X00433Y00669*
X00429Y0067*
Y0071*
X00427Y00715*
X00424Y00719*
X00389Y00754*
X00385Y00757*
X0038Y00759*
X00377*
Y00759*
X00376Y00759*
X00375*
X00365Y0076*
X00355Y00764*
X00347Y00771*
X00346Y00771*
X00338Y00777*
X00329Y00781*
X0032Y00782*
X0031Y00781*
X00301Y00777*
X00293Y00771*
X00287Y00763*
X00283Y00754*
X00282Y00745*
X00283Y00735*
X00287Y00726*
X00293Y00718*
X00301Y00712*
X0031Y00708*
X0032Y00707*
X00329Y00708*
X00338Y00712*
X00346Y00718*
X00347Y00718*
X00355Y00725*
X00365Y00729*
X00374Y0073*
X004Y00704*
Y00635*
X00396Y00633*
X00374Y00654*
X0037Y00657*
X00365Y00659*
Y00659*
X00364Y00659*
X00358Y0066*
X00352Y00663*
X00351Y00666*
X0035Y00666*
X0035Y00666*
X00349Y00668*
X00349Y00668*
X00346Y00671*
X00338Y00677*
X00329Y00681*
X0032Y00682*
X0031Y00681*
X00301Y00677*
X00293Y00671*
X00287Y00663*
X00283Y00655*
X00279Y00656*
Y007*
X00277Y00705*
X00274Y00709*
X0027Y00714*
X0027Y00714*
X00269Y00715*
X00269Y00715*
X00263Y00723*
X00259Y00733*
X00257Y00744*
X00257Y00745*
X00256Y00754*
X00252Y00763*
X00246Y00771*
X00238Y00777*
X00229Y00781*
X0022Y00782*
X0021Y00781*
X00201Y00777*
X00193Y00771*
X00187Y00763*
X00183Y00754*
X00182Y00745*
X00183Y00735*
X00187Y00726*
X00193Y00718*
X00201Y00712*
X0021Y00708*
X0022Y00707*
X0022Y00707*
X00231Y00706*
X00241Y00701*
X00249Y00695*
X00249Y00695*
X0025Y00694*
X0025Y00694*
X0025Y00694*
Y00674*
X00246Y00671*
X00238Y00677*
X00229Y00681*
X00225Y00682*
Y00645*
X0022*
Y0064*
X00182*
X00183Y00635*
X00187Y00626*
X00193Y00618*
X00194Y00617*
X00192Y00613*
X0019*
X00183Y00611*
X00177Y00607*
X00137Y00567*
X00133Y00561*
X00132Y00555*
X00127Y00556*
Y01255*
X00224Y01352*
X00268*
X00271Y01351*
X00271Y01351*
X00271Y01351*
X00273Y0135*
X00278Y01346*
X00286Y01342*
X00295Y01341*
X00303Y01342*
X00311Y01346*
X00318Y01351*
X00323Y01358*
X00327Y01366*
X00328Y01375*
X00327Y01383*
X00323Y01391*
X00318Y01398*
X00311Y01403*
X00303Y01407*
X00295Y01408*
X00286Y01407*
X00278Y01403*
X00273Y01399*
X00271Y01398*
X00271Y01398*
X00271Y01398*
X00268Y01397*
X00215*
X00206Y01395*
X00199Y0139*
X00089Y0128*
X00084Y01273*
X00082Y01265*
Y0033*
X00084Y00321*
X00089Y00314*
X00159Y00243*
X00157Y00239*
X00083*
Y00136*
X00186*
Y00232*
X00238*
X0024Y00227*
X00236Y00224*
X00228Y00213*
X00222Y00201*
X00221Y00188*
X00222Y00174*
X00228Y00162*
X00236Y00151*
X00246Y00143*
X00259Y00138*
X00272Y00136*
X00286Y00138*
X00298Y00143*
X00309Y00151*
X00317Y00162*
X00322Y00174*
X00324Y00188*
X00322Y00199*
X00327Y00201*
X00394Y00134*
X00401Y00129*
X0041Y00127*
X0043*
X00432Y00128*
X00434Y00126*
X00436Y00124*
X00433Y00117*
X00433Y00114*
X00546*
X00546Y00117*
X00543Y00125*
X0054Y00128*
X00543Y00132*
X00573*
X0058Y00128*
X00588Y00126*
X00693*
X00702Y00128*
X00709Y00133*
X00734Y00157*
X00849*
X00851Y00153*
X00846Y00146*
X00842Y00138*
X00842Y00135*
X00907*
X00907Y00138*
X00903Y00146*
X00898Y00153*
X009Y00157*
X0104*
X01094Y00104*
X01101Y00099*
X0111Y00097*
X01233*
X01236Y00096*
X01236Y00096*
X01236Y00096*
X01238Y00095*
X01243Y00091*
X01251Y00087*
X0126Y00086*
X01268Y00087*
X01276Y00091*
X01283Y00096*
X01288Y00103*
X01292Y00111*
X01293Y0012*
X01292Y00128*
X01288Y00136*
X01283Y00143*
X01276Y00148*
X01268Y00152*
X0126Y00153*
X01251Y00152*
X01243Y00148*
X01238Y00144*
X01236Y00143*
X01236Y00143*
X01236Y00143*
X01233Y00142*
X01119*
X01065Y00195*
X01058Y002*
X01057Y002*
X01058Y00205*
X01277*
X01285Y00207*
X01292Y00211*
X01303*
X01305Y00207*
X01303Y00204*
X01299Y00196*
X01298Y00188*
X01299Y0018*
X01303Y00172*
X01308Y00165*
X01314Y0016*
X01322Y00157*
X0133Y00156*
X01381*
X01389Y00157*
X01397Y0016*
X01404Y00165*
X01409Y00172*
X01412Y0018*
X01413Y00188*
X01412Y00196*
X01409Y00204*
X01406Y00207*
X01409Y00211*
X01422*
X01428Y00207*
X01437Y00205*
X01453*
X01464Y00194*
Y0014*
X01465Y00133*
X01466Y0013*
X01467Y00127*
X01471Y00121*
X01511Y00081*
X01517Y00077*
X01523Y00075*
X0153Y00074*
X0169*
X01696Y00075*
X01699Y00076*
X01702Y00077*
X01708Y00081*
X01733Y00106*
X01737Y00112*
X01739Y00118*
X0174Y00125*
Y00126*
X01741*
X0174Y00127*
X01742Y00135*
X01742Y00136*
X01766*
Y00239*
X01663*
Y00136*
X01683*
X01685Y00132*
X01679Y00125*
X0154*
X01515Y0015*
Y00365*
X01515*
X01515Y00365*
X01516Y00369*
X01519Y00373*
X01519Y00373*
X01526Y00382*
X0153Y00392*
X01531Y00403*
X0153Y00413*
X01526Y00424*
X01519Y00432*
X0151Y00439*
X015Y00443*
X0149Y00444*
X01479Y00443*
X01469Y00439*
X0146Y00432*
X01453Y00424*
X01449Y00413*
X01448Y00403*
X01449Y00392*
X01453Y00382*
X0146Y00373*
X0146Y00373*
X01463Y00369*
X01464Y00365*
X01464Y00365*
X01464*
Y00255*
X01458Y00249*
X01437*
X01428Y00248*
X01422Y00243*
X01409*
X01406Y00248*
X01409Y00251*
X01412Y00258*
X01413Y00266*
X01412Y00275*
X01409Y00282*
X01404Y00289*
X01397Y00294*
X01389Y00297*
X01381Y00298*
X0133*
X01322Y00297*
X01314Y00294*
X01308Y00289*
X01303Y00282*
X01299Y00275*
X01298Y00266*
X01299Y00258*
X01303Y00251*
X01305Y00248*
X01303Y00243*
X01292*
X01285Y00248*
X01277Y00249*
X0055*
X00547Y00249*
X00543Y00252*
X00546Y00258*
X00547Y00266*
X00546Y00275*
X00543Y00282*
X0054Y00286*
X00542Y0029*
X00795*
X008Y00292*
X00804Y00295*
X00909Y004*
X00912Y00404*
X00914Y0041*
Y00613*
X00918Y00614*
X00921Y00608*
X00926Y00601*
X00926Y00601*
X00931Y00594*
X00934Y00587*
X00935Y00579*
Y00579*
X00935Y00578*
X00935*
Y0047*
X00937Y00464*
X0094Y0046*
X01025Y00375*
X01029Y00372*
X01035Y0037*
X01304*
X01306Y00366*
X01303Y00361*
X01299Y00353*
X01298Y00345*
X01299Y00337*
X01303Y00329*
X01308Y00323*
X01314Y00318*
X01322Y00315*
X0133Y00313*
X01381*
X01389Y00315*
X01397Y00318*
X01404Y00323*
X01409Y00329*
X01412Y00337*
X01413Y00345*
X01412Y00353*
X01409Y00361*
X01404Y00367*
X01405Y00372*
X01409Y00375*
X01439Y00405*
X01442Y00409*
X01444Y00415*
Y00497*
X01449Y00497*
X01449Y00492*
X01453Y00482*
X0146Y00473*
X01469Y00467*
X01479Y00462*
X0149Y00461*
X015Y00462*
X0151Y00467*
X01519Y00473*
X01526Y00482*
X0153Y00492*
X01531Y00503*
X0153Y00513*
X01526Y00524*
X01519Y00532*
X0151Y00539*
X015Y00543*
X0149Y00544*
X01479Y00543*
X01469Y00539*
X0146Y00532*
X01453Y00524*
X01449Y00513*
X01449Y00508*
X01444Y00509*
Y00597*
X01449Y00597*
X01449Y00592*
X01453Y00582*
X0146Y00573*
X01469Y00567*
X01479Y00562*
X0149Y00561*
X015Y00562*
X0151Y00567*
X01519Y00573*
X01526Y00582*
X0153Y00592*
X01531Y00603*
X0153Y00613*
X01526Y00624*
X01519Y00632*
X01517Y00633*
Y0129*
X01516Y01297*
X01514Y01303*
X01509Y01309*
X01374Y01444*
X01368Y01449*
X01362Y01451*
X01355Y01452*
X0084*
X00832Y01451*
X00826Y01449*
X0082Y01444*
X00765Y01389*
X00765Y01389*
X0076Y01391*
Y01414*
X00818Y01472*
X01518*
Y01472*
X01519Y01472*
X01527Y01471*
X01528Y0147*
Y01446*
X01631*
Y01544*
X01635Y01546*
X01653Y01528*
Y01528*
X01655Y01526*
X0166Y01519*
X01665Y01509*
X01666Y01499*
X01666Y01498*
X01666*
X01666Y01497*
X01667Y01484*
X01673Y01472*
X01681Y01461*
X01691Y01453*
X01704Y01448*
X01717Y01446*
X01731Y01448*
X01743Y01453*
X01754Y01461*
X01762Y01472*
X01767Y01484*
X01769Y01498*
X01767Y01511*
X01762Y01523*
X01754Y01534*
X01743Y01542*
X01731Y01548*
X01718Y01549*
X01717Y01549*
Y01549*
X01716Y01549*
X01706Y0155*
X01696Y01555*
X01689Y0156*
X01687Y01562*
X01652Y01597*
X01645Y01602*
X01635Y01604*
G37*
G36*
X00482Y01567D02*
X00407D01*
Y01492*
X00482*
Y01567*
G37*
G36*
X00272Y01549D02*
X00259Y01548D01*
X00246Y01542*
X00236Y01534*
X00228Y01523*
X00222Y01511*
X00221Y01498*
X00222Y01484*
X00228Y01472*
X00236Y01461*
X00246Y01453*
X00259Y01448*
X00272Y01446*
X00286Y01448*
X00298Y01453*
X00309Y01461*
X00317Y01472*
X00322Y01484*
X00324Y01498*
X00322Y01511*
X00317Y01523*
X00309Y01534*
X00298Y01542*
X00286Y01548*
X00272Y01549*
G37*
G36*
X00186Y01549D02*
X00083D01*
Y01446*
X00186*
Y01549*
G37*
G36*
X00887Y01323D02*
X00855D01*
Y01291*
X00859Y01291*
X00868Y01295*
X00876Y01301*
X00882Y01309*
X00886Y01318*
X00887Y01323*
G37*
G36*
X00855Y01265D02*
Y01233D01*
X00887*
X00886Y01237*
X00882Y01247*
X00876Y01254*
X00868Y0126*
X00859Y01264*
X00855Y01265*
G37*
G36*
X00845D02*
X0084Y01264D01*
X00831Y0126*
X00823Y01254*
X00817Y01247*
X00813Y01237*
X00812Y01233*
X00845*
Y01265*
G37*
G36*
X00365Y0137D02*
X00337D01*
X00337Y01366*
X00341Y01358*
X00346Y01351*
X00353Y01346*
X00361Y01342*
X00365Y01342*
Y0137*
G37*
G36*
X00887Y01223D02*
X00855D01*
Y01191*
X00859Y01191*
X00868Y01195*
X00876Y01201*
X00882Y01209*
X00886Y01218*
X00887Y01223*
G37*
G36*
X00855Y01365D02*
Y01333D01*
X00887*
X00886Y01337*
X00882Y01347*
X00876Y01354*
X00868Y0136*
X00859Y01364*
X00855Y01365*
G37*
%LNpcb-3*%
%LPD*%
G36*
X01627Y01551D02*
X01626Y01549D01*
X01528*
Y01525*
X01527Y01525*
X01519Y01524*
X01518Y01524*
Y01523*
X00808*
X00801Y01523*
X00799Y01522*
X00795Y0152*
X00789Y01516*
X00716Y01443*
X00713Y01439*
X0071Y0144*
X00709Y01445*
X00804Y0154*
X01475*
X01484Y01542*
X01492Y01547*
X01499Y01555*
X01624*
X01627Y01551*
G37*
G36*
X00754Y0135D02*
X00757Y01348D01*
Y01336*
X00358Y00937*
X00314*
X00314Y0094*
X00316Y00944*
X00335*
X00341Y00945*
X00344Y00946*
X00347Y00947*
X00353Y00951*
X00392Y0099*
X00394Y00992*
Y00992*
X00752Y01351*
X00754Y0135*
G37*
G36*
X01157Y00964D02*
X01164Y00961D01*
X01171Y00956*
X01171Y00956*
X01178Y00951*
X01186Y00947*
X01195Y00946*
X01203Y00947*
X01211Y00951*
X01218Y00956*
X01222Y00961*
X01226Y00959*
Y00907*
X01143Y00823*
X01138Y00825*
X01139Y0083*
X01138Y00838*
X01134Y00846*
X01129Y00853*
X01122Y00858*
X01114Y00862*
X01105Y00863*
X01097Y00862*
X01089Y00858*
X01082Y00853*
X01081Y00852*
X01081Y00852*
X0108Y00851*
X0108Y00851*
X01079Y00849*
X01072Y00845*
X01069Y00844*
X00999Y00914*
X00995Y00917*
X0099Y00919*
X0086*
X00854Y00917*
X0085Y00914*
X00758Y00823*
X00754Y00825*
Y00839*
X0088Y00965*
X01148*
Y00965*
X01149Y00965*
X01149*
X01157Y00964*
G37*
G36*
X0055Y00205D02*
X00716D01*
X00717Y002*
X00716Y002*
X00709Y00195*
X00684Y0017*
X00588*
X0058Y00169*
X00573Y00164*
X00543*
X0054Y00169*
X00543Y00172*
X00546Y0018*
X00547Y00188*
X00546Y00196*
X00543Y00202*
X00547Y00206*
X0055Y00205*
G37*
G36*
X00184Y00557D02*
X00183Y00554D01*
X00182Y00545*
X00183Y00535*
X00187Y00526*
X00193Y00518*
X00193Y00517*
X00193Y00517*
X00194Y00517*
X00194Y00517*
X00194Y00517*
X002Y00509*
X00204Y00499*
X00205Y0049*
Y0049*
X00205Y0049*
X00205*
X00207Y00484*
X0021Y0048*
X00255Y00435*
X00259Y00432*
X00265Y0043*
X00303*
X00304Y00426*
X00296Y00422*
X00288Y00416*
X00282Y00408*
X00278Y00399*
X00277Y0039*
X00278Y0038*
X00282Y00371*
X00288Y00363*
X00296Y00357*
X00305Y00353*
X00315Y00352*
X00324Y00353*
X00333Y00357*
X00341Y00363*
X00347Y00371*
X00351Y0038*
X00352Y0039*
X00351Y00399*
X00347Y00408*
X00342Y00415*
X00346Y00418*
X0037Y00394*
Y0034*
X00372Y00334*
X00375Y0033*
X0041Y00295*
Y00295*
X0041*
X00414Y00292*
X0042Y0029*
X00437*
X00439Y00286*
X00436Y00282*
X00433Y00275*
X00432Y00266*
X00433Y00258*
X00436Y00251*
X00439Y00248*
X00436Y00243*
X00419*
X00413Y00248*
X00405Y00249*
X00396*
X0032Y00325*
X00313Y0033*
X00305Y00332*
X00199*
X00183Y00347*
X00185Y00352*
X00252*
Y00427*
X00177*
Y0036*
X00176Y00359*
X00172Y00362*
Y0048*
X0017Y00488*
X00168Y00491*
Y00547*
X0018Y00559*
X00184Y00557*
G37*
G36*
X0075Y00699D02*
Y0068D01*
X00549Y00479*
X00542*
X0054Y00483*
X00543Y00487*
X00546Y00494*
X00547Y00503*
X00546Y00511*
X00543Y00519*
X00538Y00525*
X00537Y00525*
X00539Y0053*
X00569*
X00574Y00531*
X00579Y00534*
X00746Y00701*
X0075Y00699*
G37*
G36*
X01055Y0082D02*
X01059Y00817D01*
X01065Y00815*
Y00815*
X01065Y00815*
X01072Y00814*
X01079Y0081*
X0108Y00808*
X0108Y00808*
X01081Y00807*
X01081Y00807*
X01082Y00806*
X01089Y00801*
X01097Y00797*
X01105Y00796*
X0111Y00797*
X01112Y00792*
X01102Y00782*
X01098Y00776*
X01096Y0077*
Y00661*
X01096*
X01096Y0066*
Y0066*
X01095Y00654*
X01091Y00648*
X01091Y00648*
X01091Y00648*
X0109Y00647*
X01086Y00641*
X01082Y00633*
X01081Y00625*
X01082Y00616*
X01086Y00608*
X01091Y00601*
X01098Y00596*
X01106Y00592*
X01115Y00591*
X01123Y00592*
X01131Y00596*
X01138Y00601*
X01143Y00608*
X01147Y00616*
X01148Y00625*
X01147Y00633*
X01143Y00641*
X01139Y00647*
X01138Y00648*
X01138Y00648*
X01138Y00648*
X01134Y00654*
X01133Y0066*
Y0066*
X01133Y00661*
X01133*
Y00762*
X01181Y00811*
X01186Y0081*
X01186Y00809*
Y00546*
X01186*
X01186Y00545*
Y00545*
X01185Y00539*
X01181Y00533*
X01181Y00533*
X01181Y00533*
X0118Y00532*
X01176Y00526*
X01172Y00518*
X01171Y0051*
X01172Y00501*
X01176Y00493*
X01181Y00486*
X01188Y00481*
X01196Y00477*
X01205Y00476*
X01213Y00477*
X01221Y00481*
X01228Y00486*
X01233Y00493*
X01237Y00501*
X01238Y0051*
X01237Y00518*
X01233Y00526*
X01229Y00532*
X01228Y00533*
X01228Y00533*
X01228Y00533*
X01224Y00539*
X01223Y00545*
Y00545*
X01223Y00546*
X01223*
Y00802*
X01247Y00826*
X01251Y00824*
X0125Y0082*
Y00475*
X01214Y00439*
X01085*
X01049Y00475*
Y00578*
X01049*
X01049Y00579*
Y00579*
X0105Y00587*
X01053Y00594*
X01058Y00601*
X01058Y00601*
X01063Y00608*
X01067Y00616*
X01068Y00625*
X01067Y00633*
X01063Y00641*
X01058Y00648*
X01051Y00653*
X01043Y00657*
X01035Y00658*
X01026Y00657*
X01018Y00653*
X01011Y00648*
X01006Y00641*
X01002Y00633*
X01001Y00625*
X01002Y00616*
X01006Y00608*
X01011Y00601*
X01011Y00601*
X01016Y00594*
X01019Y00587*
X0102Y00579*
Y00579*
X0102Y00578*
X0102*
Y0047*
X01022Y00464*
X01025Y0046*
X0107Y00415*
X01074Y00412*
X0108Y0041*
X0122*
X01225Y00412*
X01229Y00415*
X01274Y0046*
X01277Y00464*
X01279Y0047*
Y00814*
X01296Y00832*
X01301Y00829*
X01299Y00826*
X01298Y00818*
X01299Y00809*
X01303Y00802*
X01308Y00795*
X01314Y0079*
X01322Y00787*
X0133Y00786*
X01381*
X01389Y00787*
X01397Y0079*
X01404Y00795*
X01409Y00802*
X01411Y00806*
X01415Y00805*
Y00751*
X01411Y0075*
X01409Y00755*
X01404Y00761*
X01397Y00766*
X01389Y0077*
X01381Y00771*
X0133*
X01322Y0077*
X01314Y00766*
X01308Y00761*
X01303Y00755*
X01299Y00747*
X01298Y00739*
X01299Y00731*
X01303Y00723*
X01308Y00716*
X01314Y00711*
X01322Y00708*
X0133Y00707*
X01381*
X01389Y00708*
X01397Y00711*
X01404Y00716*
X01409Y00723*
X01411Y00727*
X01415Y00726*
Y00673*
X01411Y00672*
X01409Y00676*
X01404Y00683*
X01397Y00688*
X01389Y00691*
X01381Y00692*
X0133*
X01322Y00691*
X01314Y00688*
X01308Y00683*
X01303Y00676*
X01299Y00668*
X01298Y0066*
X01299Y00652*
X01303Y00644*
X01308Y00638*
X01314Y00633*
X01322Y00629*
X0133Y00628*
X01381*
X01389Y00629*
X01397Y00633*
X01404Y00638*
X01409Y00644*
X01411Y00649*
X01415Y00648*
Y00594*
X01411Y00593*
X01409Y00597*
X01404Y00604*
X01397Y00609*
X01389Y00612*
X01381Y00613*
X0133*
X01322Y00612*
X01314Y00609*
X01308Y00604*
X01303Y00597*
X01299Y0059*
X01298Y00581*
X01299Y00573*
X01303Y00566*
X01308Y00559*
X01314Y00554*
X01322Y00551*
X0133Y0055*
X01381*
X01389Y00551*
X01397Y00554*
X01404Y00559*
X01409Y00566*
X01411Y0057*
X01415Y00569*
Y00515*
X01411Y00514*
X01409Y00519*
X01404Y00525*
X01397Y0053*
X01389Y00533*
X01381Y00534*
X0133*
X01322Y00533*
X01314Y0053*
X01308Y00525*
X01303Y00519*
X01299Y00511*
X01298Y00503*
X01299Y00494*
X01303Y00487*
X01308Y0048*
X01314Y00475*
X01322Y00472*
X0133Y00471*
X01381*
X01389Y00472*
X01397Y00475*
X01404Y0048*
X01409Y00487*
X01411Y00491*
X01415Y0049*
Y00436*
X01411Y00435*
X01409Y0044*
X01404Y00446*
X01397Y00451*
X01389Y00455*
X01381Y00456*
X0133*
X01322Y00455*
X01314Y00451*
X01308Y00446*
X01303Y0044*
X01299Y00432*
X01298Y00424*
X01299Y00416*
X01303Y00408*
X01306Y00403*
X01304Y00399*
X0104*
X00964Y00475*
Y00578*
X00964*
X00964Y00579*
Y00579*
X00965Y00587*
X00968Y00594*
X00973Y00601*
X00973Y00601*
X00978Y00608*
X00982Y00616*
X00983Y00625*
X00982Y00633*
X00978Y00641*
X00973Y00648*
X00966Y00653*
X00958Y00657*
X0095Y00658*
X00941Y00657*
X00933Y00653*
X00926Y00648*
X00921Y00641*
X00918Y00635*
X00914Y00636*
Y00744*
X00924Y00755*
X00927Y00754*
X00933Y0075*
X00934Y00749*
X00934Y00748*
X00935Y00748*
X00935Y00747*
X00936Y00746*
X00943Y00741*
X00951Y00737*
X0096Y00736*
X00968Y00737*
X00976Y00741*
X00983Y00746*
X00988Y00753*
X00992Y00761*
X00993Y0077*
X00992Y00778*
X00988Y00786*
X00983Y00793*
X00976Y00798*
X00968Y00802*
X0096Y00803*
X00951Y00802*
X00943Y00798*
X00936Y00793*
X00935Y00792*
X00935Y00791*
X00934Y00791*
X00934Y0079*
X00933Y00789*
X00927Y00785*
X0092Y00784*
X0092Y00784*
Y00784*
X00914Y00782*
X0091Y00779*
X0089Y00759*
X00887Y00755*
X00885Y0075*
Y00661*
X00881Y00659*
X00878Y00663*
X00871Y00668*
X00863Y00672*
X0086Y00672*
Y0064*
Y00607*
X00863Y00607*
X00871Y00611*
X00878Y00616*
X00881Y0062*
X00885Y00618*
Y00415*
X00789Y00319*
X00636*
X00634Y00323*
X00638Y00326*
X00643Y00333*
X00647Y00341*
X00647Y00345*
X00582*
X00582Y00341*
X00586Y00333*
X00591Y00326*
X00595Y00323*
X00593Y00319*
X0054*
X00538Y00323*
X00543Y00329*
X00546Y00337*
X00547Y00345*
X00546Y00353*
X00543Y00361*
X00539Y00366*
X00541Y0037*
X00555*
X0056Y00372*
X00564Y00375*
X00819Y00629*
X00821Y00628*
X00824Y00626*
X00826Y00623*
X00831Y00616*
X00838Y00611*
X00846Y00607*
X0085Y00607*
Y0064*
Y00672*
X00846Y00672*
X00838Y00668*
X00831Y00663*
X00828Y00659*
X00824Y00661*
Y00763*
X00828Y00765*
X00831Y00761*
X00838Y00756*
X00846Y00752*
X0085Y00752*
Y00785*
Y00817*
X00848Y00817*
X00846Y00821*
X00875Y0085*
X00974*
X0102Y00805*
X01019Y00802*
X01015Y00796*
X01014Y00795*
X01013Y00795*
X01013Y00794*
X01012Y00794*
X01011Y00793*
X01006Y00786*
X01002Y00778*
X01001Y0077*
X01002Y00761*
X01006Y00753*
X01011Y00746*
X01018Y00741*
X01026Y00737*
X01035Y00736*
X01043Y00737*
X01051Y00741*
X01058Y00746*
X01063Y00753*
X01067Y00761*
X01068Y0077*
X01067Y00778*
X01063Y00786*
X01058Y00793*
X01057Y00794*
X01056Y00794*
X01056Y00795*
X01055Y00795*
X01054Y00796*
X0105Y00802*
X01049Y00809*
X01049Y0081*
X01049*
X01047Y00815*
X01044Y00819*
X00989Y00874*
X00985Y00877*
X0098Y00879*
X0087*
X00864Y00877*
X0086Y00874*
X008Y00814*
X00797Y0081*
X00795Y00805*
Y00645*
X00549Y00399*
X00541*
X00539Y00403*
X00543Y00408*
X00546Y00416*
X00547Y00424*
X00546Y00432*
X00543Y0044*
X00538Y00446*
X0054Y0045*
X00555*
X0056Y00452*
X00564Y00455*
X00774Y00665*
X00777Y00669*
X00779Y00675*
Y00804*
X00865Y0089*
X00984*
X01055Y0082*
G37*
G36*
X00282Y00548D02*
X00282Y00545D01*
X00283Y00535*
X00287Y00526*
X00293Y00518*
X00301Y00512*
X0031Y00508*
X0032Y00507*
X00329Y00508*
X00338Y00512*
X00346Y00518*
X00351Y00524*
X00355Y00522*
Y00455*
X00351Y00453*
X00349Y00454*
X00345Y00457*
X0034Y00459*
X0027*
X00234Y00495*
X00235Y00499*
X00239Y00509*
X00245Y00517*
X00245Y00517*
Y00517*
X00246Y00517*
X00246Y00517*
X00246Y00518*
X00252Y00526*
X00256Y00535*
X00257Y00545*
X00256Y00554*
X00252Y00563*
X00246Y00571*
X00245Y00572*
X00247Y00576*
X00254*
X00282Y00548*
G37*
%LNpcb-4*%
%LPC*%
G36*
X00887Y0078D02*
X0086D01*
Y00752*
X00863Y00752*
X00871Y00756*
X00878Y00761*
X00883Y00768*
X00887Y00776*
X00887Y0078*
G37*
G36*
X0086Y00817D02*
Y0079D01*
X00887*
X00887Y00793*
X00883Y00801*
X00878Y00808*
X00871Y00813*
X00863Y00817*
X0086Y00817*
G37*
G36*
X0061Y00382D02*
X00606Y00382D01*
X00598Y00378*
X00591Y00373*
X00586Y00366*
X00582Y00358*
X00582Y00355*
X0061*
Y00382*
G37*
G36*
X0062D02*
Y00355D01*
X00647*
X00647Y00358*
X00643Y00366*
X00638Y00373*
X00631Y00378*
X00623Y00382*
X0062Y00382*
G37*
%LNpcb-5*%
%LPD*%
G54D10*
X01252Y00112D02*
D01*
X0125Y00113*
X01249Y00114*
X01247Y00115*
X01246Y00116*
X01244Y00117*
X01242Y00118*
X0124Y00118*
X01239Y00119*
X01237Y00119*
X01235Y00119*
X01233Y00119*
X01232Y0012*
D01*
X01234Y0012*
X01236Y0012*
X01238Y0012*
X0124Y00121*
X01242Y00121*
X01243Y00122*
X01245Y00123*
X01247Y00124*
X01248Y00125*
X0125Y00126*
X01251Y00127*
X01252Y00127*
X00287Y01367D02*
D01*
X00285Y01368*
X00284Y01369*
X00282Y0137*
X00281Y01371*
X00279Y01372*
X00277Y01373*
X00275Y01373*
X00274Y01374*
X00272Y01374*
X0027Y01374*
X00268Y01374*
X00267Y01375*
D01*
X00269Y01375*
X00271Y01375*
X00273Y01375*
X00275Y01376*
X00277Y01376*
X00278Y01377*
X0028Y01378*
X00282Y01379*
X00283Y0138*
X00285Y01381*
X00286Y01382*
X00287Y01382*
X00725Y0018D02*
X0105D01*
X00693Y00148D02*
X00725Y0018D01*
X00588Y00148D02*
X00693D01*
X0111Y0012D02*
X0126D01*
X0105Y0018D02*
X0111Y0012D01*
X0055Y00227D02*
X01277D01*
X01437D02*
X0149D01*
X00215Y01375D02*
X00295D01*
X0015Y0035D02*
Y0048D01*
Y0035D02*
X0019Y0031D01*
X00105Y0033D02*
X0018Y00254D01*
X0019Y0031D02*
X00305D01*
X00387Y00227*
X00405*
X0018Y00254D02*
X00305D01*
X0041Y0015*
X0043*
X00105Y0033D02*
Y01265D01*
X00215Y01375*
G54D11*
X01181Y00966D02*
D01*
X01179Y00968*
X01176Y0097*
X01174Y00972*
X01171Y00974*
X01168Y00975*
X01165Y00976*
X01162Y00977*
X01159Y00978*
X01156Y00979*
X01152Y00979*
X01149Y00979*
X01148Y0098*
D01*
X01152Y0098*
X01155Y0098*
X01158Y00981*
X01161Y00981*
X01164Y00982*
X01167Y00983*
X0117Y00985*
X01173Y00987*
X01175Y00988*
X01178Y0099*
X0118Y00992*
X01181Y00993*
X01022Y00784D02*
D01*
X01024Y00786*
X01026Y00787*
X01027Y00789*
X01029Y00791*
X0103Y00793*
X01031Y00795*
X01032Y00797*
X01033Y00799*
X01033Y00801*
X01034Y00803*
X01034Y00806*
X01034Y00808*
X01035Y0081*
D01*
X01035Y00807*
X01035Y00805*
X01035Y00803*
X01036Y00801*
X01036Y00798*
X01037Y00796*
X01038Y00794*
X01039Y00792*
X01041Y0079*
X01042Y00789*
X01044Y00787*
X01045Y00785*
X01047Y00784*
X00945Y00757D02*
D01*
X00943Y00759*
X00942Y00761*
X0094Y00762*
X00938Y00764*
X00936Y00765*
X00934Y00766*
X00932Y00767*
X0093Y00768*
X00928Y00768*
X00926Y00769*
X00923Y00769*
X00921Y00769*
X0092Y0077*
D01*
X00922Y0077*
X00924Y0077*
X00926Y0077*
X00928Y00771*
X00931Y00771*
X00933Y00772*
X00935Y00773*
X00937Y00774*
X00939Y00776*
X0094Y00777*
X00942Y00779*
X00944Y0078*
X00945Y00782*
X01048Y00611D02*
D01*
X01046Y00609*
X01044Y00606*
X01042Y00604*
X0104Y00601*
X01039Y00598*
X01038Y00595*
X01037Y00592*
X01036Y00589*
X01035Y00586*
X01035Y00582*
X01035Y00579*
X01035Y00578*
D01*
X01034Y00582*
X01034Y00585*
X01033Y00588*
X01033Y00591*
X01032Y00594*
X01031Y00597*
X01029Y006*
X01027Y00603*
X01026Y00605*
X01024Y00608*
X01022Y0061*
X01021Y00611*
X00963D02*
D01*
X00961Y00609*
X00959Y00606*
X00957Y00604*
X00955Y00601*
X00954Y00598*
X00953Y00595*
X00952Y00592*
X00951Y00589*
X0095Y00586*
X0095Y00582*
X0095Y00579*
X0095Y00578*
D01*
X00949Y00582*
X00949Y00585*
X00948Y00588*
X00948Y00591*
X00947Y00594*
X00946Y00597*
X00944Y006*
X00942Y00603*
X00941Y00605*
X00939Y00608*
X00937Y0061*
X00936Y00611*
X01415Y01105D02*
D01*
X01411Y01105*
X01408Y01105*
X01405Y01104*
X01402Y01104*
X01399Y01103*
X01396Y01101*
X01393Y011*
X0139Y01098*
X01387Y01097*
X01385Y01095*
X01382Y01092*
X01382Y01092*
D01*
X01384Y01094*
X01386Y01097*
X01388Y01099*
X0139Y01102*
X01391Y01105*
X01392Y01108*
X01393Y01111*
X01394Y01114*
X01395Y01117*
X01395Y0112*
X01395Y01124*
X01395Y01125*
X01428Y01016D02*
D01*
X01426Y01014*
X01424Y01011*
X01422Y01009*
X0142Y01006*
X01419Y01003*
X01418Y01*
X01417Y00997*
X01416Y00994*
X01415Y00991*
X01415Y00987*
X01415Y00984*
X01415Y00983*
D01*
X01414Y00987*
X01414Y0099*
X01413Y00993*
X01413Y00996*
X01412Y00999*
X01411Y01002*
X01409Y01005*
X01407Y01008*
X01406Y0101*
X01404Y01013*
X01402Y01015*
X01401Y01016*
X01091Y00817D02*
D01*
X01089Y00819*
X01088Y00821*
X01086Y00822*
X01084Y00824*
X01082Y00825*
X0108Y00826*
X01077Y00827*
X01075Y00828*
X01073Y00828*
X0107Y00829*
X01068Y00829*
X01066Y00829*
X01065Y0083*
D01*
X01067Y0083*
X01069Y0083*
X01072Y0083*
X01074Y00831*
X01076Y00832*
X01079Y00832*
X01081Y00834*
X01083Y00835*
X01085Y00836*
X01087Y00838*
X01088Y00839*
X0109Y00841*
X01091Y00842*
X00236Y00527D02*
D01*
X00233Y00525*
X00231Y00522*
X00229Y00519*
X00227Y00516*
X00225Y00513*
X00223Y00509*
X00222Y00506*
X00221Y00503*
X0022Y00499*
X0022Y00495*
X0022Y00492*
X0022Y0049*
D01*
X00219Y00493*
X00219Y00497*
X00218Y005*
X00217Y00504*
X00216Y00507*
X00215Y00511*
X00213Y00514*
X00212Y00517*
X0021Y0052*
X00207Y00523*
X00205Y00526*
X00203Y00527*
X00339Y00658D02*
D01*
X0034Y00656*
X00342Y00655*
X00343Y00653*
X00345Y00652*
X00347Y0065*
X00348Y00649*
X0035Y00648*
X00352Y00647*
X00354Y00646*
X00356Y00646*
X00358Y00645*
X0036Y00645*
X00363Y00645*
X00365Y00645*
D01*
X00362Y00644*
X0036Y00644*
X00358Y00644*
X00356Y00643*
X00354Y00643*
X00352Y00642*
X0035Y00641*
X00348Y0064*
X00346Y00639*
X00345Y00637*
X00343Y00636*
X00341Y00634*
X0034Y00633*
X00339Y00631*
X00336Y00761D02*
D01*
X00339Y00758*
X00342Y00756*
X00345Y00754*
X00349Y00752*
X00352Y0075*
X00356Y00748*
X0036Y00747*
X00364Y00746*
X00368Y00745*
X00372Y00745*
X00376Y00745*
X00377Y00745*
D01*
X00373Y00744*
X00369Y00744*
X00365Y00743*
X00361Y00742*
X00357Y00741*
X00353Y0074*
X0035Y00738*
X00346Y00736*
X00343Y00734*
X0034Y00731*
X00337Y00728*
X00336Y00728*
X00243Y00745D02*
D01*
X00243Y00741*
X00244Y00737*
X00244Y00733*
X00245Y00729*
X00247Y00725*
X00248Y00721*
X0025Y00718*
X00252Y00714*
X00254Y00711*
X00256Y00708*
X00259Y00705*
X0026Y00704*
D01*
X00257Y00707*
X00254Y00709*
X00251Y00712*
X00247Y00714*
X00244Y00716*
X0024Y00717*
X00236Y00718*
X00232Y00719*
X00228Y0072*
X00224Y00721*
X0022Y00721*
X0022Y00721*
X0034Y00595D02*
X0037Y00565D01*
Y0045D02*
Y00565D01*
Y0045D02*
X00435Y00385D01*
X00365Y00645D02*
X0039Y0062D01*
Y005D02*
Y0062D01*
Y005D02*
X00425Y00465D01*
X0038Y00745D02*
X00415Y0071D01*
Y0056D02*
Y0071D01*
Y0056D02*
X0043Y00544D01*
X0042Y00305D02*
X00795D01*
X00385Y0034D02*
X0042Y00305D01*
X00385Y0034D02*
Y004D01*
X0034Y00445D02*
X00385Y004D01*
X0081Y0064D02*
Y00805D01*
X00555Y00385D02*
X0081Y0064D01*
X0074Y00715D02*
Y00845D01*
X00569Y00544D02*
X0074Y00715D01*
X0043Y00544D02*
X00569D01*
X00765Y00675D02*
Y0081D01*
X00555Y00465D02*
X00765Y00675D01*
X0122Y00425D02*
X01265Y0047D01*
X0108Y00425D02*
X0122D01*
X01035Y0047D02*
X0108Y00425D01*
X0143Y00415D02*
Y0092D01*
X01415Y00935D02*
X0143Y0092D01*
X01415Y00935D02*
Y0103D01*
X01065Y0083D02*
X01105D01*
X0099Y00905D02*
X01065Y0083D01*
X0086Y00905D02*
X0099D01*
X01035Y0077D02*
Y0081D01*
X0098Y00865D02*
X01035Y0081D01*
X0087Y00865D02*
X0098D01*
X00765Y0081D02*
X0086Y00905D01*
X009Y0041D02*
Y0075D01*
X00795Y00305D02*
X009Y0041D01*
X0032Y00745D02*
X0038D01*
X0032Y00645D02*
X00365D01*
X0022Y00745D02*
X00265Y007D01*
Y00625D02*
Y007D01*
Y00625D02*
X00295Y00595D01*
X0034*
X0074Y00845D02*
X00875Y0098D01*
X0022Y0049D02*
Y00545D01*
Y0049D02*
X00265Y00445D01*
X0034*
X0095Y0047D02*
Y00625D01*
Y0047D02*
X01035Y00385D01*
X014*
X0143Y00415*
X0136Y0107D02*
X01415Y01125D01*
X0136Y00915D02*
Y0107D01*
X01265Y0082D02*
X0136Y00915D01*
X01265Y0047D02*
Y0082D01*
X01035Y0047D02*
Y00625D01*
X009Y0075D02*
X0092Y0077D01*
X0096*
X00425Y00465D02*
X00555D01*
X00435Y00385D02*
X00555D01*
X0081Y00805D02*
X0087Y00865D01*
X00875Y0098D02*
X01195D01*
G54D12*
X01104Y00635D02*
D01*
X01106Y00637*
X01107Y00639*
X01109Y00641*
X0111Y00643*
X01111Y00646*
X01112Y00648*
X01113Y0065*
X01114Y00653*
X01114Y00655*
X01114Y00658*
X01114Y0066*
X01115Y00661*
D01*
X01115Y00659*
X01115Y00656*
X01115Y00653*
X01116Y00651*
X01117Y00649*
X01118Y00646*
X01119Y00644*
X0112Y00642*
X01121Y0064*
X01123Y00638*
X01125Y00636*
X01125Y00635*
X01194Y0052D02*
D01*
X01196Y00522*
X01197Y00524*
X01199Y00526*
X012Y00528*
X01201Y00531*
X01202Y00533*
X01203Y00535*
X01204Y00538*
X01204Y0054*
X01204Y00543*
X01204Y00545*
X01205Y00546*
D01*
X01205Y00544*
X01205Y00541*
X01205Y00538*
X01206Y00536*
X01207Y00534*
X01208Y00531*
X01209Y00529*
X0121Y00527*
X01211Y00525*
X01213Y00523*
X01215Y00521*
X01215Y0052*
X00333Y00858D02*
D01*
X00336Y00856*
X00338Y00854*
X00341Y00852*
X00344Y0085*
X00347Y00849*
X0035Y00848*
X00353Y00847*
X00356Y00846*
X0036Y00845*
X00363Y00845*
X00366Y00845*
X00367Y00845*
D01*
X00364Y00844*
X0036Y00844*
X00357Y00843*
X00354Y00843*
X00351Y00842*
X00348Y0084*
X00345Y00839*
X00342Y00837*
X00339Y00835*
X00336Y00833*
X00334Y00831*
X00333Y00831*
X01063Y01342D02*
D01*
X01066Y01339*
X01068Y01337*
X01071Y01335*
X01074Y01334*
X01077Y01332*
X0108Y01331*
X01083Y0133*
X01086Y01329*
X0109Y01328*
X01093Y01328*
X01096Y01328*
X01097Y01328*
D01*
X01094Y01328*
X0109Y01327*
X01087Y01327*
X01084Y01326*
X01081Y01325*
X01078Y01324*
X01075Y01322*
X01072Y0132*
X01069Y01319*
X01066Y01317*
X01064Y01314*
X01063Y01314*
Y01242D02*
D01*
X01066Y01239*
X01068Y01237*
X01071Y01235*
X01074Y01234*
X01077Y01232*
X0108Y01231*
X01083Y0123*
X01086Y01229*
X0109Y01228*
X01093Y01228*
X01096Y01228*
X01097Y01228*
D01*
X01094Y01228*
X0109Y01227*
X01087Y01227*
X01084Y01226*
X01081Y01225*
X01078Y01224*
X01075Y01222*
X01072Y0122*
X01069Y01219*
X01066Y01217*
X01064Y01214*
X01063Y01214*
X00454Y00808D02*
D01*
X00452Y0081*
X00451Y00811*
X00449Y00812*
X00447Y00813*
X00445Y00814*
X00443Y00815*
X00441Y00816*
X00439Y00817*
X00437Y00817*
X00435Y00817*
X00432Y00818*
X00431Y00818*
D01*
X00434Y00818*
X00436Y00818*
X00438Y00818*
X0044Y00819*
X00442Y0082*
X00444Y0082*
X00446Y00821*
X00448Y00822*
X0045Y00824*
X00452Y00825*
X00453Y00827*
X00454Y00827*
X00428Y00821D02*
D01*
X0043Y0082*
X00432Y00818*
X00434Y00816*
X00436Y00815*
X00438Y00814*
X00441Y00813*
X00443Y00812*
X00446Y00811*
X00448Y00811*
X00451Y0081*
X00454Y0081*
X00456Y0081*
X00459Y00811*
X00462Y00811*
X00464Y00812*
X00466Y00812*
X00405Y00845D02*
D01*
X00407Y00842*
X0041Y00839*
X00413Y00837*
X00417Y00835*
X0042Y00834*
X00424Y00832*
X00427Y00831*
X00431Y0083*
X00435Y00829*
X00439Y00829*
X00443Y00828*
X00446Y00828*
X0045Y00829*
X00454Y00829*
X00458Y0083*
X0046Y00831*
X01305Y0091D02*
Y0119D01*
X01166Y01328D02*
X01305Y0119D01*
X0105Y01328D02*
X01166D01*
X00431Y00818D02*
X0049D01*
X00405Y00845D02*
X00431Y00818D01*
X0032Y00845D02*
X00405D01*
X00311Y00545D02*
X0032D01*
X00261Y00595D02*
X00311Y00545D01*
X0019Y00595D02*
X00261D01*
X0015Y00555D02*
X0019Y00595D01*
X0015Y0048D02*
Y00555D01*
X0105Y01228D02*
X01161D01*
X01205Y0051D02*
Y0081D01*
X01305Y0091*
X01115Y00625D02*
Y0077D01*
X01161Y01228D02*
X01245Y01145D01*
X01115Y0077D02*
X01245Y009D01*
Y01145*
G54D13*
X00712Y00917D02*
D01*
X0071Y00915*
X00708Y00913*
X00706Y00911*
X00705Y00908*
X00703Y00906*
X00702Y00903*
X00701Y009*
X00701Y00897*
X007Y00895*
X007Y00892*
X007Y00889*
X007Y00888*
D01*
X00699Y00891*
X00699Y00894*
X00699Y00897*
X00698Y009*
X00697Y00902*
X00696Y00905*
X00695Y00908*
X00693Y0091*
X00692Y00912*
X0069Y00915*
X00688Y00917*
X00687Y00917*
X00747Y00967D02*
D01*
X00745Y00969*
X00743Y00971*
X00741Y00973*
X00738Y00974*
X00736Y00976*
X00733Y00977*
X0073Y00978*
X00727Y00978*
X00725Y00979*
X00722Y00979*
X00719Y00979*
X00718Y0098*
D01*
X00721Y0098*
X00724Y0098*
X00727Y0098*
X0073Y00981*
X00732Y00982*
X00735Y00983*
X00738Y00984*
X0074Y00986*
X00742Y00987*
X00745Y00989*
X00747Y00991*
X00747Y00992*
X00526Y0075D02*
D01*
X00528Y00748*
X0053Y00747*
X00532Y00745*
X00535Y00744*
X00537Y00742*
X00539Y00741*
X00542Y00741*
X00545Y0074*
X00547Y00739*
X0055Y00739*
X00552Y00739*
X00553Y00739*
D01*
X0055Y00739*
X00548Y00739*
X00545Y00738*
X00543Y00737*
X0054Y00737*
X00538Y00736*
X00535Y00734*
X00533Y00733*
X00531Y00732*
X00529Y0073*
X00527Y00728*
X00526Y00728*
Y00671D02*
D01*
X00528Y0067*
X0053Y00668*
X00532Y00666*
X00535Y00665*
X00537Y00664*
X00539Y00663*
X00542Y00662*
X00545Y00661*
X00547Y00661*
X0055Y0066*
X00552Y0066*
X00553Y0066*
D01*
X0055Y0066*
X00548Y0066*
X00545Y00659*
X00543Y00659*
X0054Y00658*
X00538Y00657*
X00535Y00656*
X00533Y00654*
X00531Y00653*
X00529Y00651*
X00527Y00649*
X00526Y00649*
X0049Y00739D02*
X00586D01*
X0064Y00793*
X0049Y0066D02*
X00582D01*
X007Y00778*
Y0093*
X0064Y00793D02*
Y0094D01*
X0068Y0098D02*
X0076D01*
X0064Y0094D02*
X0068Y0098D01*
X00405Y00227D02*
X0055D01*
X01277D02*
X01437D01*
X0043Y0015D02*
X00431Y00148D01*
X00588*
G54D14*
X00295Y00977D02*
D01*
X00302Y00977*
X0031Y00978*
X00318Y00979*
X00326Y00981*
X00334Y00984*
X00341Y00987*
X00348Y0099*
X00355Y00994*
X00362Y00999*
X00368Y01003*
X00374Y01009*
X00375Y0101*
X01561Y0148D02*
D01*
X01558Y01482*
X01555Y01485*
X01551Y01488*
X01548Y0149*
X01544Y01492*
X0154Y01494*
X01536Y01495*
X01532Y01496*
X01527Y01497*
X01523Y01497*
X01519Y01498*
X01518Y01498*
D01*
X01522Y01498*
X01526Y01498*
X01531Y01499*
X01535Y015*
X01539Y01501*
X01543Y01503*
X01547Y01505*
X0155Y01507*
X01554Y01509*
X01557Y01512*
X01561Y01515*
X01561Y01516*
X01733Y0017D02*
D01*
X0173Y00166*
X01727Y00163*
X01724Y0016*
X01722Y00156*
X0172Y00152*
X01719Y00148*
X01717Y00144*
X01716Y0014*
X01715Y00136*
X01715Y00131*
X01715Y00127*
X01715Y00126*
D01*
X01714Y0013*
X01714Y00134*
X01713Y00139*
X01712Y00143*
X01711Y00147*
X01709Y00151*
X01707Y00155*
X01705Y00159*
X01703Y00162*
X017Y00166*
X01697Y00169*
X01696Y0017*
X01501Y00392D02*
D01*
X01499Y0039*
X01497Y00388*
X01496Y00385*
X01494Y00383*
X01493Y00381*
X01492Y00378*
X01491Y00376*
X0149Y00373*
X0149Y00371*
X0149Y00368*
X0149Y00365*
X0149Y00365*
D01*
X01489Y00367*
X01489Y0037*
X01489Y00373*
X01488Y00375*
X01487Y00378*
X01486Y0038*
X01485Y00382*
X01484Y00385*
X01482Y00387*
X01481Y00389*
X01479Y00391*
X01478Y00392*
X00735Y0137D02*
Y01425D01*
X00335Y0097D02*
X00735Y0137D01*
X00295Y0097D02*
X00335D01*
X0095Y0115D02*
Y01228D01*
X00875Y01075D02*
X0095Y0115D01*
X00645Y01075D02*
X00875D01*
X0049Y0092D02*
X00645Y01075D01*
X0049Y00818D02*
Y0092D01*
X0095Y01228D02*
Y01328D01*
X00808Y01498D02*
X0158D01*
X00735Y01425D02*
X00808Y01498D01*
X0169Y001D02*
X01715Y00125D01*
Y00188*
X0149Y0014D02*
Y00403D01*
Y0014D02*
X0153Y001D01*
X0169*
G54D15*
X00785Y01325D02*
Y0137D01*
X0037Y0091D02*
X00785Y01325D01*
X00285Y0091D02*
X0037D01*
X01355Y01425D02*
X0149Y0129D01*
X0084Y01425D02*
X01355D01*
X00785Y0137D02*
X0084Y01425D01*
X0149Y00603D02*
Y0129D01*
X0022Y00845D02*
X00285Y0091D01*
G54D16*
X0169Y01498D02*
D01*
X0169Y01502*
X01689Y01507*
X01688Y01511*
X01687Y01516*
X01686Y0152*
X01684Y01525*
X01682Y01529*
X0168Y01533*
X01677Y01537*
X01674Y0154*
X01671Y01544*
X0167Y01545*
D01*
X01674Y01542*
X01677Y01539*
X01681Y01536*
X01685Y01534*
X01689Y01531*
X01693Y0153*
X01698Y01528*
X01702Y01527*
X01707Y01526*
X01712Y01525*
X01716Y01525*
X01717Y01525*
X00685Y01405D02*
Y01455D01*
X00375Y01095D02*
X00685Y01405D01*
X00275Y01095D02*
X00375D01*
X01635Y0158D02*
X01717Y01498D01*
X0149Y0158D02*
X01635D01*
X00795Y01565D02*
X01475D01*
X0149Y0158*
X0022Y00945D02*
Y0104D01*
X00275Y01095*
X00685Y01455D02*
X00795Y01565D01*
G54D52*
X00445Y0153D03*
X0062D03*
X0022Y00845D03*
G54D53*
X00445Y0143D03*
X00315Y0039D03*
X0085Y01228D03*
Y01328D03*
X0095Y01228D03*
Y01328D03*
X0105Y01228D03*
X0062Y0143D03*
X0032Y00845D03*
X0022Y00745D03*
X0032D03*
X0022Y00645D03*
X0032D03*
X0022Y00545D03*
X0032D03*
G54D54*
X01356Y00109D03*
Y00188D03*
Y00266D03*
Y00345D03*
Y00424D03*
Y00503D03*
Y00581D03*
Y0066D03*
Y00739D03*
Y00818D03*
X0049Y00109D03*
Y00188D03*
Y00266D03*
Y00345D03*
Y00424D03*
Y00503D03*
Y00581D03*
Y0066D03*
Y00739D03*
G54D55*
X0049Y00818D03*
G54D56*
X00215Y0039D03*
X0105Y01328D03*
G54D57*
X0149Y00403D03*
Y00503D03*
Y00603D03*
X0174D03*
Y00403D03*
G54D58*
X01577Y00188D03*
X01717Y01498D03*
X00272D03*
Y00188D03*
G54D59*
X01715Y00188D03*
X0158Y01498D03*
X00135D03*
Y00188D03*
G54D60*
X0076Y0098D03*
X007Y0093D03*
X00855Y0064D03*
X01205Y0051D03*
X0022Y00945D03*
X01105Y0083D03*
X01415Y0103D03*
Y01125D03*
X0095Y00625D03*
X01035D03*
X00295Y01375D03*
X0126Y0012D03*
X0096Y0077D03*
X01035D03*
X00615Y0035D03*
X0037Y01375D03*
X00295Y0097D03*
X00855Y00785D03*
X01115Y00625D03*
X01195Y0098D03*
X01625Y00955D03*
X00875Y0013D03*
G54D66*
X01474Y00224D03*
M02*