%FSLAX25Y25*%
%MOIN*%
G70*
G01*
G75*
G04 Layer_Color=8388736*
%ADD10C,0.02756*%
%ADD11C,0.01181*%
%ADD12C,0.01969*%
%ADD13C,0.01575*%
%ADD14C,0.03543*%
%ADD15C,0.03937*%
%ADD16C,0.03150*%
%ADD17R,0.04331X0.06693*%
%ADD18R,0.07480X0.09449*%
%ADD19O,0.07874X0.01378*%
%ADD20R,0.06693X0.04331*%
%ADD21R,0.03740X0.08661*%
%ADD22R,0.21654X0.26378*%
%ADD23O,0.06890X0.02165*%
%ADD24O,0.02165X0.06890*%
%ADD25R,0.07087X0.06299*%
G04:AMPARAMS|DCode=26|XSize=49.5mil|YSize=30mil|CornerRadius=0mil|HoleSize=0mil|Usage=FLASHONLY|Rotation=315.000|XOffset=0mil|YOffset=0mil|HoleType=Round|Shape=Rectangle|*
%AMROTATEDRECTD26*
4,1,4,-0.02811,0.00689,-0.00689,0.02811,0.02811,-0.00689,0.00689,-0.02811,-0.02811,0.00689,0.0*
%
%ADD26ROTATEDRECTD26*%

G04:AMPARAMS|DCode=27|XSize=49.5mil|YSize=30mil|CornerRadius=0mil|HoleSize=0mil|Usage=FLASHONLY|Rotation=45.000|XOffset=0mil|YOffset=0mil|HoleType=Round|Shape=Rectangle|*
%AMROTATEDRECTD27*
4,1,4,-0.00689,-0.02811,-0.02811,-0.00689,0.00689,0.02811,0.02811,0.00689,-0.00689,-0.02811,0.0*
%
%ADD27ROTATEDRECTD27*%

G04:AMPARAMS|DCode=28|XSize=42.4mil|YSize=15.23mil|CornerRadius=0mil|HoleSize=0mil|Usage=FLASHONLY|Rotation=315.000|XOffset=0mil|YOffset=0mil|HoleType=Round|Shape=Rectangle|*
%AMROTATEDRECTD28*
4,1,4,-0.02038,0.00961,-0.00961,0.02038,0.02038,-0.00961,0.00961,-0.02038,-0.02038,0.00961,0.0*
%
%ADD28ROTATEDRECTD28*%

G04:AMPARAMS|DCode=29|XSize=65mil|YSize=27.71mil|CornerRadius=0mil|HoleSize=0mil|Usage=FLASHONLY|Rotation=315.000|XOffset=0mil|YOffset=0mil|HoleType=Round|Shape=Rectangle|*
%AMROTATEDRECTD29*
4,1,4,-0.03278,0.01318,-0.01318,0.03278,0.03278,-0.01318,0.01318,-0.03278,-0.03278,0.01318,0.0*
%
%ADD29ROTATEDRECTD29*%

G04:AMPARAMS|DCode=30|XSize=60.87mil|YSize=31.82mil|CornerRadius=0mil|HoleSize=0mil|Usage=FLASHONLY|Rotation=45.000|XOffset=0mil|YOffset=0mil|HoleType=Round|Shape=Rectangle|*
%AMROTATEDRECTD30*
4,1,4,-0.01027,-0.03277,-0.03277,-0.01027,0.01027,0.03277,0.03277,0.01027,-0.01027,-0.03277,0.0*
%
%ADD30ROTATEDRECTD30*%

G04:AMPARAMS|DCode=31|XSize=55mil|YSize=25mil|CornerRadius=0mil|HoleSize=0mil|Usage=FLASHONLY|Rotation=45.000|XOffset=0mil|YOffset=0mil|HoleType=Round|Shape=Rectangle|*
%AMROTATEDRECTD31*
4,1,4,-0.01061,-0.02828,-0.02828,-0.01061,0.01061,0.02828,0.02828,0.01061,-0.01061,-0.02828,0.0*
%
%ADD31ROTATEDRECTD31*%

%ADD32R,0.00500X0.01000*%
G04:AMPARAMS|DCode=33|XSize=65mil|YSize=30mil|CornerRadius=0mil|HoleSize=0mil|Usage=FLASHONLY|Rotation=311.618|XOffset=0mil|YOffset=0mil|HoleType=Round|Shape=Rectangle|*
%AMROTATEDRECTD33*
4,1,4,-0.03280,0.01433,-0.01037,0.03426,0.03280,-0.01433,0.01037,-0.03426,-0.03280,0.01433,0.0*
%
%ADD33ROTATEDRECTD33*%

%ADD34P,0.07071X4X360.0*%
G04:AMPARAMS|DCode=35|XSize=40.51mil|YSize=13.28mil|CornerRadius=0mil|HoleSize=0mil|Usage=FLASHONLY|Rotation=45.000|XOffset=0mil|YOffset=0mil|HoleType=Round|Shape=Rectangle|*
%AMROTATEDRECTD35*
4,1,4,-0.00963,-0.01902,-0.01902,-0.00963,0.00963,0.01902,0.01902,0.00963,-0.00963,-0.01902,0.0*
%
%ADD35ROTATEDRECTD35*%

G04:AMPARAMS|DCode=36|XSize=40mil|YSize=11.71mil|CornerRadius=0mil|HoleSize=0mil|Usage=FLASHONLY|Rotation=51.340|XOffset=0mil|YOffset=0mil|HoleType=Round|Shape=Rectangle|*
%AMROTATEDRECTD36*
4,1,4,-0.00792,-0.01928,-0.01707,-0.01196,0.00792,0.01928,0.01707,0.01196,-0.00792,-0.01928,0.0*
%
%ADD36ROTATEDRECTD36*%

G04:AMPARAMS|DCode=37|XSize=31.15mil|YSize=14.57mil|CornerRadius=0mil|HoleSize=0mil|Usage=FLASHONLY|Rotation=315.000|XOffset=0mil|YOffset=0mil|HoleType=Round|Shape=Rectangle|*
%AMROTATEDRECTD37*
4,1,4,-0.01617,0.00586,-0.00586,0.01617,0.01617,-0.00586,0.00586,-0.01617,-0.01617,0.00586,0.0*
%
%ADD37ROTATEDRECTD37*%

G04:AMPARAMS|DCode=38|XSize=35mil|YSize=15mil|CornerRadius=0mil|HoleSize=0mil|Usage=FLASHONLY|Rotation=45.000|XOffset=0mil|YOffset=0mil|HoleType=Round|Shape=Rectangle|*
%AMROTATEDRECTD38*
4,1,4,-0.00707,-0.01768,-0.01768,-0.00707,0.00707,0.01768,0.01768,0.00707,-0.00707,-0.01768,0.0*
%
%ADD38ROTATEDRECTD38*%

G04:AMPARAMS|DCode=39|XSize=35mil|YSize=15mil|CornerRadius=0mil|HoleSize=0mil|Usage=FLASHONLY|Rotation=315.000|XOffset=0mil|YOffset=0mil|HoleType=Round|Shape=Rectangle|*
%AMROTATEDRECTD39*
4,1,4,-0.01768,0.00707,-0.00707,0.01768,0.01768,-0.00707,0.00707,-0.01768,-0.01768,0.00707,0.0*
%
%ADD39ROTATEDRECTD39*%

G04:AMPARAMS|DCode=40|XSize=17.93mil|YSize=33.18mil|CornerRadius=0mil|HoleSize=0mil|Usage=FLASHONLY|Rotation=315.000|XOffset=0mil|YOffset=0mil|HoleType=Round|Shape=Rectangle|*
%AMROTATEDRECTD40*
4,1,4,-0.01807,-0.00539,0.00539,0.01807,0.01807,0.00539,-0.00539,-0.01807,-0.01807,-0.00539,0.0*
%
%ADD40ROTATEDRECTD40*%

G04:AMPARAMS|DCode=41|XSize=27.23mil|YSize=15mil|CornerRadius=0mil|HoleSize=0mil|Usage=FLASHONLY|Rotation=45.000|XOffset=0mil|YOffset=0mil|HoleType=Round|Shape=Rectangle|*
%AMROTATEDRECTD41*
4,1,4,-0.00432,-0.01493,-0.01493,-0.00432,0.00432,0.01493,0.01493,0.00432,-0.00432,-0.01493,0.0*
%
%ADD41ROTATEDRECTD41*%

G04:AMPARAMS|DCode=42|XSize=30.51mil|YSize=15mil|CornerRadius=0mil|HoleSize=0mil|Usage=FLASHONLY|Rotation=315.000|XOffset=0mil|YOffset=0mil|HoleType=Round|Shape=Rectangle|*
%AMROTATEDRECTD42*
4,1,4,-0.01609,0.00548,-0.00548,0.01609,0.01609,-0.00548,0.00548,-0.01609,-0.01609,0.00548,0.0*
%
%ADD42ROTATEDRECTD42*%

G04:AMPARAMS|DCode=43|XSize=15mil|YSize=10.61mil|CornerRadius=0mil|HoleSize=0mil|Usage=FLASHONLY|Rotation=315.000|XOffset=0mil|YOffset=0mil|HoleType=Round|Shape=Rectangle|*
%AMROTATEDRECTD43*
4,1,4,-0.00905,0.00155,-0.00155,0.00905,0.00905,-0.00155,0.00155,-0.00905,-0.00905,0.00155,0.0*
%
%ADD43ROTATEDRECTD43*%

G04:AMPARAMS|DCode=44|XSize=25mil|YSize=11.24mil|CornerRadius=0mil|HoleSize=0mil|Usage=FLASHONLY|Rotation=41.479|XOffset=0mil|YOffset=0mil|HoleType=Round|Shape=Rectangle|*
%AMROTATEDRECTD44*
4,1,4,-0.00564,-0.01249,-0.01309,-0.00407,0.00564,0.01249,0.01309,0.00407,-0.00564,-0.01249,0.0*
%
%ADD44ROTATEDRECTD44*%

G04:AMPARAMS|DCode=45|XSize=19.45mil|YSize=10mil|CornerRadius=0mil|HoleSize=0mil|Usage=FLASHONLY|Rotation=311.390|XOffset=0mil|YOffset=0mil|HoleType=Round|Shape=Rectangle|*
%AMROTATEDRECTD45*
4,1,4,-0.01018,0.00399,-0.00268,0.01060,0.01018,-0.00399,0.00268,-0.01060,-0.01018,0.00399,0.0*
%
%ADD45ROTATEDRECTD45*%

G04:AMPARAMS|DCode=46|XSize=23.54mil|YSize=10mil|CornerRadius=0mil|HoleSize=0mil|Usage=FLASHONLY|Rotation=45.000|XOffset=0mil|YOffset=0mil|HoleType=Round|Shape=Rectangle|*
%AMROTATEDRECTD46*
4,1,4,-0.00479,-0.01186,-0.01186,-0.00479,0.00479,0.01186,0.01186,0.00479,-0.00479,-0.01186,0.0*
%
%ADD46ROTATEDRECTD46*%

G04:AMPARAMS|DCode=47|XSize=49.5mil|YSize=17.93mil|CornerRadius=0mil|HoleSize=0mil|Usage=FLASHONLY|Rotation=45.000|XOffset=0mil|YOffset=0mil|HoleType=Round|Shape=Rectangle|*
%AMROTATEDRECTD47*
4,1,4,-0.01116,-0.02384,-0.02384,-0.01116,0.01116,0.02384,0.02384,0.01116,-0.01116,-0.02384,0.0*
%
%ADD47ROTATEDRECTD47*%

G04:AMPARAMS|DCode=48|XSize=71.37mil|YSize=59.39mil|CornerRadius=0mil|HoleSize=0mil|Usage=FLASHONLY|Rotation=330.602|XOffset=0mil|YOffset=0mil|HoleType=Round|Shape=Rectangle|*
%AMROTATEDRECTD48*
4,1,4,-0.04567,-0.00836,-0.01652,0.04339,0.04567,0.00836,0.01652,-0.04339,-0.04567,-0.00836,0.0*
%
%ADD48ROTATEDRECTD48*%

G04:AMPARAMS|DCode=49|XSize=106.12mil|YSize=43.14mil|CornerRadius=0mil|HoleSize=0mil|Usage=FLASHONLY|Rotation=315.000|XOffset=0mil|YOffset=0mil|HoleType=Round|Shape=Rectangle|*
%AMROTATEDRECTD49*
4,1,4,-0.05277,0.02227,-0.02227,0.05277,0.05277,-0.02227,0.02227,-0.05277,-0.05277,0.02227,0.0*
%
%ADD49ROTATEDRECTD49*%

G04:AMPARAMS|DCode=50|XSize=43.52mil|YSize=25.48mil|CornerRadius=0mil|HoleSize=0mil|Usage=FLASHONLY|Rotation=50.423|XOffset=0mil|YOffset=0mil|HoleType=Round|Shape=Rectangle|*
%AMROTATEDRECTD50*
4,1,4,-0.00405,-0.02489,-0.02368,-0.00866,0.00405,0.02489,0.02368,0.00866,-0.00405,-0.02489,0.0*
%
%ADD50ROTATEDRECTD50*%

%ADD51R,0.19500X0.06500*%
%ADD52R,0.05906X0.05906*%
%ADD53C,0.05906*%
%ADD54O,0.09843X0.04724*%
%ADD55R,0.09843X0.04724*%
%ADD56R,0.05906X0.05906*%
%ADD57C,0.06693*%
%ADD58C,0.08661*%
%ADD59R,0.08661X0.08661*%
%ADD60C,0.05000*%
%ADD61C,0.04000*%
%ADD62C,0.07543*%
%ADD63C,0.07150*%
%ADD64C,0.08724*%
%ADD65C,0.06800*%
G04:AMPARAMS|DCode=66|XSize=40mil|YSize=42.6mil|CornerRadius=0mil|HoleSize=0mil|Usage=FLASHONLY|Rotation=45.000|XOffset=0mil|YOffset=0mil|HoleType=Round|Shape=Rectangle|*
%AMROTATEDRECTD66*
4,1,4,0.00092,-0.02920,-0.02920,0.00092,-0.00092,0.02920,0.02920,-0.00092,0.00092,-0.02920,0.0*
%
%ADD66ROTATEDRECTD66*%

%ADD67C,0.00984*%
%ADD68C,0.02362*%
%ADD69C,0.00787*%
%ADD70R,0.05131X0.07493*%
%ADD71R,0.08280X0.10249*%
%ADD72O,0.08674X0.02178*%
%ADD73R,0.07493X0.05131*%
%ADD74R,0.04540X0.09461*%
%ADD75R,0.22453X0.27178*%
%ADD76O,0.07690X0.02965*%
%ADD77O,0.02965X0.07690*%
%ADD78R,0.07887X0.07099*%
%ADD79R,0.06706X0.06706*%
%ADD80C,0.06706*%
%ADD81O,0.10642X0.05524*%
%ADD82R,0.10642X0.05524*%
%ADD83R,0.06706X0.06706*%
%ADD84C,0.07493*%
%ADD85C,0.09461*%
%ADD86R,0.09461X0.09461*%
%ADD87C,0.05800*%
D70*
X81315Y110500D02*
D03*
X70685D02*
D03*
X120185D02*
D03*
X130815D02*
D03*
X123315Y25500D02*
D03*
X112685D02*
D03*
X119315Y12000D02*
D03*
X108685D02*
D03*
X104685Y38815D02*
D03*
X115315D02*
D03*
X70685Y38624D02*
D03*
X81315D02*
D03*
X87685Y38815D02*
D03*
X98315D02*
D03*
X37185Y127815D02*
D03*
X47815D02*
D03*
X29315D02*
D03*
X18685D02*
D03*
D71*
X92142Y110500D02*
D03*
X109858D02*
D03*
D72*
X76083Y28272D02*
D03*
Y25713D02*
D03*
Y23154D02*
D03*
Y20595D02*
D03*
Y18035D02*
D03*
Y15476D02*
D03*
Y12917D02*
D03*
Y10358D02*
D03*
X98917Y28272D02*
D03*
Y25713D02*
D03*
Y23154D02*
D03*
Y20595D02*
D03*
Y18035D02*
D03*
Y15476D02*
D03*
Y12917D02*
D03*
Y10358D02*
D03*
X18583Y117772D02*
D03*
Y115213D02*
D03*
Y112654D02*
D03*
Y110094D02*
D03*
Y107535D02*
D03*
Y104976D02*
D03*
Y102417D02*
D03*
Y99858D02*
D03*
X41417Y117772D02*
D03*
Y115213D02*
D03*
Y112654D02*
D03*
Y110094D02*
D03*
Y107535D02*
D03*
Y104976D02*
D03*
Y102417D02*
D03*
Y99858D02*
D03*
D73*
X167500Y84130D02*
D03*
Y73500D02*
D03*
X151000Y73185D02*
D03*
Y83815D02*
D03*
X63000Y65630D02*
D03*
Y55000D02*
D03*
D74*
X155524Y93992D02*
D03*
X173476D02*
D03*
D75*
X164500Y119780D02*
D03*
D76*
X120244Y88063D02*
D03*
Y84913D02*
D03*
Y81764D02*
D03*
Y78614D02*
D03*
Y75465D02*
D03*
Y72315D02*
D03*
Y69165D02*
D03*
Y66016D02*
D03*
Y62866D02*
D03*
Y59716D02*
D03*
Y56567D02*
D03*
X75756D02*
D03*
Y59716D02*
D03*
Y62866D02*
D03*
Y66016D02*
D03*
Y69165D02*
D03*
Y72315D02*
D03*
Y75465D02*
D03*
Y78614D02*
D03*
Y81764D02*
D03*
Y84913D02*
D03*
Y88063D02*
D03*
D77*
X113748Y50071D02*
D03*
X110598D02*
D03*
X107449D02*
D03*
X104299D02*
D03*
X101150D02*
D03*
X98000D02*
D03*
X94850D02*
D03*
X91701D02*
D03*
X88551D02*
D03*
X85402D02*
D03*
X82252D02*
D03*
Y94559D02*
D03*
X85402D02*
D03*
X88551D02*
D03*
X91701D02*
D03*
X94850D02*
D03*
X98000D02*
D03*
X101150D02*
D03*
X104299D02*
D03*
X107449D02*
D03*
X110598D02*
D03*
X113748D02*
D03*
D78*
X141000Y122803D02*
D03*
Y133827D02*
D03*
X130438Y122803D02*
D03*
Y133827D02*
D03*
X119875Y122803D02*
D03*
Y133827D02*
D03*
X141000Y144303D02*
D03*
Y155327D02*
D03*
X130438Y144303D02*
D03*
Y155327D02*
D03*
X119875Y144303D02*
D03*
Y155327D02*
D03*
D79*
X44500Y153000D02*
D03*
X62000D02*
D03*
X22000Y84500D02*
D03*
D80*
X44500Y143000D02*
D03*
X31500Y39000D02*
D03*
X85000Y122815D02*
D03*
Y132815D02*
D03*
X95000Y122815D02*
D03*
Y132815D02*
D03*
X105000Y122815D02*
D03*
X62000Y143000D02*
D03*
X32000Y84500D02*
D03*
X22000Y74500D02*
D03*
X32000D02*
D03*
X22000Y64500D02*
D03*
X32000D02*
D03*
X22000Y54500D02*
D03*
X32000D02*
D03*
D81*
X135614Y10949D02*
D03*
Y18823D02*
D03*
Y26697D02*
D03*
Y34571D02*
D03*
Y42445D02*
D03*
Y50319D02*
D03*
Y58193D02*
D03*
Y66067D02*
D03*
Y73941D02*
D03*
Y81815D02*
D03*
X49000Y10949D02*
D03*
Y18823D02*
D03*
Y26697D02*
D03*
Y34571D02*
D03*
Y42445D02*
D03*
Y50319D02*
D03*
Y58193D02*
D03*
Y66067D02*
D03*
Y73941D02*
D03*
D82*
Y81815D02*
D03*
D83*
X21500Y39000D02*
D03*
X105000Y132815D02*
D03*
D84*
X149000Y40315D02*
D03*
Y50315D02*
D03*
Y60315D02*
D03*
X174000D02*
D03*
Y40315D02*
D03*
D85*
X157720Y18815D02*
D03*
X171780Y149815D02*
D03*
X27279D02*
D03*
Y18815D02*
D03*
D86*
X171500D02*
D03*
X158000Y149815D02*
D03*
X13500D02*
D03*
Y18815D02*
D03*
D87*
X76000Y98000D02*
D03*
X70000Y93000D02*
D03*
X85500Y64000D02*
D03*
X120500Y51000D02*
D03*
X22000Y94500D02*
D03*
X110598Y83000D02*
D03*
X141500Y103000D02*
D03*
Y112500D02*
D03*
X95000Y62500D02*
D03*
X103500D02*
D03*
X29500Y137500D02*
D03*
X126000Y12000D02*
D03*
X96000Y77000D02*
D03*
X103500D02*
D03*
X61500Y35000D02*
D03*
X37000Y137500D02*
D03*
X29500Y97000D02*
D03*
X85500Y78500D02*
D03*
X111500Y62500D02*
D03*
X119500Y98000D02*
D03*
X162500Y95500D02*
D03*
X87500Y13000D02*
D03*
M02*
