M48
;Layer_Color=9474304
;FILE_FORMAT=2:5
INCH,LZ
;TYPE=PLATED
T1F00S00C0.02800
T2F00S00C0.03150
T3F00S00C0.03543
T4F00S00C0.04724
%
T01
X0126Y0012
X00875Y0013
X00615Y0035
X00855Y0064
X0095Y00625
X00855Y00785
X0076Y0098
X007Y0093
X00295Y0097
X0022Y00945
X00295Y01375
X0037
X0096Y0077
X01035
X0110598Y0083
X01115Y00625
X01035
X01205Y0051
X01195Y0098
X01415Y0103
Y01125
X01625Y00955
T02
X0135614Y0010949
X0049
Y0018823
Y0026697
Y0034571
Y0042445
Y0050319
Y0058193
Y0066067
Y0073941
Y0081815
X0135614
Y0073941
Y0066067
Y0058193
Y0050319
Y0042445
Y0034571
Y0026697
Y0018823
T03
X00215Y0039
X00315
X0032Y00545
Y00645
Y00745
Y00845
X0022
Y00745
Y00645
Y00545
X00445Y0143
Y0153
X0062
Y0143
X0085Y0132815
Y0122815
X0095
Y0132815
X0105
Y0122815
X0149Y0060315
Y0050315
Y0040315
X0174
Y0060315
T04
X00135Y0018815
X0027279
Y0149815
X00135
X0158
X017178
X01715Y0018815
X015772
M30
