%FSLAX25Y25*%
%MOIN*%
G70*
G01*
G75*
G04 Layer_Physical_Order=4*
G04 Layer_Color=16711680*
%ADD10C,0.02756*%
%ADD11C,0.01181*%
%ADD12C,0.01969*%
%ADD13C,0.01575*%
%ADD14C,0.03543*%
%ADD15C,0.03937*%
%ADD16C,0.03150*%
%ADD17R,0.04331X0.06693*%
%ADD18R,0.07480X0.09449*%
%ADD19O,0.07874X0.01378*%
%ADD20R,0.06693X0.04331*%
%ADD21R,0.03740X0.08661*%
%ADD22R,0.21654X0.26378*%
%ADD23O,0.06890X0.02165*%
%ADD24O,0.02165X0.06890*%
%ADD25R,0.07087X0.06299*%
G04:AMPARAMS|DCode=26|XSize=49.5mil|YSize=30mil|CornerRadius=0mil|HoleSize=0mil|Usage=FLASHONLY|Rotation=315.000|XOffset=0mil|YOffset=0mil|HoleType=Round|Shape=Rectangle|*
%AMROTATEDRECTD26*
4,1,4,-0.02811,0.00689,-0.00689,0.02811,0.02811,-0.00689,0.00689,-0.02811,-0.02811,0.00689,0.0*
%
%ADD26ROTATEDRECTD26*%

G04:AMPARAMS|DCode=27|XSize=49.5mil|YSize=30mil|CornerRadius=0mil|HoleSize=0mil|Usage=FLASHONLY|Rotation=45.000|XOffset=0mil|YOffset=0mil|HoleType=Round|Shape=Rectangle|*
%AMROTATEDRECTD27*
4,1,4,-0.00689,-0.02811,-0.02811,-0.00689,0.00689,0.02811,0.02811,0.00689,-0.00689,-0.02811,0.0*
%
%ADD27ROTATEDRECTD27*%

G04:AMPARAMS|DCode=28|XSize=42.4mil|YSize=15.23mil|CornerRadius=0mil|HoleSize=0mil|Usage=FLASHONLY|Rotation=315.000|XOffset=0mil|YOffset=0mil|HoleType=Round|Shape=Rectangle|*
%AMROTATEDRECTD28*
4,1,4,-0.02038,0.00961,-0.00961,0.02038,0.02038,-0.00961,0.00961,-0.02038,-0.02038,0.00961,0.0*
%
%ADD28ROTATEDRECTD28*%

G04:AMPARAMS|DCode=29|XSize=65mil|YSize=27.71mil|CornerRadius=0mil|HoleSize=0mil|Usage=FLASHONLY|Rotation=315.000|XOffset=0mil|YOffset=0mil|HoleType=Round|Shape=Rectangle|*
%AMROTATEDRECTD29*
4,1,4,-0.03278,0.01318,-0.01318,0.03278,0.03278,-0.01318,0.01318,-0.03278,-0.03278,0.01318,0.0*
%
%ADD29ROTATEDRECTD29*%

G04:AMPARAMS|DCode=30|XSize=60.87mil|YSize=31.82mil|CornerRadius=0mil|HoleSize=0mil|Usage=FLASHONLY|Rotation=45.000|XOffset=0mil|YOffset=0mil|HoleType=Round|Shape=Rectangle|*
%AMROTATEDRECTD30*
4,1,4,-0.01027,-0.03277,-0.03277,-0.01027,0.01027,0.03277,0.03277,0.01027,-0.01027,-0.03277,0.0*
%
%ADD30ROTATEDRECTD30*%

G04:AMPARAMS|DCode=31|XSize=55mil|YSize=25mil|CornerRadius=0mil|HoleSize=0mil|Usage=FLASHONLY|Rotation=45.000|XOffset=0mil|YOffset=0mil|HoleType=Round|Shape=Rectangle|*
%AMROTATEDRECTD31*
4,1,4,-0.01061,-0.02828,-0.02828,-0.01061,0.01061,0.02828,0.02828,0.01061,-0.01061,-0.02828,0.0*
%
%ADD31ROTATEDRECTD31*%

%ADD32R,0.00500X0.01000*%
G04:AMPARAMS|DCode=33|XSize=65mil|YSize=30mil|CornerRadius=0mil|HoleSize=0mil|Usage=FLASHONLY|Rotation=311.618|XOffset=0mil|YOffset=0mil|HoleType=Round|Shape=Rectangle|*
%AMROTATEDRECTD33*
4,1,4,-0.03280,0.01433,-0.01037,0.03426,0.03280,-0.01433,0.01037,-0.03426,-0.03280,0.01433,0.0*
%
%ADD33ROTATEDRECTD33*%

%ADD34P,0.07071X4X360.0*%
G04:AMPARAMS|DCode=35|XSize=40.51mil|YSize=13.28mil|CornerRadius=0mil|HoleSize=0mil|Usage=FLASHONLY|Rotation=45.000|XOffset=0mil|YOffset=0mil|HoleType=Round|Shape=Rectangle|*
%AMROTATEDRECTD35*
4,1,4,-0.00963,-0.01902,-0.01902,-0.00963,0.00963,0.01902,0.01902,0.00963,-0.00963,-0.01902,0.0*
%
%ADD35ROTATEDRECTD35*%

G04:AMPARAMS|DCode=36|XSize=40mil|YSize=11.71mil|CornerRadius=0mil|HoleSize=0mil|Usage=FLASHONLY|Rotation=51.340|XOffset=0mil|YOffset=0mil|HoleType=Round|Shape=Rectangle|*
%AMROTATEDRECTD36*
4,1,4,-0.00792,-0.01928,-0.01707,-0.01196,0.00792,0.01928,0.01707,0.01196,-0.00792,-0.01928,0.0*
%
%ADD36ROTATEDRECTD36*%

G04:AMPARAMS|DCode=37|XSize=31.15mil|YSize=14.57mil|CornerRadius=0mil|HoleSize=0mil|Usage=FLASHONLY|Rotation=315.000|XOffset=0mil|YOffset=0mil|HoleType=Round|Shape=Rectangle|*
%AMROTATEDRECTD37*
4,1,4,-0.01617,0.00586,-0.00586,0.01617,0.01617,-0.00586,0.00586,-0.01617,-0.01617,0.00586,0.0*
%
%ADD37ROTATEDRECTD37*%

G04:AMPARAMS|DCode=38|XSize=35mil|YSize=15mil|CornerRadius=0mil|HoleSize=0mil|Usage=FLASHONLY|Rotation=45.000|XOffset=0mil|YOffset=0mil|HoleType=Round|Shape=Rectangle|*
%AMROTATEDRECTD38*
4,1,4,-0.00707,-0.01768,-0.01768,-0.00707,0.00707,0.01768,0.01768,0.00707,-0.00707,-0.01768,0.0*
%
%ADD38ROTATEDRECTD38*%

G04:AMPARAMS|DCode=39|XSize=35mil|YSize=15mil|CornerRadius=0mil|HoleSize=0mil|Usage=FLASHONLY|Rotation=315.000|XOffset=0mil|YOffset=0mil|HoleType=Round|Shape=Rectangle|*
%AMROTATEDRECTD39*
4,1,4,-0.01768,0.00707,-0.00707,0.01768,0.01768,-0.00707,0.00707,-0.01768,-0.01768,0.00707,0.0*
%
%ADD39ROTATEDRECTD39*%

G04:AMPARAMS|DCode=40|XSize=17.93mil|YSize=33.18mil|CornerRadius=0mil|HoleSize=0mil|Usage=FLASHONLY|Rotation=315.000|XOffset=0mil|YOffset=0mil|HoleType=Round|Shape=Rectangle|*
%AMROTATEDRECTD40*
4,1,4,-0.01807,-0.00539,0.00539,0.01807,0.01807,0.00539,-0.00539,-0.01807,-0.01807,-0.00539,0.0*
%
%ADD40ROTATEDRECTD40*%

G04:AMPARAMS|DCode=41|XSize=27.23mil|YSize=15mil|CornerRadius=0mil|HoleSize=0mil|Usage=FLASHONLY|Rotation=45.000|XOffset=0mil|YOffset=0mil|HoleType=Round|Shape=Rectangle|*
%AMROTATEDRECTD41*
4,1,4,-0.00432,-0.01493,-0.01493,-0.00432,0.00432,0.01493,0.01493,0.00432,-0.00432,-0.01493,0.0*
%
%ADD41ROTATEDRECTD41*%

G04:AMPARAMS|DCode=42|XSize=30.51mil|YSize=15mil|CornerRadius=0mil|HoleSize=0mil|Usage=FLASHONLY|Rotation=315.000|XOffset=0mil|YOffset=0mil|HoleType=Round|Shape=Rectangle|*
%AMROTATEDRECTD42*
4,1,4,-0.01609,0.00548,-0.00548,0.01609,0.01609,-0.00548,0.00548,-0.01609,-0.01609,0.00548,0.0*
%
%ADD42ROTATEDRECTD42*%

G04:AMPARAMS|DCode=43|XSize=15mil|YSize=10.61mil|CornerRadius=0mil|HoleSize=0mil|Usage=FLASHONLY|Rotation=315.000|XOffset=0mil|YOffset=0mil|HoleType=Round|Shape=Rectangle|*
%AMROTATEDRECTD43*
4,1,4,-0.00905,0.00155,-0.00155,0.00905,0.00905,-0.00155,0.00155,-0.00905,-0.00905,0.00155,0.0*
%
%ADD43ROTATEDRECTD43*%

G04:AMPARAMS|DCode=44|XSize=25mil|YSize=11.24mil|CornerRadius=0mil|HoleSize=0mil|Usage=FLASHONLY|Rotation=41.479|XOffset=0mil|YOffset=0mil|HoleType=Round|Shape=Rectangle|*
%AMROTATEDRECTD44*
4,1,4,-0.00564,-0.01249,-0.01309,-0.00407,0.00564,0.01249,0.01309,0.00407,-0.00564,-0.01249,0.0*
%
%ADD44ROTATEDRECTD44*%

G04:AMPARAMS|DCode=45|XSize=19.45mil|YSize=10mil|CornerRadius=0mil|HoleSize=0mil|Usage=FLASHONLY|Rotation=311.390|XOffset=0mil|YOffset=0mil|HoleType=Round|Shape=Rectangle|*
%AMROTATEDRECTD45*
4,1,4,-0.01018,0.00399,-0.00268,0.01060,0.01018,-0.00399,0.00268,-0.01060,-0.01018,0.00399,0.0*
%
%ADD45ROTATEDRECTD45*%

G04:AMPARAMS|DCode=46|XSize=23.54mil|YSize=10mil|CornerRadius=0mil|HoleSize=0mil|Usage=FLASHONLY|Rotation=45.000|XOffset=0mil|YOffset=0mil|HoleType=Round|Shape=Rectangle|*
%AMROTATEDRECTD46*
4,1,4,-0.00479,-0.01186,-0.01186,-0.00479,0.00479,0.01186,0.01186,0.00479,-0.00479,-0.01186,0.0*
%
%ADD46ROTATEDRECTD46*%

G04:AMPARAMS|DCode=47|XSize=49.5mil|YSize=17.93mil|CornerRadius=0mil|HoleSize=0mil|Usage=FLASHONLY|Rotation=45.000|XOffset=0mil|YOffset=0mil|HoleType=Round|Shape=Rectangle|*
%AMROTATEDRECTD47*
4,1,4,-0.01116,-0.02384,-0.02384,-0.01116,0.01116,0.02384,0.02384,0.01116,-0.01116,-0.02384,0.0*
%
%ADD47ROTATEDRECTD47*%

G04:AMPARAMS|DCode=48|XSize=71.37mil|YSize=59.39mil|CornerRadius=0mil|HoleSize=0mil|Usage=FLASHONLY|Rotation=330.602|XOffset=0mil|YOffset=0mil|HoleType=Round|Shape=Rectangle|*
%AMROTATEDRECTD48*
4,1,4,-0.04567,-0.00836,-0.01652,0.04339,0.04567,0.00836,0.01652,-0.04339,-0.04567,-0.00836,0.0*
%
%ADD48ROTATEDRECTD48*%

G04:AMPARAMS|DCode=49|XSize=106.12mil|YSize=43.14mil|CornerRadius=0mil|HoleSize=0mil|Usage=FLASHONLY|Rotation=315.000|XOffset=0mil|YOffset=0mil|HoleType=Round|Shape=Rectangle|*
%AMROTATEDRECTD49*
4,1,4,-0.05277,0.02227,-0.02227,0.05277,0.05277,-0.02227,0.02227,-0.05277,-0.05277,0.02227,0.0*
%
%ADD49ROTATEDRECTD49*%

G04:AMPARAMS|DCode=50|XSize=43.52mil|YSize=25.48mil|CornerRadius=0mil|HoleSize=0mil|Usage=FLASHONLY|Rotation=50.423|XOffset=0mil|YOffset=0mil|HoleType=Round|Shape=Rectangle|*
%AMROTATEDRECTD50*
4,1,4,-0.00405,-0.02489,-0.02368,-0.00866,0.00405,0.02489,0.02368,0.00866,-0.00405,-0.02489,0.0*
%
%ADD50ROTATEDRECTD50*%

%ADD51R,0.19500X0.06500*%
%ADD52R,0.05906X0.05906*%
%ADD53C,0.05906*%
%ADD54O,0.09843X0.04724*%
%ADD55R,0.09843X0.04724*%
%ADD56R,0.05906X0.05906*%
%ADD57C,0.06693*%
%ADD58C,0.08661*%
%ADD59R,0.08661X0.08661*%
%ADD60C,0.05000*%
%ADD61C,0.04000*%
%ADD62C,0.07543*%
%ADD63C,0.07150*%
%ADD64C,0.08724*%
%ADD65C,0.06800*%
G04:AMPARAMS|DCode=66|XSize=40mil|YSize=42.6mil|CornerRadius=0mil|HoleSize=0mil|Usage=FLASHONLY|Rotation=45.000|XOffset=0mil|YOffset=0mil|HoleType=Round|Shape=Rectangle|*
%AMROTATEDRECTD66*
4,1,4,0.00092,-0.02920,-0.02920,0.00092,-0.00092,0.02920,0.02920,-0.00092,0.00092,-0.02920,0.0*
%
%ADD66ROTATEDRECTD66*%

G36*
X182595Y1405D02*
X1405D01*
Y165095D01*
X182595D01*
Y1405D01*
D02*
G37*
%LPC*%
G36*
X21500Y68207D02*
X21024Y68144D01*
X20114Y67767D01*
X19332Y67168D01*
X18733Y66386D01*
X18356Y65476D01*
X18293Y65000D01*
X21500D01*
Y68207D01*
D02*
G37*
G36*
X162000Y95000D02*
X159250D01*
X159297Y94642D01*
X159628Y93842D01*
X160155Y93155D01*
X160842Y92629D01*
X161642Y92297D01*
X162000Y92250D01*
Y95000D01*
D02*
G37*
G36*
X174000Y44484D02*
X172921Y44342D01*
X171915Y43926D01*
X171052Y43263D01*
X170389Y42400D01*
X169973Y41394D01*
X169831Y40315D01*
X169973Y39236D01*
X170389Y38230D01*
X171052Y37367D01*
X171915Y36704D01*
X172921Y36288D01*
X174000Y36145D01*
X175079Y36288D01*
X176085Y36704D01*
X176948Y37367D01*
X177611Y38230D01*
X178027Y39236D01*
X178170Y40315D01*
X178027Y41394D01*
X177611Y42400D01*
X176948Y43263D01*
X176085Y43926D01*
X175079Y44342D01*
X174000Y44484D01*
D02*
G37*
G36*
Y64485D02*
X172921Y64342D01*
X171915Y63926D01*
X171052Y63263D01*
X170389Y62400D01*
X169973Y61394D01*
X169831Y60315D01*
X169973Y59236D01*
X170389Y58230D01*
X171052Y57367D01*
X171915Y56704D01*
X172921Y56287D01*
X174000Y56145D01*
X175079Y56287D01*
X176085Y56704D01*
X176948Y57367D01*
X177611Y58230D01*
X178027Y59236D01*
X178170Y60315D01*
X178027Y61394D01*
X177611Y62400D01*
X176948Y63263D01*
X176085Y63926D01*
X175079Y64342D01*
X174000Y64485D01*
D02*
G37*
G36*
X163000Y98750D02*
Y96000D01*
X165750D01*
X165703Y96358D01*
X165372Y97158D01*
X164845Y97845D01*
X164158Y98371D01*
X163358Y98703D01*
X163000Y98750D01*
D02*
G37*
G36*
X84500Y122315D02*
X81293D01*
X81356Y121839D01*
X81733Y120929D01*
X82332Y120148D01*
X83114Y119548D01*
X84024Y119171D01*
X84500Y119108D01*
Y122315D01*
D02*
G37*
G36*
X165750Y95000D02*
X163000D01*
Y92250D01*
X163358Y92297D01*
X164158Y92629D01*
X164845Y93155D01*
X165372Y93842D01*
X165703Y94642D01*
X165750Y95000D01*
D02*
G37*
G36*
X162000Y98750D02*
X161642Y98703D01*
X160842Y98371D01*
X160155Y97845D01*
X159628Y97158D01*
X159297Y96358D01*
X159250Y96000D01*
X162000D01*
Y98750D01*
D02*
G37*
G36*
X158221Y23911D02*
Y19315D01*
X162817D01*
X162707Y20151D01*
X162191Y21396D01*
X161371Y22465D01*
X160302Y23286D01*
X159057Y23801D01*
X158221Y23911D01*
D02*
G37*
G36*
X138173Y14126D02*
X133055D01*
X132233Y14017D01*
X131467Y13700D01*
X130809Y13195D01*
X130304Y12537D01*
X129987Y11771D01*
X129878Y10949D01*
X129987Y10127D01*
X130304Y9360D01*
X130809Y8703D01*
X131467Y8198D01*
X132233Y7880D01*
X133055Y7772D01*
X138173D01*
X138995Y7880D01*
X139762Y8198D01*
X140420Y8703D01*
X140924Y9360D01*
X141242Y10127D01*
X141350Y10949D01*
X141242Y11771D01*
X140924Y12537D01*
X140420Y13195D01*
X139762Y13700D01*
X138995Y14017D01*
X138173Y14126D01*
D02*
G37*
G36*
X87000Y12500D02*
X84250D01*
X84297Y12142D01*
X84628Y11342D01*
X85155Y10655D01*
X85842Y10129D01*
X86642Y9797D01*
X87000Y9750D01*
Y12500D01*
D02*
G37*
G36*
X48500Y10449D02*
X43330D01*
X43372Y10127D01*
X43690Y9360D01*
X44195Y8703D01*
X44853Y8198D01*
X45619Y7880D01*
X46441Y7772D01*
X48500D01*
Y10449D01*
D02*
G37*
G36*
X54670D02*
X49500D01*
Y7772D01*
X51559D01*
X52381Y7880D01*
X53148Y8198D01*
X53805Y8703D01*
X54310Y9360D01*
X54628Y10127D01*
X54670Y10449D01*
D02*
G37*
G36*
X162817Y18315D02*
X158221D01*
Y13719D01*
X159057Y13829D01*
X160302Y14344D01*
X161371Y15165D01*
X162191Y16234D01*
X162707Y17479D01*
X162817Y18315D01*
D02*
G37*
G36*
X157220Y23911D02*
X156384Y23801D01*
X155139Y23286D01*
X154070Y22465D01*
X153250Y21396D01*
X152734Y20151D01*
X152624Y19315D01*
X157220D01*
Y23911D01*
D02*
G37*
G36*
X90750Y12500D02*
X88000D01*
Y9750D01*
X88358Y9797D01*
X89158Y10129D01*
X89845Y10655D01*
X90372Y11342D01*
X90703Y12142D01*
X90750Y12500D01*
D02*
G37*
G36*
X157220Y18315D02*
X152624D01*
X152734Y17479D01*
X153250Y16234D01*
X154070Y15165D01*
X155139Y14344D01*
X156384Y13829D01*
X157220Y13719D01*
Y18315D01*
D02*
G37*
G36*
X44500Y146772D02*
X43524Y146644D01*
X42614Y146267D01*
X41833Y145668D01*
X41233Y144886D01*
X40856Y143976D01*
X40728Y143000D01*
X40856Y142024D01*
X41233Y141114D01*
X41833Y140332D01*
X42614Y139733D01*
X43524Y139356D01*
X44500Y139228D01*
X45476Y139356D01*
X46386Y139733D01*
X47168Y140332D01*
X47767Y141114D01*
X48144Y142024D01*
X48272Y143000D01*
X48144Y143976D01*
X47767Y144886D01*
X47168Y145668D01*
X46386Y146267D01*
X45476Y146644D01*
X44500Y146772D01*
D02*
G37*
G36*
X61500Y142500D02*
X58293D01*
X58356Y142024D01*
X58733Y141114D01*
X59333Y140332D01*
X60114Y139733D01*
X61024Y139356D01*
X61500Y139293D01*
Y142500D01*
D02*
G37*
G36*
X37500Y140750D02*
Y138000D01*
X40250D01*
X40203Y138358D01*
X39871Y139158D01*
X39345Y139845D01*
X38658Y140372D01*
X37858Y140703D01*
X37500Y140750D01*
D02*
G37*
G36*
X40250Y137000D02*
X37500D01*
Y134250D01*
X37858Y134297D01*
X38658Y134628D01*
X39345Y135155D01*
X39871Y135842D01*
X40203Y136642D01*
X40250Y137000D01*
D02*
G37*
G36*
X36500Y140750D02*
X36142Y140703D01*
X35342Y140372D01*
X34655Y139845D01*
X34128Y139158D01*
X33797Y138358D01*
X33750Y138000D01*
X36500D01*
Y140750D01*
D02*
G37*
G36*
X61500Y146707D02*
X61024Y146644D01*
X60114Y146267D01*
X59333Y145668D01*
X58733Y144886D01*
X58356Y143976D01*
X58293Y143500D01*
X61500D01*
Y146707D01*
D02*
G37*
G36*
X65740Y156740D02*
X58260D01*
Y149260D01*
X65740D01*
Y156740D01*
D02*
G37*
G36*
X163594Y160408D02*
X149000D01*
X148078Y160225D01*
X147297Y159703D01*
X146502Y158908D01*
X79500D01*
X78578Y158725D01*
X77797Y158203D01*
X66797Y147203D01*
X66275Y146422D01*
X66092Y145500D01*
Y144177D01*
X65601Y144080D01*
X65267Y144886D01*
X64667Y145668D01*
X63886Y146267D01*
X62976Y146644D01*
X62500Y146707D01*
Y143000D01*
Y139293D01*
X62976Y139356D01*
X63455Y139554D01*
X63732Y139138D01*
X36502Y111908D01*
X27500D01*
X26578Y111725D01*
X25797Y111203D01*
X20297Y105703D01*
X19775Y104922D01*
X19591Y104000D01*
Y96761D01*
X19128Y96158D01*
X18797Y95358D01*
X18684Y94500D01*
X18797Y93642D01*
X19128Y92842D01*
X19655Y92155D01*
X20342Y91628D01*
X21142Y91297D01*
X22000Y91184D01*
X22858Y91297D01*
X23658Y91628D01*
X24345Y92155D01*
X24871Y92842D01*
X25203Y93642D01*
X25316Y94500D01*
X25203Y95358D01*
X24871Y96158D01*
X24408Y96761D01*
Y103002D01*
X28498Y107091D01*
X37500D01*
X38422Y107275D01*
X39203Y107797D01*
X39203Y107797D01*
X39203Y107797D01*
X70203Y138797D01*
X70440Y139152D01*
X70919Y139007D01*
Y138069D01*
X35641Y102792D01*
X34416Y101786D01*
X32886Y100968D01*
X31226Y100465D01*
X29591Y100304D01*
X29500Y100316D01*
X28642Y100203D01*
X27842Y99871D01*
X27155Y99345D01*
X26629Y98658D01*
X26297Y97858D01*
X26184Y97000D01*
X26297Y96142D01*
X26629Y95342D01*
X27155Y94655D01*
X27799Y94161D01*
X27734Y93666D01*
X27110Y93407D01*
X26535Y92966D01*
X21809Y88240D01*
X18260D01*
Y80760D01*
X25740D01*
Y84309D01*
X29522Y88091D01*
X30009Y87978D01*
X30088Y87747D01*
X29333Y87168D01*
X28733Y86386D01*
X28356Y85476D01*
X28228Y84500D01*
X28356Y83524D01*
X28733Y82614D01*
X29333Y81832D01*
X30114Y81233D01*
X31024Y80856D01*
X32000Y80728D01*
X32976Y80856D01*
X33886Y81233D01*
X34638Y81810D01*
X34669Y81831D01*
X34668Y81832D01*
X34685Y81855D01*
X35274Y82308D01*
X35987Y82603D01*
X36676Y82694D01*
X39752D01*
X41530Y80916D01*
X41530Y80916D01*
X41520Y80906D01*
X41601Y80844D01*
X41908Y80538D01*
X42494Y80146D01*
X42517Y80142D01*
X42684Y80014D01*
X43291Y79762D01*
Y78665D01*
X54709D01*
Y84965D01*
X51581D01*
Y90931D01*
X65569Y104919D01*
X87500D01*
X88168Y105007D01*
X88479Y105136D01*
X88791Y105265D01*
X89325Y105675D01*
X96825Y113175D01*
X97235Y113709D01*
X97364Y114021D01*
X97493Y114332D01*
X97581Y115000D01*
Y120081D01*
X97667Y120148D01*
X98267Y120929D01*
X98644Y121839D01*
X98772Y122815D01*
X98644Y123791D01*
X98267Y124701D01*
X97667Y125482D01*
X97581Y125549D01*
Y130081D01*
X97667Y130148D01*
X98267Y130929D01*
X98644Y131839D01*
X98772Y132815D01*
X98644Y133791D01*
X98267Y134701D01*
X97667Y135483D01*
X96886Y136082D01*
X95976Y136459D01*
X95000Y136587D01*
X94024Y136459D01*
X93114Y136082D01*
X92333Y135483D01*
X91733Y134701D01*
X91356Y133791D01*
X91228Y132815D01*
X91356Y131839D01*
X91733Y130929D01*
X92333Y130148D01*
X92419Y130081D01*
Y125549D01*
X92333Y125482D01*
X91733Y124701D01*
X91356Y123791D01*
X91228Y122815D01*
X91356Y121839D01*
X91733Y120929D01*
X92333Y120148D01*
X92419Y120081D01*
Y116069D01*
X86431Y110081D01*
X64500D01*
X63832Y109993D01*
X63650Y109918D01*
X63209Y109735D01*
X62675Y109325D01*
X47175Y93825D01*
X46765Y93291D01*
X46636Y92979D01*
X46507Y92668D01*
X46419Y92000D01*
Y84965D01*
X43291D01*
Y84965D01*
X43196Y84901D01*
X42538Y85173D01*
X41867Y85688D01*
X41777Y85777D01*
X41191Y86169D01*
X40500Y86306D01*
X36676D01*
X35987Y86397D01*
X35274Y86692D01*
X34685Y87145D01*
X34668Y87168D01*
X34669Y87169D01*
X34638Y87190D01*
X33913Y87747D01*
X34070Y88210D01*
X34074Y88220D01*
X37000D01*
X37719Y88315D01*
X38390Y88593D01*
X38965Y89034D01*
X38965Y89034D01*
X38965Y89034D01*
X80493Y130562D01*
X80935Y131138D01*
X81041Y131393D01*
X81541D01*
X81733Y130929D01*
X82332Y130148D01*
X83114Y129548D01*
X84024Y129171D01*
X84500Y129108D01*
Y132815D01*
Y136522D01*
X84024Y136459D01*
X83114Y136082D01*
X82332Y135483D01*
X81781Y134763D01*
X81307Y134924D01*
Y135876D01*
X85151Y139720D01*
X134349D01*
X146220Y127849D01*
Y63393D01*
X146052Y63263D01*
X145389Y62400D01*
X144973Y61394D01*
X144904Y60873D01*
X144405Y60905D01*
Y92000D01*
X144298Y92538D01*
X143993Y92993D01*
X142905Y94082D01*
Y98390D01*
X142907D01*
X142905Y98410D01*
Y98424D01*
X143010Y99221D01*
X143331Y99995D01*
X143827Y100642D01*
X143845Y100655D01*
X144371Y101342D01*
X144703Y102142D01*
X144816Y103000D01*
X144703Y103858D01*
X144371Y104658D01*
X143845Y105345D01*
X143158Y105871D01*
X142358Y106203D01*
X141500Y106316D01*
X140642Y106203D01*
X139842Y105871D01*
X139155Y105345D01*
X138628Y104658D01*
X138297Y103858D01*
X138184Y103000D01*
X138297Y102142D01*
X138628Y101342D01*
X139155Y100655D01*
X139173Y100642D01*
X139670Y99995D01*
X139990Y99221D01*
X140095Y98424D01*
Y98410D01*
X140093Y98390D01*
X140095D01*
Y93500D01*
X140095Y93500D01*
X140095D01*
X140202Y92962D01*
X140506Y92507D01*
X141595Y91418D01*
Y83066D01*
X141105Y82968D01*
X140924Y83403D01*
X140420Y84061D01*
X139762Y84566D01*
X138995Y84883D01*
X138173Y84992D01*
X133055D01*
X132233Y84883D01*
X131944Y84764D01*
X131667Y85180D01*
X136994Y90507D01*
X137298Y90962D01*
X137405Y91500D01*
X137405Y91500D01*
X137405Y91500D01*
Y91500D01*
Y106418D01*
X139234Y108247D01*
X139234Y108247D01*
X139235Y108246D01*
X139248Y108261D01*
X139258Y108271D01*
X139895Y108760D01*
X140669Y109081D01*
X141478Y109187D01*
X141500Y109184D01*
X142358Y109297D01*
X143158Y109628D01*
X143845Y110155D01*
X144371Y110842D01*
X144703Y111642D01*
X144816Y112500D01*
X144703Y113358D01*
X144371Y114158D01*
X143845Y114845D01*
X143158Y115372D01*
X142358Y115703D01*
X141500Y115816D01*
X140642Y115703D01*
X139842Y115372D01*
X139155Y114845D01*
X138628Y114158D01*
X138297Y113358D01*
X138184Y112500D01*
X138187Y112478D01*
X138081Y111669D01*
X137760Y110895D01*
X137271Y110258D01*
X137261Y110248D01*
X137246Y110235D01*
X137247Y110234D01*
X137247Y110234D01*
X135006Y107993D01*
X134702Y107538D01*
X134595Y107000D01*
Y92082D01*
X132616Y90103D01*
X132175Y90338D01*
X132306Y91000D01*
X132306Y91000D01*
X132306Y91000D01*
Y91000D01*
Y119000D01*
X132169Y119691D01*
X131777Y120277D01*
X117962Y134092D01*
X117376Y134484D01*
X116685Y134621D01*
X109676D01*
X108987Y134712D01*
X108740Y134814D01*
Y136555D01*
X101260D01*
Y129075D01*
X108740D01*
Y130815D01*
X108987Y130918D01*
X109676Y131009D01*
X115937D01*
X128694Y118252D01*
Y91748D01*
X126839Y89894D01*
X126372Y89987D01*
X126306Y90014D01*
Y114500D01*
X126169Y115191D01*
X125777Y115777D01*
X117462Y124092D01*
X116876Y124484D01*
X116185Y124621D01*
X109676D01*
X108987Y124712D01*
X108274Y125007D01*
X107685Y125460D01*
X107668Y125482D01*
X107669Y125484D01*
X107665Y125487D01*
X107665Y125487D01*
Y125487D01*
X107638Y125505D01*
X106886Y126082D01*
X105976Y126459D01*
X105000Y126587D01*
X104024Y126459D01*
X103114Y126082D01*
X102332Y125482D01*
X101733Y124701D01*
X101356Y123791D01*
X101228Y122815D01*
X101356Y121839D01*
X101733Y120929D01*
X102332Y120148D01*
X103114Y119548D01*
X104024Y119171D01*
X105000Y119043D01*
X105976Y119171D01*
X106886Y119548D01*
X107638Y120125D01*
X107669Y120146D01*
X107668Y120148D01*
X107685Y120170D01*
X108274Y120623D01*
X108987Y120918D01*
X109676Y121009D01*
X115437D01*
X122694Y113752D01*
Y100016D01*
X122220Y99855D01*
X121845Y100345D01*
X121158Y100872D01*
X120358Y101203D01*
X119500Y101316D01*
X118642Y101203D01*
X117842Y100872D01*
X117155Y100345D01*
X117142Y100327D01*
X116495Y99831D01*
X115721Y99510D01*
X114924Y99405D01*
X114910D01*
X114890Y99407D01*
Y99405D01*
X87500D01*
X86962Y99298D01*
X86507Y98993D01*
X73007Y85493D01*
X72702Y85038D01*
X72595Y84500D01*
Y72082D01*
X56371Y55858D01*
X54302D01*
X54081Y56306D01*
X54310Y56604D01*
X54628Y57371D01*
X54736Y58193D01*
X54628Y59015D01*
X54310Y59781D01*
X53805Y60439D01*
X53148Y60944D01*
X52381Y61261D01*
X51559Y61370D01*
X46441D01*
X45619Y61261D01*
X44853Y60944D01*
X44195Y60439D01*
X43690Y59781D01*
X43395Y59070D01*
X42905Y59168D01*
Y65092D01*
X43395Y65189D01*
X43690Y64478D01*
X44195Y63821D01*
X44853Y63316D01*
X45619Y62998D01*
X46441Y62890D01*
X51559D01*
X52381Y62998D01*
X53148Y63316D01*
X53762Y63787D01*
X53808Y63818D01*
X53805Y63821D01*
X53842Y63869D01*
X54511Y64316D01*
X55243Y64461D01*
X55243D01*
X55361Y64446D01*
Y64461D01*
X58252D01*
X58252Y64461D01*
X58764Y64563D01*
X58866Y64583D01*
X59387Y64932D01*
X59387Y64931D01*
X59387Y64932D01*
X71135Y76680D01*
X71135Y76680D01*
X71483Y77201D01*
X71504Y77302D01*
X71606Y77815D01*
X71606Y77815D01*
Y88865D01*
X71624D01*
X71606Y89005D01*
Y89016D01*
X71770Y89845D01*
X72278Y90604D01*
X72345Y90655D01*
X72346Y90654D01*
X72367Y90685D01*
X72872Y91342D01*
X73203Y92142D01*
X73316Y93000D01*
X73203Y93858D01*
X72872Y94658D01*
X72345Y95345D01*
X71658Y95872D01*
X71580Y95904D01*
X71580Y95904D01*
X71865Y96376D01*
Y96376D01*
X72005Y96394D01*
X72016D01*
X72845Y96230D01*
X73604Y95722D01*
X73655Y95655D01*
X73654Y95654D01*
X73685Y95633D01*
X74342Y95129D01*
X75142Y94797D01*
X76000Y94684D01*
X76858Y94797D01*
X77658Y95129D01*
X78345Y95655D01*
X78872Y96342D01*
X79203Y97142D01*
X79316Y98000D01*
X79203Y98858D01*
X78872Y99658D01*
X78345Y100345D01*
X77658Y100872D01*
X76858Y101203D01*
X76000Y101316D01*
X75142Y101203D01*
X74342Y100872D01*
X73685Y100367D01*
X73654Y100346D01*
X73655Y100345D01*
X73604Y100278D01*
X72845Y99770D01*
X72016Y99606D01*
X72005D01*
X71865Y99624D01*
Y99606D01*
X68000D01*
X67386Y99483D01*
X66865Y99135D01*
X66865Y99135D01*
X62865Y95135D01*
X62517Y94614D01*
X62496Y94512D01*
X62394Y94000D01*
X62394Y94000D01*
Y79980D01*
X57961Y75547D01*
X55361D01*
Y75562D01*
X55243Y75547D01*
X55243D01*
X54511Y75692D01*
X53842Y76139D01*
X53805Y76187D01*
X53808Y76190D01*
X53802Y76194D01*
Y76194D01*
X53802Y76194D01*
X53762Y76221D01*
X53148Y76692D01*
X52381Y77009D01*
X51559Y77118D01*
X46441D01*
X45619Y77009D01*
X44853Y76692D01*
X44195Y76187D01*
X43690Y75529D01*
X43372Y74763D01*
X43264Y73941D01*
X43372Y73119D01*
X43690Y72352D01*
X44195Y71695D01*
X44853Y71190D01*
X45619Y70872D01*
X46441Y70764D01*
X51559D01*
X52381Y70872D01*
X53148Y71190D01*
X53762Y71661D01*
X53808Y71692D01*
X53805Y71695D01*
X53842Y71743D01*
X54511Y72190D01*
X55243Y72335D01*
X55243D01*
X55361Y72320D01*
Y72335D01*
X58626D01*
X58626Y72335D01*
X59139Y72437D01*
X59240Y72457D01*
X59761Y72806D01*
X59761Y72806D01*
X59761Y72806D01*
X65135Y78180D01*
X65135Y78180D01*
X65483Y78701D01*
X65606Y79315D01*
Y93335D01*
X66325Y94054D01*
X66777Y93866D01*
X66797Y93857D01*
X66684Y93000D01*
X66797Y92142D01*
X67128Y91342D01*
X67633Y90685D01*
X67652Y90655D01*
D01*
X67654Y90654D01*
X67655Y90655D01*
X67722Y90604D01*
X68230Y89845D01*
X68394Y89016D01*
Y89005D01*
X68376Y88865D01*
X68394D01*
Y78480D01*
X57587Y67673D01*
X55361D01*
Y67688D01*
X55243Y67673D01*
X55243D01*
X54511Y67818D01*
X53842Y68265D01*
X53805Y68313D01*
X53808Y68316D01*
X53802Y68320D01*
Y68320D01*
X53802Y68320D01*
X53762Y68347D01*
X53148Y68818D01*
X52381Y69135D01*
X51559Y69244D01*
X46441D01*
X45619Y69135D01*
X44853Y68818D01*
X44195Y68313D01*
X43690Y67655D01*
X43395Y66944D01*
X42905Y67042D01*
Y71000D01*
X42798Y71538D01*
X42494Y71993D01*
X38993Y75493D01*
X38538Y75798D01*
X38000Y75905D01*
X37703D01*
Y75912D01*
X37629Y75905D01*
X37597D01*
X36587Y76038D01*
X35547Y76469D01*
X34712Y77109D01*
X34668Y77167D01*
X33886Y77767D01*
X32976Y78144D01*
X32000Y78272D01*
X31024Y78144D01*
X30114Y77767D01*
X29333Y77167D01*
X28733Y76386D01*
X28356Y75476D01*
X28228Y74500D01*
X28356Y73524D01*
X28733Y72614D01*
X29333Y71833D01*
X30114Y71233D01*
X31024Y70856D01*
X32000Y70728D01*
X32976Y70856D01*
X33886Y71233D01*
X34668Y71833D01*
X34712Y71891D01*
X35547Y72531D01*
X36587Y72962D01*
X37439Y73074D01*
X40095Y70418D01*
Y63545D01*
X39633Y63354D01*
X37494Y65493D01*
X37038Y65798D01*
X36500Y65905D01*
X36500D01*
Y65917D01*
X36435Y65908D01*
X35846Y66025D01*
X35291Y66396D01*
X35120Y66652D01*
X35082Y66627D01*
X35039Y66683D01*
X34938Y66835D01*
X34907Y66856D01*
X34668Y67168D01*
X33886Y67767D01*
X32976Y68144D01*
X32000Y68272D01*
X31024Y68144D01*
X30114Y67767D01*
X29333Y67168D01*
X28733Y66386D01*
X28395Y65571D01*
X27905Y65669D01*
Y70000D01*
X27798Y70538D01*
X27494Y70993D01*
X27026Y71461D01*
X27031Y71466D01*
X26974Y71513D01*
X26951Y71535D01*
X26331Y72344D01*
X25900Y73384D01*
X25763Y74427D01*
X25772Y74500D01*
X25644Y75476D01*
X25267Y76386D01*
X24667Y77167D01*
X23886Y77767D01*
X22976Y78144D01*
X22000Y78272D01*
X21024Y78144D01*
X20114Y77767D01*
X19332Y77167D01*
X18733Y76386D01*
X18356Y75476D01*
X18228Y74500D01*
X18356Y73524D01*
X18733Y72614D01*
X19332Y71833D01*
X20114Y71233D01*
X21024Y70856D01*
X22000Y70728D01*
X22073Y70737D01*
X23116Y70600D01*
X24156Y70169D01*
X24964Y69549D01*
X24987Y69526D01*
X25034Y69469D01*
X25039Y69474D01*
X25095Y69418D01*
Y67405D01*
X24647Y67184D01*
X23886Y67767D01*
X22976Y68144D01*
X22500Y68207D01*
Y64500D01*
X22000D01*
Y64000D01*
X18293D01*
X18356Y63524D01*
X18733Y62614D01*
X19332Y61832D01*
X19401Y61780D01*
X19240Y61306D01*
X19000D01*
X18309Y61169D01*
X17723Y60777D01*
X13723Y56777D01*
X13331Y56191D01*
X13205Y55559D01*
X12708Y55608D01*
Y125585D01*
X22414Y135292D01*
X26871D01*
X27134Y135183D01*
X27155Y135155D01*
X27145Y135145D01*
X27323Y135027D01*
X27842Y134628D01*
X28642Y134297D01*
X29500Y134184D01*
X30358Y134297D01*
X31158Y134628D01*
X31845Y135155D01*
X32372Y135842D01*
X32703Y136642D01*
X32816Y137500D01*
X32703Y138358D01*
X32372Y139158D01*
X31845Y139845D01*
X31158Y140372D01*
X30358Y140703D01*
X29500Y140816D01*
X28642Y140703D01*
X27842Y140372D01*
X27323Y139973D01*
X27145Y139855D01*
X27155Y139845D01*
X27134Y139817D01*
X26871Y139708D01*
X21500D01*
X20655Y139540D01*
X19939Y139061D01*
X8939Y128061D01*
X8460Y127345D01*
X8292Y126500D01*
Y33000D01*
X8460Y32155D01*
X8939Y31439D01*
X15983Y24395D01*
X15791Y23933D01*
X8382D01*
Y13697D01*
X18618D01*
Y23249D01*
X23873D01*
X24034Y22775D01*
X23629Y22465D01*
X22809Y21396D01*
X22293Y20151D01*
X22117Y18815D01*
X22293Y17479D01*
X22809Y16234D01*
X23629Y15165D01*
X24698Y14344D01*
X25943Y13829D01*
X27279Y13653D01*
X28616Y13829D01*
X29861Y14344D01*
X30930Y15165D01*
X31750Y16234D01*
X32266Y17479D01*
X32442Y18815D01*
X32298Y19911D01*
X32746Y20132D01*
X39439Y13439D01*
X39439Y13439D01*
X39439D01*
X39439Y13439D01*
X39439D01*
X39439Y13439D01*
Y13439D01*
Y13439D01*
D01*
D01*
X39439D01*
Y13439D01*
X40155Y12960D01*
X41000Y12792D01*
X43000D01*
X43284Y12849D01*
X43481Y12697D01*
X43664Y12475D01*
X43372Y11771D01*
X43330Y11449D01*
X54670D01*
X54628Y11771D01*
X54310Y12537D01*
X54084Y12832D01*
X54305Y13280D01*
X57391D01*
X58041Y12846D01*
X58886Y12678D01*
X69386D01*
X70231Y12846D01*
X70947Y13325D01*
X70947Y13325D01*
X70947Y13325D01*
X73414Y15792D01*
X84934D01*
X85155Y15345D01*
X84628Y14658D01*
X84297Y13858D01*
X84250Y13500D01*
X90750D01*
X90703Y13858D01*
X90372Y14658D01*
X89845Y15345D01*
X90066Y15792D01*
X104086D01*
X109439Y10439D01*
X110155Y9960D01*
X111000Y9792D01*
X123371D01*
X123634Y9683D01*
X123655Y9655D01*
X123645Y9646D01*
X123823Y9527D01*
X124342Y9128D01*
X125142Y8797D01*
X126000Y8684D01*
X126858Y8797D01*
X127658Y9128D01*
X128345Y9655D01*
X128872Y10342D01*
X129203Y11142D01*
X129316Y12000D01*
X129203Y12858D01*
X128872Y13658D01*
X128345Y14345D01*
X127658Y14872D01*
X126858Y15203D01*
X126000Y15316D01*
X125142Y15203D01*
X124342Y14872D01*
X123823Y14473D01*
X123645Y14355D01*
X123655Y14345D01*
X123634Y14317D01*
X123371Y14208D01*
X111915D01*
X106561Y19561D01*
X105845Y20040D01*
X105771Y20054D01*
X105820Y20552D01*
X127740D01*
X128585Y20720D01*
X129235Y21154D01*
X130309D01*
X130530Y20706D01*
X130304Y20411D01*
X129987Y19645D01*
X129878Y18823D01*
X129987Y18001D01*
X130304Y17234D01*
X130809Y16577D01*
X131467Y16072D01*
X132233Y15754D01*
X133055Y15646D01*
X138173D01*
X138995Y15754D01*
X139762Y16072D01*
X140420Y16577D01*
X140924Y17234D01*
X141242Y18001D01*
X141350Y18823D01*
X141242Y19645D01*
X140924Y20411D01*
X140698Y20706D01*
X140920Y21154D01*
X142206D01*
X142856Y20720D01*
X143701Y20552D01*
X145313D01*
X146419Y19446D01*
Y14000D01*
X146507Y13332D01*
X146636Y13021D01*
X146765Y12709D01*
X147175Y12175D01*
X151175Y8175D01*
X151709Y7765D01*
D01*
D01*
Y7765D01*
X151709Y7765D01*
D01*
D01*
X151709D01*
Y7765D01*
D01*
X151709D01*
Y7765D01*
X152332Y7507D01*
X153000Y7419D01*
X169000D01*
X169668Y7507D01*
X169979Y7636D01*
X170291Y7765D01*
X170825Y8175D01*
X173325Y10675D01*
X173735Y11209D01*
X173993Y11832D01*
X174081Y12500D01*
Y12637D01*
X174101D01*
X174091Y12737D01*
X174201Y13568D01*
X174254Y13697D01*
X176618D01*
Y23933D01*
X166382D01*
Y13697D01*
X168393D01*
X168585Y13235D01*
X167931Y12581D01*
X154069D01*
X151581Y15069D01*
Y36513D01*
X151590D01*
X151588Y36527D01*
X151678Y36979D01*
X151926Y37350D01*
X151948Y37367D01*
X152611Y38230D01*
X153027Y39236D01*
X153170Y40315D01*
X153027Y41394D01*
X152611Y42400D01*
X151948Y43263D01*
X151085Y43926D01*
X150079Y44342D01*
X149000Y44484D01*
X147921Y44342D01*
X146915Y43926D01*
X146052Y43263D01*
X145389Y42400D01*
X144973Y41394D01*
X144831Y40315D01*
X144973Y39236D01*
X145389Y38230D01*
X146052Y37367D01*
X146074Y37350D01*
X146322Y36979D01*
X146412Y36527D01*
X146410Y36513D01*
X146419D01*
Y25578D01*
X145808Y24968D01*
X143701D01*
X142856Y24800D01*
X142206Y24365D01*
X140919D01*
X140698Y24814D01*
X140924Y25108D01*
X141242Y25875D01*
X141350Y26697D01*
X141242Y27519D01*
X140924Y28285D01*
X140420Y28943D01*
X139762Y29448D01*
X138995Y29765D01*
X138173Y29874D01*
X133055D01*
X132233Y29765D01*
X131467Y29448D01*
X130809Y28943D01*
X130304Y28285D01*
X129987Y27519D01*
X129878Y26697D01*
X129987Y25875D01*
X130304Y25108D01*
X130530Y24814D01*
X130309Y24365D01*
X129235D01*
X128585Y24800D01*
X127740Y24968D01*
X55000D01*
X54705Y24909D01*
X54388Y25295D01*
X54628Y25875D01*
X54736Y26697D01*
X54628Y27519D01*
X54310Y28285D01*
X54033Y28647D01*
X54254Y29095D01*
X79500D01*
X80038Y29202D01*
X80493Y29506D01*
X90993Y40007D01*
X91298Y40462D01*
X91405Y41000D01*
Y61307D01*
X91895Y61405D01*
X92128Y60842D01*
X92655Y60155D01*
X92673Y60142D01*
X93169Y59495D01*
X93490Y58721D01*
X93595Y57924D01*
Y57910D01*
X93593Y57890D01*
X93595D01*
Y47000D01*
X93595Y47000D01*
X93595D01*
X93702Y46462D01*
X94007Y46007D01*
X102506Y37506D01*
X102962Y37202D01*
X103500Y37095D01*
X130457D01*
X130678Y36647D01*
X130304Y36159D01*
X129987Y35393D01*
X129878Y34571D01*
X129987Y33749D01*
X130304Y32983D01*
X130809Y32324D01*
X131467Y31820D01*
X132233Y31502D01*
X133055Y31394D01*
X138173D01*
X138995Y31502D01*
X139762Y31820D01*
X140420Y32324D01*
X140924Y32983D01*
X141242Y33749D01*
X141350Y34571D01*
X141242Y35393D01*
X140924Y36159D01*
X140487Y36729D01*
X140568Y37223D01*
X140993Y37506D01*
X143993Y40507D01*
X144298Y40962D01*
X144405Y41500D01*
Y49725D01*
X144904Y49757D01*
X144973Y49236D01*
X145389Y48230D01*
X146052Y47367D01*
X146915Y46704D01*
X147921Y46288D01*
X149000Y46145D01*
X150079Y46288D01*
X151085Y46704D01*
X151948Y47367D01*
X152611Y48230D01*
X153027Y49236D01*
X153170Y50315D01*
X153027Y51394D01*
X152611Y52400D01*
X151948Y53263D01*
X151085Y53926D01*
X150079Y54342D01*
X149000Y54484D01*
X147921Y54342D01*
X146915Y53926D01*
X146052Y53263D01*
X145389Y52400D01*
X144973Y51394D01*
X144904Y50872D01*
X144405Y50905D01*
Y59725D01*
X144904Y59757D01*
X144973Y59236D01*
X145389Y58230D01*
X146052Y57367D01*
X146915Y56704D01*
X147921Y56287D01*
X149000Y56145D01*
X150079Y56287D01*
X151085Y56704D01*
X151948Y57367D01*
X152611Y58230D01*
X153027Y59236D01*
X153170Y60315D01*
X153027Y61394D01*
X152611Y62400D01*
X151948Y63263D01*
X151780Y63393D01*
Y129000D01*
X151685Y129719D01*
X151407Y130390D01*
X150965Y130965D01*
X137466Y144465D01*
X136890Y144907D01*
X136219Y145185D01*
X135500Y145280D01*
X84000D01*
X83281Y145185D01*
X82610Y144907D01*
X82034Y144465D01*
X76562Y138993D01*
X76555Y138983D01*
X76081Y139144D01*
Y141431D01*
X81884Y147234D01*
X151822D01*
Y147214D01*
X151922Y147223D01*
X152754Y147114D01*
X152882Y147061D01*
Y144697D01*
X163118D01*
Y154417D01*
X163580Y154608D01*
X165372Y152817D01*
X165372Y152816D01*
X165372Y152816D01*
X165372Y152816D01*
X165548Y152640D01*
X166075Y151954D01*
X166502Y150922D01*
X166633Y149932D01*
X166617Y149815D01*
X166615D01*
X166621Y149783D01*
X166793Y148479D01*
X167309Y147234D01*
X168129Y146165D01*
X169198Y145344D01*
X170443Y144829D01*
X171780Y144653D01*
X173116Y144829D01*
X174361Y145344D01*
X175430Y146165D01*
X176250Y147234D01*
X176766Y148479D01*
X176942Y149815D01*
X176766Y151151D01*
X176250Y152396D01*
X175430Y153465D01*
X174361Y154286D01*
X173116Y154801D01*
X171811Y154973D01*
X171780Y154979D01*
Y154977D01*
X171663Y154962D01*
X170672Y155092D01*
X169641Y155520D01*
X168955Y156046D01*
X168778Y156223D01*
D01*
D01*
Y156223D01*
X168778Y156223D01*
X165297Y159703D01*
X164516Y160225D01*
X163594Y160408D01*
D02*
G37*
G36*
X48240Y156740D02*
X40760D01*
Y149260D01*
X48240D01*
Y156740D01*
D02*
G37*
G36*
X27279Y154977D02*
X25943Y154801D01*
X24698Y154286D01*
X23629Y153465D01*
X22809Y152396D01*
X22293Y151151D01*
X22117Y149815D01*
X22293Y148479D01*
X22809Y147234D01*
X23629Y146165D01*
X24698Y145344D01*
X25943Y144829D01*
X27279Y144653D01*
X28616Y144829D01*
X29861Y145344D01*
X30930Y146165D01*
X31750Y147234D01*
X32266Y148479D01*
X32442Y149815D01*
X32266Y151151D01*
X31750Y152396D01*
X30930Y153465D01*
X29861Y154286D01*
X28616Y154801D01*
X27279Y154977D01*
D02*
G37*
G36*
X18618Y154933D02*
X8382D01*
Y144697D01*
X18618D01*
Y154933D01*
D02*
G37*
G36*
X88707Y132315D02*
X85500D01*
Y129108D01*
X85976Y129171D01*
X86886Y129548D01*
X87668Y130148D01*
X88267Y130929D01*
X88644Y131839D01*
X88707Y132315D01*
D02*
G37*
G36*
X85500Y126522D02*
Y123315D01*
X88707D01*
X88644Y123791D01*
X88267Y124701D01*
X87668Y125482D01*
X86886Y126082D01*
X85976Y126459D01*
X85500Y126522D01*
D02*
G37*
G36*
X84500D02*
X84024Y126459D01*
X83114Y126082D01*
X82332Y125482D01*
X81733Y124701D01*
X81356Y123791D01*
X81293Y123315D01*
X84500D01*
Y126522D01*
D02*
G37*
G36*
X36500Y137000D02*
X33750D01*
X33797Y136642D01*
X34128Y135842D01*
X34655Y135155D01*
X35342Y134628D01*
X36142Y134297D01*
X36500Y134250D01*
Y137000D01*
D02*
G37*
G36*
X88707Y122315D02*
X85500D01*
Y119108D01*
X85976Y119171D01*
X86886Y119548D01*
X87668Y120148D01*
X88267Y120929D01*
X88644Y121839D01*
X88707Y122315D01*
D02*
G37*
G36*
X85500Y136522D02*
Y133315D01*
X88707D01*
X88644Y133791D01*
X88267Y134701D01*
X87668Y135483D01*
X86886Y136082D01*
X85976Y136459D01*
X85500Y136522D01*
D02*
G37*
%LPD*%
G36*
X162703Y155176D02*
X162602Y154933D01*
X152882D01*
Y152569D01*
X152754Y152516D01*
X151922Y152406D01*
X151822Y152416D01*
Y152396D01*
X80815D01*
X80147Y152308D01*
X79965Y152233D01*
X79524Y152050D01*
X78990Y151640D01*
X71675Y144325D01*
X71382Y143943D01*
X71060Y144053D01*
X70946Y144540D01*
X80498Y154092D01*
X147500D01*
X148422Y154275D01*
X149203Y154797D01*
X149998Y155591D01*
X162425D01*
X162703Y155176D01*
D02*
G37*
G36*
X75482Y135054D02*
X75748Y134851D01*
Y133679D01*
X35849Y93780D01*
X31481D01*
X31402Y94012D01*
X31693Y94419D01*
X33500D01*
X34168Y94507D01*
X34479Y94636D01*
X34791Y94765D01*
X35325Y95175D01*
X39207Y99057D01*
X39412Y99232D01*
Y99232D01*
Y99262D01*
X75286Y135136D01*
X75482Y135054D01*
D02*
G37*
G36*
X115721Y96490D02*
X116495Y96170D01*
X117142Y95673D01*
X117155Y95655D01*
X117842Y95129D01*
X118642Y94797D01*
X119500Y94684D01*
X120358Y94797D01*
X121158Y95129D01*
X121845Y95655D01*
X122220Y96145D01*
X122694Y95984D01*
Y90748D01*
X114308Y82362D01*
X113859Y82583D01*
X113914Y83000D01*
X113801Y83858D01*
X113470Y84658D01*
X112943Y85345D01*
X112256Y85871D01*
X111457Y86203D01*
X110598Y86316D01*
X109740Y86203D01*
X108940Y85871D01*
X108254Y85345D01*
X108177Y85244D01*
X108143Y85222D01*
X108091Y85145D01*
X108053Y85139D01*
X108053D01*
X107953Y84990D01*
X107287Y84545D01*
X106999Y84488D01*
X99993Y91493D01*
X99538Y91798D01*
X99000Y91905D01*
X86000D01*
X85462Y91798D01*
X85007Y91493D01*
X75867Y82354D01*
X75405Y82545D01*
Y83918D01*
X88082Y96595D01*
X114890D01*
Y96593D01*
X114910Y96595D01*
X114924D01*
X115721Y96490D01*
D02*
G37*
G36*
X55000Y20552D02*
X71680D01*
X71729Y20054D01*
X71655Y20040D01*
X70939Y19561D01*
X68471Y17094D01*
X58886D01*
X58041Y16926D01*
X57391Y16491D01*
X54305D01*
X54084Y16940D01*
X54310Y17234D01*
X54628Y18001D01*
X54736Y18823D01*
X54628Y19645D01*
X54388Y20224D01*
X54705Y20611D01*
X55000Y20552D01*
D02*
G37*
G36*
X18449Y55701D02*
X18356Y55476D01*
X18228Y54500D01*
X18356Y53524D01*
X18733Y52614D01*
X19332Y51832D01*
X19377Y51799D01*
X19380Y51793D01*
X19406Y51776D01*
Y51776D01*
X19405Y51767D01*
Y51767D01*
X19484Y51706D01*
X20092Y50913D01*
X20474Y49990D01*
X20595Y49074D01*
Y49050D01*
X20590Y49000D01*
X20595D01*
Y49000D01*
X20702Y48462D01*
X21007Y48006D01*
X25506Y43507D01*
X25962Y43202D01*
X26500Y43095D01*
X30331D01*
X30429Y42605D01*
X29614Y42267D01*
X28833Y41668D01*
X28233Y40886D01*
X27856Y39976D01*
X27728Y39000D01*
X27856Y38024D01*
X28233Y37114D01*
X28833Y36332D01*
X29614Y35733D01*
X30524Y35356D01*
X31500Y35228D01*
X32476Y35356D01*
X33386Y35733D01*
X34168Y36332D01*
X34767Y37114D01*
X35144Y38024D01*
X35272Y39000D01*
X35144Y39976D01*
X34767Y40886D01*
X34258Y41549D01*
X34634Y41879D01*
X37095Y39418D01*
Y34000D01*
X37095Y34000D01*
X37095D01*
X37202Y33462D01*
X37506Y33007D01*
X41006Y29507D01*
X41006Y29507D01*
X41006D01*
X41006Y29506D01*
X41006D01*
X41007Y29506D01*
Y29506D01*
Y29506D01*
D01*
D01*
X41007D01*
Y29506D01*
X41462Y29202D01*
X42000Y29095D01*
X43746D01*
X43967Y28647D01*
X43690Y28285D01*
X43372Y27519D01*
X43264Y26697D01*
X43372Y25875D01*
X43690Y25108D01*
X43916Y24814D01*
X43695Y24365D01*
X41995D01*
X41345Y24800D01*
X40500Y24968D01*
X39655D01*
X32061Y32561D01*
X31345Y33040D01*
X30500Y33208D01*
X19915D01*
X18324Y34798D01*
X18516Y35260D01*
X25240D01*
Y42740D01*
X17760D01*
Y36016D01*
X17624Y35959D01*
X17208Y36237D01*
Y48000D01*
X17040Y48845D01*
X16806Y49194D01*
Y54752D01*
X18034Y55979D01*
X18449Y55701D01*
D02*
G37*
G36*
X75095Y69955D02*
Y68082D01*
X54918Y47905D01*
X54242D01*
X54021Y48353D01*
X54310Y48730D01*
X54628Y49497D01*
X54736Y50319D01*
X54628Y51141D01*
X54310Y51907D01*
X53805Y52565D01*
X53794Y52574D01*
X53954Y53048D01*
X56953D01*
X57490Y53155D01*
X57946Y53459D01*
X74633Y70146D01*
X75095Y69955D01*
D02*
G37*
G36*
X105507Y82007D02*
X105962Y81702D01*
X106500Y81595D01*
X106500D01*
Y81580D01*
X106594Y81593D01*
X107287Y81455D01*
X107953Y81010D01*
X108053Y80861D01*
X108053D01*
X108091Y80855D01*
X108143Y80778D01*
X108177Y80756D01*
X108254Y80655D01*
X108940Y80129D01*
X109740Y79797D01*
X110598Y79684D01*
X111015Y79739D01*
X111236Y79291D01*
X110223Y78277D01*
X109831Y77691D01*
X109694Y77000D01*
Y66159D01*
X109681D01*
X109694Y66067D01*
Y66055D01*
X109572Y65442D01*
X109190Y64871D01*
X109155Y64845D01*
X109151Y64849D01*
X109097Y64769D01*
X108628Y64158D01*
X108297Y63358D01*
X108184Y62500D01*
X108297Y61642D01*
X108628Y60842D01*
X109155Y60155D01*
X109842Y59628D01*
X110642Y59297D01*
X111500Y59184D01*
X112358Y59297D01*
X113158Y59628D01*
X113845Y60155D01*
X114372Y60842D01*
X114703Y61642D01*
X114816Y62500D01*
X114703Y63358D01*
X114372Y64158D01*
X113903Y64769D01*
X113849Y64849D01*
X113845Y64845D01*
X113810Y64871D01*
X113428Y65442D01*
X113306Y66055D01*
Y66067D01*
X113319Y66159D01*
X113306D01*
Y76252D01*
X118161Y81106D01*
X118628Y81013D01*
X118694Y80986D01*
Y54659D01*
X118682D01*
X118694Y54567D01*
Y54555D01*
X118572Y53942D01*
X118190Y53371D01*
X118155Y53345D01*
X118151Y53349D01*
X118097Y53269D01*
X117629Y52658D01*
X117297Y51858D01*
X117184Y51000D01*
X117297Y50142D01*
X117629Y49342D01*
X118155Y48655D01*
X118842Y48129D01*
X119642Y47797D01*
X120500Y47684D01*
X121358Y47797D01*
X122158Y48129D01*
X122845Y48655D01*
X123372Y49342D01*
X123703Y50142D01*
X123816Y51000D01*
X123703Y51858D01*
X123372Y52658D01*
X122903Y53269D01*
X122849Y53349D01*
X122845Y53345D01*
X122810Y53371D01*
X122428Y53942D01*
X122306Y54555D01*
Y54567D01*
X122318Y54659D01*
X122306D01*
Y80252D01*
X124744Y82690D01*
X125185Y82454D01*
X125095Y82000D01*
Y47582D01*
X121418Y43905D01*
X108582D01*
X104905Y47582D01*
Y57890D01*
X104907D01*
X104905Y57910D01*
Y57924D01*
X105010Y58721D01*
X105331Y59495D01*
X105827Y60142D01*
X105845Y60155D01*
X106371Y60842D01*
X106703Y61642D01*
X106816Y62500D01*
X106703Y63358D01*
X106371Y64158D01*
X105845Y64845D01*
X105158Y65372D01*
X104358Y65703D01*
X103500Y65816D01*
X102642Y65703D01*
X101842Y65372D01*
X101155Y64845D01*
X100628Y64158D01*
X100297Y63358D01*
X100184Y62500D01*
X100297Y61642D01*
X100628Y60842D01*
X101155Y60155D01*
X101173Y60142D01*
X101670Y59495D01*
X101990Y58721D01*
X102095Y57924D01*
Y57910D01*
X102093Y57890D01*
X102095D01*
Y47000D01*
X102095Y47000D01*
X102095D01*
X102202Y46462D01*
X102506Y46007D01*
X107007Y41506D01*
X107462Y41202D01*
X108000Y41095D01*
X122000D01*
X122538Y41202D01*
X122994Y41506D01*
X122994Y41506D01*
X122994Y41506D01*
X127494Y46007D01*
X127798Y46462D01*
X127905Y47000D01*
X127905Y47000D01*
X127905Y47000D01*
Y47000D01*
Y81418D01*
X129690Y83203D01*
X130106Y82926D01*
X129987Y82637D01*
X129878Y81815D01*
X129987Y80993D01*
X130304Y80227D01*
X130809Y79569D01*
X131467Y79064D01*
X132233Y78746D01*
X133055Y78638D01*
X138173D01*
X138995Y78746D01*
X139762Y79064D01*
X140420Y79569D01*
X140924Y80227D01*
X141105Y80662D01*
X141595Y80564D01*
Y75192D01*
X141105Y75094D01*
X140924Y75529D01*
X140420Y76187D01*
X139762Y76692D01*
X138995Y77009D01*
X138173Y77118D01*
X133055D01*
X132233Y77009D01*
X131467Y76692D01*
X130809Y76187D01*
X130304Y75529D01*
X129987Y74763D01*
X129878Y73941D01*
X129987Y73119D01*
X130304Y72352D01*
X130809Y71695D01*
X131467Y71190D01*
X132233Y70872D01*
X133055Y70764D01*
X138173D01*
X138995Y70872D01*
X139762Y71190D01*
X140420Y71695D01*
X140924Y72352D01*
X141105Y72788D01*
X141595Y72690D01*
Y67318D01*
X141105Y67220D01*
X140924Y67655D01*
X140420Y68313D01*
X139762Y68818D01*
X138995Y69135D01*
X138173Y69244D01*
X133055D01*
X132233Y69135D01*
X131467Y68818D01*
X130809Y68313D01*
X130304Y67655D01*
X129987Y66889D01*
X129878Y66067D01*
X129987Y65245D01*
X130304Y64478D01*
X130809Y63821D01*
X131467Y63316D01*
X132233Y62998D01*
X133055Y62890D01*
X138173D01*
X138995Y62998D01*
X139762Y63316D01*
X140420Y63821D01*
X140924Y64478D01*
X141105Y64914D01*
X141595Y64816D01*
Y59444D01*
X141105Y59346D01*
X140924Y59781D01*
X140420Y60439D01*
X139762Y60944D01*
X138995Y61261D01*
X138173Y61370D01*
X133055D01*
X132233Y61261D01*
X131467Y60944D01*
X130809Y60439D01*
X130304Y59781D01*
X129987Y59015D01*
X129878Y58193D01*
X129987Y57371D01*
X130304Y56604D01*
X130809Y55947D01*
X131467Y55442D01*
X132233Y55124D01*
X133055Y55016D01*
X138173D01*
X138995Y55124D01*
X139762Y55442D01*
X140420Y55947D01*
X140924Y56604D01*
X141105Y57040D01*
X141595Y56942D01*
Y51570D01*
X141105Y51472D01*
X140924Y51907D01*
X140420Y52565D01*
X139762Y53070D01*
X138995Y53387D01*
X138173Y53496D01*
X133055D01*
X132233Y53387D01*
X131467Y53070D01*
X130809Y52565D01*
X130304Y51907D01*
X129987Y51141D01*
X129878Y50319D01*
X129987Y49497D01*
X130304Y48730D01*
X130809Y48073D01*
X131467Y47568D01*
X132233Y47250D01*
X133055Y47142D01*
X138173D01*
X138995Y47250D01*
X139762Y47568D01*
X140420Y48073D01*
X140924Y48730D01*
X141105Y49166D01*
X141595Y49068D01*
Y43696D01*
X141105Y43598D01*
X140924Y44033D01*
X140420Y44691D01*
X139762Y45196D01*
X138995Y45513D01*
X138173Y45622D01*
X133055D01*
X132233Y45513D01*
X131467Y45196D01*
X130809Y44691D01*
X130304Y44033D01*
X129987Y43267D01*
X129878Y42445D01*
X129987Y41623D01*
X130304Y40857D01*
X130690Y40353D01*
X130469Y39905D01*
X104082D01*
X96405Y47582D01*
Y57890D01*
X96407D01*
X96405Y57910D01*
Y57924D01*
X96510Y58721D01*
X96830Y59495D01*
X97327Y60142D01*
X97345Y60155D01*
X97872Y60842D01*
X98203Y61642D01*
X98316Y62500D01*
X98203Y63358D01*
X97872Y64158D01*
X97345Y64845D01*
X96658Y65372D01*
X95858Y65703D01*
X95000Y65816D01*
X94142Y65703D01*
X93342Y65372D01*
X92655Y64845D01*
X92128Y64158D01*
X91895Y63595D01*
X91405Y63693D01*
Y74418D01*
X92496Y75509D01*
X92705Y75467D01*
X93303Y75068D01*
X93411Y74906D01*
X93411D01*
X93460Y74899D01*
X93522Y74806D01*
X93559Y74781D01*
X93655Y74655D01*
X94342Y74129D01*
X95142Y73797D01*
X96000Y73684D01*
X96858Y73797D01*
X97658Y74129D01*
X98345Y74655D01*
X98871Y75342D01*
X99203Y76142D01*
X99316Y77000D01*
X99203Y77858D01*
X98871Y78658D01*
X98345Y79345D01*
X97658Y79871D01*
X96858Y80203D01*
X96000Y80316D01*
X95142Y80203D01*
X94342Y79871D01*
X93655Y79345D01*
X93559Y79219D01*
X93522Y79194D01*
X93460Y79101D01*
X93411Y79094D01*
X93411D01*
X93303Y78932D01*
X92705Y78533D01*
X92076Y78408D01*
X92000Y78418D01*
Y78405D01*
X92000D01*
X91462Y78298D01*
X91007Y77993D01*
X89007Y75993D01*
X88702Y75538D01*
X88595Y75000D01*
Y66144D01*
X88122Y65984D01*
X87845Y66345D01*
X87158Y66872D01*
X86358Y67203D01*
X86000Y67250D01*
Y64000D01*
Y60750D01*
X86358Y60797D01*
X87158Y61128D01*
X87845Y61655D01*
X88122Y62016D01*
X88595Y61856D01*
Y41582D01*
X78918Y31905D01*
X63644D01*
X63484Y32378D01*
X63845Y32655D01*
X64372Y33342D01*
X64703Y34142D01*
X64750Y34500D01*
X58250D01*
X58297Y34142D01*
X58628Y33342D01*
X59155Y32655D01*
X59516Y32378D01*
X59356Y31905D01*
X54049D01*
X53828Y32353D01*
X54310Y32983D01*
X54628Y33749D01*
X54736Y34571D01*
X54628Y35393D01*
X54310Y36159D01*
X53936Y36647D01*
X54157Y37095D01*
X55500D01*
X56038Y37202D01*
X56493Y37506D01*
X81930Y62943D01*
X82156Y62898D01*
X82491Y62674D01*
X82629Y62342D01*
X83155Y61655D01*
X83842Y61128D01*
X84642Y60797D01*
X85000Y60750D01*
Y64000D01*
Y67250D01*
X84642Y67203D01*
X83842Y66872D01*
X83155Y66345D01*
X82878Y65984D01*
X82405Y66144D01*
Y76356D01*
X82878Y76516D01*
X83155Y76155D01*
X83842Y75629D01*
X84642Y75297D01*
X85000Y75250D01*
Y78500D01*
Y81750D01*
X84892Y81736D01*
X84671Y82184D01*
X87582Y85095D01*
X97418D01*
X102009Y80504D01*
X101967Y80295D01*
X101568Y79697D01*
X101406Y79589D01*
Y79589D01*
X101399Y79540D01*
X101306Y79478D01*
X101281Y79441D01*
X101155Y79345D01*
X100628Y78658D01*
X100297Y77858D01*
X100184Y77000D01*
X100297Y76142D01*
X100628Y75342D01*
X101155Y74655D01*
X101842Y74129D01*
X102642Y73797D01*
X103500Y73684D01*
X104358Y73797D01*
X105158Y74129D01*
X105845Y74655D01*
X106371Y75342D01*
X106703Y76142D01*
X106816Y77000D01*
X106703Y77858D01*
X106371Y78658D01*
X105845Y79345D01*
X105719Y79441D01*
X105694Y79478D01*
X105601Y79540D01*
X105594Y79589D01*
Y79589D01*
X105432Y79697D01*
X105033Y80295D01*
X104908Y80924D01*
X104918Y81000D01*
X104905D01*
Y81000D01*
X104798Y81538D01*
X104493Y81993D01*
X98993Y87493D01*
X98538Y87798D01*
X98000Y87905D01*
X87000D01*
X86462Y87798D01*
X86007Y87493D01*
X80007Y81493D01*
X79702Y81038D01*
X79595Y80500D01*
Y64582D01*
X54918Y39905D01*
X54145D01*
X53924Y40353D01*
X54310Y40857D01*
X54628Y41623D01*
X54736Y42445D01*
X54628Y43267D01*
X54310Y44033D01*
X53840Y44647D01*
X54061Y45095D01*
X55500D01*
X56038Y45202D01*
X56493Y45507D01*
X77493Y66507D01*
X77798Y66962D01*
X77905Y67500D01*
X77905Y67500D01*
X77905Y67500D01*
Y67500D01*
Y80418D01*
X86582Y89095D01*
X98418D01*
X105507Y82007D01*
D02*
G37*
G36*
X28271Y54833D02*
X28228Y54500D01*
X28356Y53524D01*
X28733Y52614D01*
X29333Y51832D01*
X30114Y51233D01*
X31024Y50856D01*
X32000Y50728D01*
X32976Y50856D01*
X33886Y51233D01*
X34668Y51832D01*
X35122Y52424D01*
X35595Y52263D01*
Y45545D01*
X35133Y45354D01*
X34993Y45494D01*
X34538Y45798D01*
X34000Y45905D01*
X27082D01*
X23464Y49523D01*
X23526Y49990D01*
X23908Y50913D01*
X24516Y51706D01*
X24595Y51767D01*
Y51767D01*
X24595Y51776D01*
Y51776D01*
X24620Y51793D01*
X24623Y51799D01*
X24667Y51832D01*
X25267Y52614D01*
X25644Y53524D01*
X25772Y54500D01*
X25644Y55476D01*
X25267Y56386D01*
X24667Y57168D01*
X24599Y57220D01*
X24760Y57694D01*
X25411D01*
X28271Y54833D01*
D02*
G37*
%LPC*%
G36*
X88750Y78000D02*
X86000D01*
Y75250D01*
X86358Y75297D01*
X87158Y75629D01*
X87845Y76155D01*
X88371Y76842D01*
X88703Y77642D01*
X88750Y78000D01*
D02*
G37*
G36*
X86000Y81750D02*
Y79000D01*
X88750D01*
X88703Y79358D01*
X88371Y80158D01*
X87845Y80845D01*
X87158Y81371D01*
X86358Y81703D01*
X86000Y81750D01*
D02*
G37*
G36*
X61000Y38250D02*
X60642Y38203D01*
X59842Y37872D01*
X59155Y37345D01*
X58628Y36658D01*
X58297Y35858D01*
X58250Y35500D01*
X61000D01*
Y38250D01*
D02*
G37*
G36*
X62000D02*
Y35500D01*
X64750D01*
X64703Y35858D01*
X64372Y36658D01*
X63845Y37345D01*
X63158Y37872D01*
X62358Y38203D01*
X62000Y38250D01*
D02*
G37*
%LPD*%
D10*
X125207Y11207D02*
G03*
X123291Y12000I-1915J-1915D01*
G01*
D02*
G03*
X125207Y12793I0J2709D01*
G01*
X28707Y136707D02*
G03*
X26791Y137500I-1915J-1915D01*
G01*
D02*
G03*
X28707Y138293I0J2709D01*
G01*
X72500Y18000D02*
X105000D01*
X69386Y14886D02*
X72500Y18000D01*
X58886Y14886D02*
X69386D01*
X111000Y12000D02*
X126000D01*
X105000Y18000D02*
X111000Y12000D01*
X55000Y22760D02*
X127740D01*
X143701D02*
X149000D01*
X21500Y137500D02*
X29500D01*
X15000Y35000D02*
Y48000D01*
Y35000D02*
X19000Y31000D01*
X10500Y33000D02*
X18043Y25457D01*
X19000Y31000D02*
X30500D01*
X38740Y22760D01*
X40500D01*
X18043Y25457D02*
X30543D01*
X41000Y15000D01*
X43000D01*
X10500Y33000D02*
Y126500D01*
X21500Y137500D01*
D11*
X118150Y96650D02*
G03*
X114890Y98000I-3260J-3260D01*
G01*
D02*
G03*
X118150Y99350I0J4610D01*
G01*
X102299Y78485D02*
G03*
X103500Y81000I-2034J2515D01*
G01*
D02*
G03*
X104701Y78485I3235J0D01*
G01*
X94515Y75799D02*
G03*
X92000Y77000I-2515J-2034D01*
G01*
D02*
G03*
X94515Y78201I0J3235D01*
G01*
X104850Y61150D02*
G03*
X103500Y57890I3260J-3260D01*
G01*
D02*
G03*
X102150Y61150I-4610J0D01*
G01*
X96350D02*
G03*
X95000Y57890I3260J-3260D01*
G01*
D02*
G03*
X93650Y61150I-4610J0D01*
G01*
X141500Y110591D02*
G03*
X138240Y109240I0J-4610D01*
G01*
X138240Y109240D02*
G03*
X139591Y112500I-3260J3260D01*
G01*
X142850Y101650D02*
G03*
X141500Y98390I3260J-3260D01*
G01*
D02*
G03*
X140150Y101650I-4610J0D01*
G01*
X109136Y81772D02*
G03*
X106500Y83000I-2636J-2215D01*
G01*
D02*
G03*
X109136Y84228I0J3443D01*
G01*
X23626Y52787D02*
G03*
X22000Y49000I3595J-3787D01*
G01*
D02*
G03*
X20374Y52787I-5221J0D01*
G01*
X33944Y65842D02*
G03*
X36500Y64500I2555J1763D01*
G01*
D02*
G03*
X33944Y63159I0J-3105D01*
G01*
X33670Y76170D02*
G03*
X37703Y74500I4033J4033D01*
G01*
D02*
G03*
X33670Y72830I0J-5703D01*
G01*
X24362Y74500D02*
G03*
X26033Y70468I5703J0D01*
G01*
D02*
G03*
X22000Y72138I-4033J-4033D01*
G01*
X34000Y59500D02*
X37000Y56500D01*
Y45000D02*
Y56500D01*
Y45000D02*
X43500Y38500D01*
X36500Y64500D02*
X39000Y62000D01*
Y50000D02*
Y62000D01*
Y50000D02*
X42500Y46500D01*
X38000Y74500D02*
X41500Y71000D01*
Y56000D02*
Y71000D01*
Y56000D02*
X43047Y54453D01*
X42000Y30500D02*
X79500D01*
X38500Y34000D02*
X42000Y30500D01*
X38500Y34000D02*
Y40000D01*
X34000Y44500D02*
X38500Y40000D01*
X81000Y64000D02*
Y80500D01*
X55500Y38500D02*
X81000Y64000D01*
X74000Y71500D02*
Y84500D01*
X56953Y54453D02*
X74000Y71500D01*
X43047Y54453D02*
X56953D01*
X76500Y67500D02*
Y81000D01*
X55500Y46500D02*
X76500Y67500D01*
X122000Y42500D02*
X126500Y47000D01*
X108000Y42500D02*
X122000D01*
X103500Y47000D02*
X108000Y42500D01*
X143000Y41500D02*
Y92000D01*
X141500Y93500D02*
X143000Y92000D01*
X141500Y93500D02*
Y103000D01*
X106500Y83000D02*
X110598D01*
X99000Y90500D02*
X106500Y83000D01*
X86000Y90500D02*
X99000D01*
X103500Y77000D02*
Y81000D01*
X98000Y86500D02*
X103500Y81000D01*
X87000Y86500D02*
X98000D01*
X76500Y81000D02*
X86000Y90500D01*
X90000Y41000D02*
Y75000D01*
X79500Y30500D02*
X90000Y41000D01*
X32000Y74500D02*
X38000D01*
X32000Y64500D02*
X36500D01*
X22000Y74500D02*
X26500Y70000D01*
Y62500D02*
Y70000D01*
Y62500D02*
X29500Y59500D01*
X34000D01*
X74000Y84500D02*
X87500Y98000D01*
X22000Y49000D02*
Y54500D01*
Y49000D02*
X26500Y44500D01*
X34000D01*
X95000Y47000D02*
Y62500D01*
Y47000D02*
X103500Y38500D01*
X140000D01*
X143000Y41500D01*
X136000Y107000D02*
X141500Y112500D01*
X136000Y91500D02*
Y107000D01*
X126500Y82000D02*
X136000Y91500D01*
X126500Y47000D02*
Y82000D01*
X103500Y47000D02*
Y62500D01*
X90000Y75000D02*
X92000Y77000D01*
X96000D01*
X42500Y46500D02*
X55500D01*
X43500Y38500D02*
X55500D01*
X81000Y80500D02*
X87000Y86500D01*
X87500Y98000D02*
X119500D01*
D12*
X110428Y63572D02*
G03*
X111500Y66159I-2588J2588D01*
G01*
D02*
G03*
X112572Y63572I3659J0D01*
G01*
X119428Y52072D02*
G03*
X120500Y54659I-2588J2588D01*
G01*
D02*
G03*
X121572Y52072I3659J0D01*
G01*
X33392Y85892D02*
G03*
X36752Y84500I3360J3360D01*
G01*
D02*
G03*
X33392Y83108I0J-4752D01*
G01*
X106392Y134207D02*
G03*
X109752Y132815I3360J3360D01*
G01*
D02*
G03*
X106392Y131423I0J-4752D01*
G01*
Y124207D02*
G03*
X109752Y122815I3360J3360D01*
G01*
D02*
G03*
X106392Y121423I0J-4752D01*
G01*
X45452Y80856D02*
G03*
X43185Y81815I-2266J-2198D01*
G01*
D02*
G03*
X45452Y82774I0J3157D01*
G01*
X42807Y82193D02*
G03*
X46616Y81251I2685J2685D01*
G01*
X40500Y84500D02*
G03*
X46033Y83131I3901J3901D01*
G01*
X130500Y91000D02*
Y119000D01*
X116685Y132815D02*
X130500Y119000D01*
X105000Y132815D02*
X116685D01*
X43185Y81815D02*
X49000D01*
X40500Y84500D02*
X43185Y81815D01*
X32000Y84500D02*
X40500D01*
X31159Y54500D02*
X32000D01*
X26159Y59500D02*
X31159Y54500D01*
X19000Y59500D02*
X26159D01*
X15000Y55500D02*
X19000Y59500D01*
X15000Y48000D02*
Y55500D01*
X105000Y122815D02*
X116185D01*
X120500Y51000D02*
Y81000D01*
X130500Y91000D01*
X111500Y62500D02*
Y77000D01*
X116185Y122815D02*
X124500Y114500D01*
X111500Y77000D02*
X124500Y90000D01*
Y114500D01*
D13*
X71211Y91789D02*
G03*
X70000Y88865I2924J-2924D01*
G01*
D02*
G03*
X68789Y91789I-4135J0D01*
G01*
X74789Y96789D02*
G03*
X71865Y98000I-2924J-2924D01*
G01*
D02*
G03*
X74789Y99211I0J4135D01*
G01*
X52673Y75055D02*
G03*
X55361Y73941I2688J2688D01*
G01*
D02*
G03*
X52673Y72827I0J-3802D01*
G01*
Y67181D02*
G03*
X55361Y66067I2688J2688D01*
G01*
D02*
G03*
X52673Y64953I0J-3802D01*
G01*
X49000Y73941D02*
X58626D01*
X64000Y79315D01*
X49000Y66067D02*
X58252D01*
X70000Y77815D01*
Y93000D01*
X64000Y79315D02*
Y94000D01*
X68000Y98000D02*
X76000D01*
X64000Y94000D02*
X68000Y98000D01*
X40500Y22760D02*
X55000D01*
X127740D02*
X143701D01*
X43000Y15000D02*
X43114Y14886D01*
X58886D01*
D14*
X29500Y97728D02*
G03*
X37572Y101072I0J11415D01*
G01*
X156191Y148005D02*
G03*
X151822Y149815I-4369J-4369D01*
G01*
D02*
G03*
X156191Y151625I0J6178D01*
G01*
X173310Y17005D02*
G03*
X171500Y12637I4369J-4369D01*
G01*
D02*
G03*
X169691Y17005I-6178J0D01*
G01*
X150114Y39201D02*
G03*
X149000Y36513I2688J-2688D01*
G01*
D02*
G03*
X147886Y39201I-3802J0D01*
G01*
X73500Y137000D02*
Y142500D01*
X33500Y97000D02*
X73500Y137000D01*
X29500Y97000D02*
X33500D01*
X95000Y115000D02*
Y122815D01*
X87500Y107500D02*
X95000Y115000D01*
X64500Y107500D02*
X87500D01*
X49000Y92000D02*
X64500Y107500D01*
X49000Y81815D02*
Y92000D01*
X95000Y122815D02*
Y132815D01*
X80815Y149815D02*
X158000D01*
X73500Y142500D02*
X80815Y149815D01*
X169000Y10000D02*
X171500Y12500D01*
Y18815D01*
X149000Y14000D02*
Y40315D01*
Y14000D02*
X153000Y10000D01*
X169000D01*
D15*
X78528Y132528D02*
Y137028D01*
X37000Y91000D02*
X78528Y132528D01*
X28500Y91000D02*
X37000D01*
X135500Y142500D02*
X149000Y129000D01*
X84000Y142500D02*
X135500D01*
X78528Y137028D02*
X84000Y142500D01*
X149000Y60315D02*
Y129000D01*
X22000Y84500D02*
X28500Y91000D01*
D16*
X169024Y149815D02*
G03*
X167075Y154520I-6653J0D01*
G01*
X167075Y154520D02*
G03*
X171780Y152571I4705J4705D01*
G01*
X68500Y140500D02*
Y145500D01*
X37500Y109500D02*
X68500Y140500D01*
X27500Y109500D02*
X37500D01*
X163594Y158000D02*
X171780Y149815D01*
X149000Y158000D02*
X163594D01*
X79500Y156500D02*
X147500D01*
X149000Y158000D01*
X22000Y94500D02*
Y104000D01*
X27500Y109500D01*
X68500Y145500D02*
X79500Y156500D01*
D52*
X44500Y153000D02*
D03*
X62000D02*
D03*
X22000Y84500D02*
D03*
D53*
X44500Y143000D02*
D03*
X31500Y39000D02*
D03*
X85000Y122815D02*
D03*
Y132815D02*
D03*
X95000Y122815D02*
D03*
Y132815D02*
D03*
X105000Y122815D02*
D03*
X62000Y143000D02*
D03*
X32000Y84500D02*
D03*
X22000Y74500D02*
D03*
X32000D02*
D03*
X22000Y64500D02*
D03*
X32000D02*
D03*
X22000Y54500D02*
D03*
X32000D02*
D03*
D54*
X135614Y10949D02*
D03*
Y18823D02*
D03*
Y26697D02*
D03*
Y34571D02*
D03*
Y42445D02*
D03*
Y50319D02*
D03*
Y58193D02*
D03*
Y66067D02*
D03*
Y73941D02*
D03*
Y81815D02*
D03*
X49000Y10949D02*
D03*
Y18823D02*
D03*
Y26697D02*
D03*
Y34571D02*
D03*
Y42445D02*
D03*
Y50319D02*
D03*
Y58193D02*
D03*
Y66067D02*
D03*
Y73941D02*
D03*
D55*
Y81815D02*
D03*
D56*
X21500Y39000D02*
D03*
X105000Y132815D02*
D03*
D57*
X149000Y40315D02*
D03*
Y50315D02*
D03*
Y60315D02*
D03*
X174000D02*
D03*
Y40315D02*
D03*
D58*
X157720Y18815D02*
D03*
X171780Y149815D02*
D03*
X27279D02*
D03*
Y18815D02*
D03*
D59*
X171500D02*
D03*
X158000Y149815D02*
D03*
X13500D02*
D03*
Y18815D02*
D03*
D60*
X76000Y98000D02*
D03*
X70000Y93000D02*
D03*
X85500Y64000D02*
D03*
X120500Y51000D02*
D03*
X22000Y94500D02*
D03*
X110598Y83000D02*
D03*
X141500Y103000D02*
D03*
Y112500D02*
D03*
X95000Y62500D02*
D03*
X103500D02*
D03*
X29500Y137500D02*
D03*
X126000Y12000D02*
D03*
X96000Y77000D02*
D03*
X103500D02*
D03*
X61500Y35000D02*
D03*
X37000Y137500D02*
D03*
X29500Y97000D02*
D03*
X85500Y78500D02*
D03*
X111500Y62500D02*
D03*
X119500Y98000D02*
D03*
X162500Y95500D02*
D03*
X87500Y13000D02*
D03*
D66*
X147408Y22420D02*
D03*
M02*
