%FSLAX25Y25*%
%MOIN*%
G70*
G01*
G75*
G04 Layer_Physical_Order=1*
G04 Layer_Color=255*
%ADD10C,0.02756*%
%ADD11C,0.01181*%
%ADD12C,0.01969*%
%ADD13C,0.01575*%
%ADD14C,0.03543*%
%ADD15C,0.03937*%
%ADD16C,0.03150*%
%ADD17R,0.04331X0.06693*%
%ADD18R,0.07480X0.09449*%
%ADD19O,0.07874X0.01378*%
%ADD20R,0.06693X0.04331*%
%ADD21R,0.03740X0.08661*%
%ADD22R,0.21654X0.26378*%
%ADD23O,0.06890X0.02165*%
%ADD24O,0.02165X0.06890*%
%ADD25R,0.07087X0.06299*%
G04:AMPARAMS|DCode=26|XSize=49.5mil|YSize=30mil|CornerRadius=0mil|HoleSize=0mil|Usage=FLASHONLY|Rotation=315.000|XOffset=0mil|YOffset=0mil|HoleType=Round|Shape=Rectangle|*
%AMROTATEDRECTD26*
4,1,4,-0.02811,0.00689,-0.00689,0.02811,0.02811,-0.00689,0.00689,-0.02811,-0.02811,0.00689,0.0*
%
%ADD26ROTATEDRECTD26*%

G04:AMPARAMS|DCode=27|XSize=49.5mil|YSize=30mil|CornerRadius=0mil|HoleSize=0mil|Usage=FLASHONLY|Rotation=45.000|XOffset=0mil|YOffset=0mil|HoleType=Round|Shape=Rectangle|*
%AMROTATEDRECTD27*
4,1,4,-0.00689,-0.02811,-0.02811,-0.00689,0.00689,0.02811,0.02811,0.00689,-0.00689,-0.02811,0.0*
%
%ADD27ROTATEDRECTD27*%

G04:AMPARAMS|DCode=28|XSize=42.4mil|YSize=15.23mil|CornerRadius=0mil|HoleSize=0mil|Usage=FLASHONLY|Rotation=315.000|XOffset=0mil|YOffset=0mil|HoleType=Round|Shape=Rectangle|*
%AMROTATEDRECTD28*
4,1,4,-0.02038,0.00961,-0.00961,0.02038,0.02038,-0.00961,0.00961,-0.02038,-0.02038,0.00961,0.0*
%
%ADD28ROTATEDRECTD28*%

G04:AMPARAMS|DCode=29|XSize=65mil|YSize=27.71mil|CornerRadius=0mil|HoleSize=0mil|Usage=FLASHONLY|Rotation=315.000|XOffset=0mil|YOffset=0mil|HoleType=Round|Shape=Rectangle|*
%AMROTATEDRECTD29*
4,1,4,-0.03278,0.01318,-0.01318,0.03278,0.03278,-0.01318,0.01318,-0.03278,-0.03278,0.01318,0.0*
%
%ADD29ROTATEDRECTD29*%

G04:AMPARAMS|DCode=30|XSize=60.87mil|YSize=31.82mil|CornerRadius=0mil|HoleSize=0mil|Usage=FLASHONLY|Rotation=45.000|XOffset=0mil|YOffset=0mil|HoleType=Round|Shape=Rectangle|*
%AMROTATEDRECTD30*
4,1,4,-0.01027,-0.03277,-0.03277,-0.01027,0.01027,0.03277,0.03277,0.01027,-0.01027,-0.03277,0.0*
%
%ADD30ROTATEDRECTD30*%

G04:AMPARAMS|DCode=31|XSize=55mil|YSize=25mil|CornerRadius=0mil|HoleSize=0mil|Usage=FLASHONLY|Rotation=45.000|XOffset=0mil|YOffset=0mil|HoleType=Round|Shape=Rectangle|*
%AMROTATEDRECTD31*
4,1,4,-0.01061,-0.02828,-0.02828,-0.01061,0.01061,0.02828,0.02828,0.01061,-0.01061,-0.02828,0.0*
%
%ADD31ROTATEDRECTD31*%

%ADD32R,0.00500X0.01000*%
G04:AMPARAMS|DCode=33|XSize=65mil|YSize=30mil|CornerRadius=0mil|HoleSize=0mil|Usage=FLASHONLY|Rotation=311.618|XOffset=0mil|YOffset=0mil|HoleType=Round|Shape=Rectangle|*
%AMROTATEDRECTD33*
4,1,4,-0.03280,0.01433,-0.01037,0.03426,0.03280,-0.01433,0.01037,-0.03426,-0.03280,0.01433,0.0*
%
%ADD33ROTATEDRECTD33*%

%ADD34P,0.07071X4X360.0*%
G04:AMPARAMS|DCode=35|XSize=40.51mil|YSize=13.28mil|CornerRadius=0mil|HoleSize=0mil|Usage=FLASHONLY|Rotation=45.000|XOffset=0mil|YOffset=0mil|HoleType=Round|Shape=Rectangle|*
%AMROTATEDRECTD35*
4,1,4,-0.00963,-0.01902,-0.01902,-0.00963,0.00963,0.01902,0.01902,0.00963,-0.00963,-0.01902,0.0*
%
%ADD35ROTATEDRECTD35*%

G04:AMPARAMS|DCode=36|XSize=40mil|YSize=11.71mil|CornerRadius=0mil|HoleSize=0mil|Usage=FLASHONLY|Rotation=51.340|XOffset=0mil|YOffset=0mil|HoleType=Round|Shape=Rectangle|*
%AMROTATEDRECTD36*
4,1,4,-0.00792,-0.01928,-0.01707,-0.01196,0.00792,0.01928,0.01707,0.01196,-0.00792,-0.01928,0.0*
%
%ADD36ROTATEDRECTD36*%

G04:AMPARAMS|DCode=37|XSize=31.15mil|YSize=14.57mil|CornerRadius=0mil|HoleSize=0mil|Usage=FLASHONLY|Rotation=315.000|XOffset=0mil|YOffset=0mil|HoleType=Round|Shape=Rectangle|*
%AMROTATEDRECTD37*
4,1,4,-0.01617,0.00586,-0.00586,0.01617,0.01617,-0.00586,0.00586,-0.01617,-0.01617,0.00586,0.0*
%
%ADD37ROTATEDRECTD37*%

G04:AMPARAMS|DCode=38|XSize=35mil|YSize=15mil|CornerRadius=0mil|HoleSize=0mil|Usage=FLASHONLY|Rotation=45.000|XOffset=0mil|YOffset=0mil|HoleType=Round|Shape=Rectangle|*
%AMROTATEDRECTD38*
4,1,4,-0.00707,-0.01768,-0.01768,-0.00707,0.00707,0.01768,0.01768,0.00707,-0.00707,-0.01768,0.0*
%
%ADD38ROTATEDRECTD38*%

G04:AMPARAMS|DCode=39|XSize=35mil|YSize=15mil|CornerRadius=0mil|HoleSize=0mil|Usage=FLASHONLY|Rotation=315.000|XOffset=0mil|YOffset=0mil|HoleType=Round|Shape=Rectangle|*
%AMROTATEDRECTD39*
4,1,4,-0.01768,0.00707,-0.00707,0.01768,0.01768,-0.00707,0.00707,-0.01768,-0.01768,0.00707,0.0*
%
%ADD39ROTATEDRECTD39*%

G04:AMPARAMS|DCode=40|XSize=17.93mil|YSize=33.18mil|CornerRadius=0mil|HoleSize=0mil|Usage=FLASHONLY|Rotation=315.000|XOffset=0mil|YOffset=0mil|HoleType=Round|Shape=Rectangle|*
%AMROTATEDRECTD40*
4,1,4,-0.01807,-0.00539,0.00539,0.01807,0.01807,0.00539,-0.00539,-0.01807,-0.01807,-0.00539,0.0*
%
%ADD40ROTATEDRECTD40*%

G04:AMPARAMS|DCode=41|XSize=27.23mil|YSize=15mil|CornerRadius=0mil|HoleSize=0mil|Usage=FLASHONLY|Rotation=45.000|XOffset=0mil|YOffset=0mil|HoleType=Round|Shape=Rectangle|*
%AMROTATEDRECTD41*
4,1,4,-0.00432,-0.01493,-0.01493,-0.00432,0.00432,0.01493,0.01493,0.00432,-0.00432,-0.01493,0.0*
%
%ADD41ROTATEDRECTD41*%

G04:AMPARAMS|DCode=42|XSize=30.51mil|YSize=15mil|CornerRadius=0mil|HoleSize=0mil|Usage=FLASHONLY|Rotation=315.000|XOffset=0mil|YOffset=0mil|HoleType=Round|Shape=Rectangle|*
%AMROTATEDRECTD42*
4,1,4,-0.01609,0.00548,-0.00548,0.01609,0.01609,-0.00548,0.00548,-0.01609,-0.01609,0.00548,0.0*
%
%ADD42ROTATEDRECTD42*%

G04:AMPARAMS|DCode=43|XSize=15mil|YSize=10.61mil|CornerRadius=0mil|HoleSize=0mil|Usage=FLASHONLY|Rotation=315.000|XOffset=0mil|YOffset=0mil|HoleType=Round|Shape=Rectangle|*
%AMROTATEDRECTD43*
4,1,4,-0.00905,0.00155,-0.00155,0.00905,0.00905,-0.00155,0.00155,-0.00905,-0.00905,0.00155,0.0*
%
%ADD43ROTATEDRECTD43*%

G04:AMPARAMS|DCode=44|XSize=25mil|YSize=11.24mil|CornerRadius=0mil|HoleSize=0mil|Usage=FLASHONLY|Rotation=41.479|XOffset=0mil|YOffset=0mil|HoleType=Round|Shape=Rectangle|*
%AMROTATEDRECTD44*
4,1,4,-0.00564,-0.01249,-0.01309,-0.00407,0.00564,0.01249,0.01309,0.00407,-0.00564,-0.01249,0.0*
%
%ADD44ROTATEDRECTD44*%

G04:AMPARAMS|DCode=45|XSize=19.45mil|YSize=10mil|CornerRadius=0mil|HoleSize=0mil|Usage=FLASHONLY|Rotation=311.390|XOffset=0mil|YOffset=0mil|HoleType=Round|Shape=Rectangle|*
%AMROTATEDRECTD45*
4,1,4,-0.01018,0.00399,-0.00268,0.01060,0.01018,-0.00399,0.00268,-0.01060,-0.01018,0.00399,0.0*
%
%ADD45ROTATEDRECTD45*%

G04:AMPARAMS|DCode=46|XSize=23.54mil|YSize=10mil|CornerRadius=0mil|HoleSize=0mil|Usage=FLASHONLY|Rotation=45.000|XOffset=0mil|YOffset=0mil|HoleType=Round|Shape=Rectangle|*
%AMROTATEDRECTD46*
4,1,4,-0.00479,-0.01186,-0.01186,-0.00479,0.00479,0.01186,0.01186,0.00479,-0.00479,-0.01186,0.0*
%
%ADD46ROTATEDRECTD46*%

G04:AMPARAMS|DCode=47|XSize=49.5mil|YSize=17.93mil|CornerRadius=0mil|HoleSize=0mil|Usage=FLASHONLY|Rotation=45.000|XOffset=0mil|YOffset=0mil|HoleType=Round|Shape=Rectangle|*
%AMROTATEDRECTD47*
4,1,4,-0.01116,-0.02384,-0.02384,-0.01116,0.01116,0.02384,0.02384,0.01116,-0.01116,-0.02384,0.0*
%
%ADD47ROTATEDRECTD47*%

G04:AMPARAMS|DCode=48|XSize=71.37mil|YSize=59.39mil|CornerRadius=0mil|HoleSize=0mil|Usage=FLASHONLY|Rotation=330.602|XOffset=0mil|YOffset=0mil|HoleType=Round|Shape=Rectangle|*
%AMROTATEDRECTD48*
4,1,4,-0.04567,-0.00836,-0.01652,0.04339,0.04567,0.00836,0.01652,-0.04339,-0.04567,-0.00836,0.0*
%
%ADD48ROTATEDRECTD48*%

G04:AMPARAMS|DCode=49|XSize=106.12mil|YSize=43.14mil|CornerRadius=0mil|HoleSize=0mil|Usage=FLASHONLY|Rotation=315.000|XOffset=0mil|YOffset=0mil|HoleType=Round|Shape=Rectangle|*
%AMROTATEDRECTD49*
4,1,4,-0.05277,0.02227,-0.02227,0.05277,0.05277,-0.02227,0.02227,-0.05277,-0.05277,0.02227,0.0*
%
%ADD49ROTATEDRECTD49*%

G04:AMPARAMS|DCode=50|XSize=43.52mil|YSize=25.48mil|CornerRadius=0mil|HoleSize=0mil|Usage=FLASHONLY|Rotation=50.423|XOffset=0mil|YOffset=0mil|HoleType=Round|Shape=Rectangle|*
%AMROTATEDRECTD50*
4,1,4,-0.00405,-0.02489,-0.02368,-0.00866,0.00405,0.02489,0.02368,0.00866,-0.00405,-0.02489,0.0*
%
%ADD50ROTATEDRECTD50*%

%ADD51R,0.19500X0.06500*%
%ADD52R,0.05906X0.05906*%
%ADD53C,0.05906*%
%ADD54O,0.09843X0.04724*%
%ADD55R,0.09843X0.04724*%
%ADD56R,0.05906X0.05906*%
%ADD57C,0.06693*%
%ADD58C,0.08661*%
%ADD59R,0.08661X0.08661*%
%ADD60C,0.05000*%
D10*
X86707Y13793D02*
G03*
X87500Y15709I-1915J1915D01*
G01*
D02*
G03*
X88293Y13793I2709J0D01*
G01*
X37185Y134344D02*
G03*
X36207Y136707I-3341J0D01*
G01*
X60345Y33845D02*
G03*
X64798Y32000I4453J4453D01*
G01*
X62293Y35793D02*
G03*
X71451Y32000I9158J9158D01*
G01*
X62606Y34811D02*
G03*
X63500Y32000I3163J-541D01*
G01*
X60707Y35793D02*
G03*
X61500Y37709I-1915J1915D01*
G01*
D02*
G03*
X62293Y35793I2709J0D01*
G01*
X125207Y11207D02*
G03*
X123291Y12000I-1915J-1915D01*
G01*
D02*
G03*
X125207Y12793I0J2709D01*
G01*
X62376Y54443D02*
G03*
X61500Y52329I2114J-2114D01*
G01*
X11511Y20998D02*
G03*
X13500Y25500I-4102J4502D01*
G01*
D02*
G03*
X15489Y20998I6090J0D01*
G01*
X25337Y17149D02*
G03*
X30011Y15000I4674J4009D01*
G01*
X27429Y18943D02*
G03*
X36005Y15000I8576J7355D01*
G01*
X29521Y20737D02*
G03*
X41999Y15000I12478J10702D01*
G01*
X30164Y18182D02*
G03*
X31094Y15000I3372J-740D01*
G01*
X31094Y15000D02*
G03*
X27913Y15931I-2441J-2441D01*
G01*
X63113Y144114D02*
G03*
X65802Y143000I2688J2688D01*
G01*
D02*
G03*
X63113Y141886I0J-3802D01*
G01*
X83886Y133929D02*
G03*
X85000Y136617I-2688J2688D01*
G01*
D02*
G03*
X86114Y133929I3802J0D01*
G01*
Y131701D02*
G03*
X85000Y129013I2688J-2688D01*
G01*
D02*
G03*
X83886Y131701I-3802J0D01*
G01*
Y123928D02*
G03*
X85000Y126617I-2688J2688D01*
G01*
D02*
G03*
X86114Y123928I3802J0D01*
G01*
X85000Y121240D02*
G03*
X82312Y120127I0J-3802D01*
G01*
D02*
G03*
X83425Y122815I-2688J2688D01*
G01*
X37740Y22760D02*
X42342D01*
X32500Y28000D02*
X37740Y22760D01*
X16000Y28000D02*
X32500D01*
X13500Y25500D02*
X16000Y28000D01*
X13500Y18815D02*
Y25500D01*
X31095Y15000D02*
X42000D01*
X27279Y18815D02*
X31095Y15000D01*
X61500Y53500D02*
X63000Y55000D01*
X61500Y34000D02*
X63500Y32000D01*
X98315Y33815D02*
Y38815D01*
X96500Y32000D02*
X98315Y33815D01*
X70685Y110500D02*
Y116185D01*
X73000Y118500D01*
X80685D01*
X85000Y122815D01*
X62000Y143000D02*
X80000D01*
X85000Y138000D01*
Y132815D02*
Y138000D01*
X119315Y12000D02*
X126000D01*
X85000Y122815D02*
Y128000D01*
Y132815D01*
X61500Y34000D02*
Y35000D01*
Y53500D01*
X37185Y127815D02*
Y137315D01*
X63500Y32000D02*
X87500D01*
X96500D01*
X87500Y13000D02*
Y32000D01*
D11*
X88655Y14155D02*
G03*
X85466Y15476I-3189J-3189D01*
G01*
X87820Y13320D02*
G03*
X82614Y15476I-5206J-5206D01*
G01*
X86985Y12485D02*
G03*
X79763Y15476I-7222J-7222D01*
G01*
X86150Y11650D02*
G03*
X76912Y15476I-9238J-9238D01*
G01*
X27591Y97000D02*
G03*
X26240Y100260I-4610J0D01*
G01*
X26240Y100260D02*
G03*
X29500Y98909I3260J3260D01*
G01*
X96995Y80495D02*
G03*
X95547Y77000I3495J-3495D01*
G01*
X99011Y82511D02*
G03*
X96728Y77000I5511J-5511D01*
G01*
X101027Y84527D02*
G03*
X97909Y77000I7527J-7527D01*
G01*
X103500Y60590D02*
G03*
X100240Y59240I0J-4610D01*
G01*
X100240Y59240D02*
G03*
X101591Y62500I-3260J3260D01*
G01*
X95000Y60590D02*
G03*
X91740Y59240I0J-4610D01*
G01*
X91740Y59240D02*
G03*
X93090Y62500I-3260J3260D01*
G01*
X139591Y112500D02*
G03*
X138777Y114463I-2777J0D01*
G01*
X138960Y114280D02*
G03*
X141500Y113228I2540J2540D01*
G01*
X136944Y116297D02*
G03*
X141500Y114409I4556J4556D01*
G01*
X139591Y103000D02*
G03*
X138240Y106260I-4610J0D01*
G01*
X138240Y106260D02*
G03*
X141500Y104909I3260J3260D01*
G01*
X20650Y93150D02*
G03*
X17390Y94500I-3260J-3260D01*
G01*
D02*
G03*
X20650Y95850I0J4610D01*
G01*
X121647Y122803D02*
G03*
X122899Y119779I4277J0D01*
G01*
X122828Y122803D02*
G03*
X124916Y117762I7129J0D01*
G01*
X123965Y118713D02*
G03*
X120269Y120244I-3697J-3697D01*
G01*
X132209Y122803D02*
G03*
X133462Y119779I4277J0D01*
G01*
X133390Y122803D02*
G03*
X135478Y117762I7129J0D01*
G01*
X134528Y118713D02*
G03*
X130831Y120244I-3697J-3697D01*
G01*
X104647Y91849D02*
G03*
X104299Y91009I840J-840D01*
G01*
D02*
G03*
X103951Y91849I-1188J0D01*
G01*
X88203Y97269D02*
G03*
X88551Y98109I-840J840D01*
G01*
D02*
G03*
X88899Y97269I1188J0D01*
G01*
X85054D02*
G03*
X85402Y98109I-840J840D01*
G01*
D02*
G03*
X85750Y97269I1188J0D01*
G01*
X73046Y84565D02*
G03*
X72206Y84913I-840J-840D01*
G01*
D02*
G03*
X73046Y85261I0J1188D01*
G01*
Y81416D02*
G03*
X72206Y81764I-840J-840D01*
G01*
D02*
G03*
X73046Y82112I0J1188D01*
G01*
Y78266D02*
G03*
X72206Y78614I-840J-840D01*
G01*
D02*
G03*
X73046Y78962I0J1188D01*
G01*
Y75117D02*
G03*
X72206Y75465I-840J-840D01*
G01*
D02*
G03*
X73046Y75813I0J1188D01*
G01*
X73394Y65524D02*
G03*
X71055Y64555I0J-3308D01*
G01*
X73394Y62374D02*
G03*
X70799Y61299I0J-3669D01*
G01*
X88203Y52781D02*
G03*
X88551Y53621I-840J840D01*
G01*
D02*
G03*
X88899Y52781I1188J0D01*
G01*
X91353D02*
G03*
X91701Y53621I-840J840D01*
G01*
D02*
G03*
X92049Y52781I1188J0D01*
G01*
X117534Y71967D02*
G03*
X116694Y72315I-840J-840D01*
G01*
D02*
G03*
X117534Y72663I0J1188D01*
G01*
X122954Y85261D02*
G03*
X123794Y84913I840J840D01*
G01*
D02*
G03*
X122954Y84565I0J-1188D01*
G01*
Y88411D02*
G03*
X123794Y88063I840J840D01*
G01*
D02*
G03*
X122954Y87715I0J-1188D01*
G01*
X46937Y101378D02*
G03*
X44665Y102319I-2272J-2272D01*
G01*
X16323Y117329D02*
G03*
X15712Y120642I-2710J1213D01*
G01*
X15245Y117812D02*
G03*
X14500Y121854I-3306J1481D01*
G01*
X18816Y126263D02*
G03*
X17685Y124662I567J-1601D01*
G01*
X19211Y125150D02*
G03*
X17685Y122990I765J-2159D01*
G01*
X30428Y125520D02*
G03*
X29000Y122072I3449J-3449D01*
G01*
Y123592D02*
G03*
X28201Y125520I-2727J0D01*
G01*
X48711Y125339D02*
G03*
X47815Y123630I1182J-1709D01*
G01*
D02*
G03*
X46919Y125339I-2077J0D01*
G01*
X37185Y125059D02*
G03*
X34409Y123909I0J-3926D01*
G01*
X34533Y124033D02*
G03*
X35610Y126634I-2601J2601D01*
G01*
X102165Y28370D02*
G03*
X104222Y29222I0J2908D01*
G01*
X105969Y13031D02*
G03*
X109001Y12460I1934J1934D01*
G01*
X104746Y14254D02*
G03*
X108527Y13542I2411J2411D01*
G01*
X103524Y15476D02*
G03*
X108053Y14623I2889J2889D01*
G01*
X107397Y12275D02*
G03*
X106000Y13000I-1397J-983D01*
G01*
D02*
G03*
X107242Y13812I0J1356D01*
G01*
X111434Y24544D02*
G03*
X109500Y25500I-1933J-1477D01*
G01*
D02*
G03*
X111434Y26456I0J2433D01*
G01*
X124211Y23024D02*
G03*
X123315Y21315I1182J-1709D01*
G01*
D02*
G03*
X122419Y23024I-2077J0D01*
G01*
X32000Y82138D02*
G03*
X27968Y80467I0J-5703D01*
G01*
D02*
G03*
X29638Y84500I-4033J4033D01*
G01*
X33170Y40670D02*
G03*
X37203Y39000I4033J4033D01*
G01*
D02*
G03*
X33170Y37330I0J-5703D01*
G01*
X21500Y41362D02*
G03*
X25532Y43033I0J5703D01*
G01*
D02*
G03*
X23862Y39000I4033J-4033D01*
G01*
X52812Y12201D02*
G03*
X55836Y10949I3024J3024D01*
G01*
D02*
G03*
X52812Y9696I0J-4277D01*
G01*
X46170Y144670D02*
G03*
X50203Y143000I4033J4033D01*
G01*
D02*
G03*
X46170Y141330I0J-5703D01*
G01*
Y154670D02*
G03*
X50203Y153000I4033J4033D01*
G01*
D02*
G03*
X46170Y151330I0J-5703D01*
G01*
X14000Y76500D02*
X17000Y79500D01*
X14000Y35500D02*
Y76500D01*
Y35500D02*
X17000Y32500D01*
X7500Y105000D02*
X10035Y107535D01*
X7500Y97500D02*
Y105000D01*
Y97500D02*
X10500Y94500D01*
X22000D01*
X10035Y107535D02*
X18583D01*
X37185Y126685D02*
Y127815D01*
X32000Y121500D02*
X37185Y126685D01*
X32000Y112815D02*
Y121500D01*
X36315Y121815D02*
X46000D01*
X34500Y120000D02*
X36315Y121815D01*
X34500Y114500D02*
Y120000D01*
X36346Y112654D02*
X41417D01*
X34500Y114500D02*
X36346Y112654D01*
X55500Y119000D02*
Y149500D01*
X52000Y153000D02*
X55500Y149500D01*
X44500Y153000D02*
X52000D01*
X50500Y143000D02*
X53000Y140500D01*
Y118500D02*
Y140500D01*
Y118500D02*
X55500Y116000D01*
Y119000D02*
X58500Y116000D01*
X83216Y102000D02*
X85402Y99814D01*
X64000Y102000D02*
X83216D01*
X55500Y110500D02*
X64000Y102000D01*
X55500Y110500D02*
Y116000D01*
X65500Y104500D02*
X84500D01*
X58500Y111500D02*
X65500Y104500D01*
X58500Y111500D02*
Y116000D01*
X115000Y89000D02*
X118500Y92500D01*
X121000D01*
X17685Y123130D02*
Y127815D01*
X46000Y121815D02*
X47815Y123630D01*
Y127815D01*
X32000Y112815D02*
X34721Y110094D01*
X41417D01*
X17685Y123130D02*
X19500Y121315D01*
X13102Y115213D02*
X18583D01*
X6500Y113815D02*
Y117815D01*
Y113815D02*
X10221Y110094D01*
X18583D01*
X41417Y117772D02*
X49043D01*
X41417Y115213D02*
X48102D01*
X41417Y102417D02*
X45898D01*
X71402Y84913D02*
X75756D01*
X70551Y81764D02*
X75756D01*
X45898Y102417D02*
X69701Y78614D01*
X75756D01*
X41417Y99858D02*
X44457D01*
X68850Y75465D01*
X75756D01*
X34280Y107535D02*
X41417D01*
X33839Y104976D02*
X41417D01*
X18583Y112654D02*
X23161D01*
X25000Y110815D01*
X11000Y117315D02*
X13102Y115213D01*
X11000Y117315D02*
Y122815D01*
X29000Y112815D02*
X34280Y107535D01*
X29000Y112815D02*
Y127130D01*
X26500Y112315D02*
X33839Y104976D01*
X19500Y121315D02*
X23500D01*
X26500Y118315D01*
Y112315D02*
Y118315D01*
X14500Y121854D02*
Y134315D01*
Y121854D02*
X18583Y117772D01*
X69976Y15476D02*
X76083D01*
X65449Y10949D02*
X69976Y15476D01*
X49000Y10949D02*
X65449D01*
X42342Y22760D02*
X57760D01*
X60713Y25713D01*
X76083D01*
X64095Y20595D02*
X76083D01*
X58500Y15000D02*
X64095Y20595D01*
X42000Y15000D02*
X58500D01*
X76083Y23154D02*
X87500D01*
Y20595D02*
X98917D01*
X76083Y15476D02*
X87500D01*
X98917Y28272D02*
X103272D01*
X108468Y33468D01*
X119468D01*
X126500Y40500D01*
X121000Y31500D02*
X129000Y39500D01*
X123315Y21315D02*
Y25500D01*
X109500D02*
X112685D01*
X107153Y23154D02*
X109500Y25500D01*
X98917Y23154D02*
X107153D01*
X98917Y20595D02*
X122594D01*
X123315Y21315D01*
X98917Y18035D02*
X105465D01*
X105500Y18000D01*
X130000Y15000D02*
X142500D01*
X120244Y84913D02*
X124587D01*
X126500Y83000D01*
Y40500D02*
Y83000D01*
X120244Y88063D02*
X124937D01*
X129000Y84000D01*
Y39500D02*
Y84000D01*
X56500Y58000D02*
X57500Y59000D01*
X56067Y61933D02*
X57000Y61000D01*
X60728Y28272D02*
X76083D01*
X58500Y30500D02*
X60728Y28272D01*
X36000Y30500D02*
X58500D01*
X57500Y59000D02*
X68500D01*
X72366Y62866D01*
X75756D01*
X57000Y61000D02*
X67500D01*
X72516Y66016D01*
X75756D01*
X85402Y94559D02*
Y99814D01*
X88551Y94559D02*
Y100449D01*
X84500Y104500D02*
X88551Y100449D01*
X44500Y143000D02*
X50500D01*
Y101815D02*
X70551Y81764D01*
X50500Y101815D02*
Y112815D01*
X48102Y115213D02*
X50500Y112815D01*
X53000Y103315D02*
X71402Y84913D01*
X53000Y103315D02*
Y113815D01*
X49043Y117772D02*
X53000Y113815D01*
X130438Y122803D02*
X140741Y112500D01*
X141500D01*
X119875Y122803D02*
X125678Y117000D01*
X133000D01*
X137000Y113000D01*
Y107500D02*
Y113000D01*
Y107500D02*
X141500Y103000D01*
X88551Y50071D02*
Y56051D01*
X95000Y62500D01*
X91701Y50071D02*
Y55201D01*
X94000Y57500D01*
X98500D01*
X103500Y62500D01*
X14500Y134315D02*
X22685Y142500D01*
X30000D01*
X35000Y147500D01*
X28315Y127815D02*
X29000Y127130D01*
X98917Y15476D02*
X103524D01*
X106000Y13000D01*
X108500D01*
X104299Y87799D02*
Y94559D01*
X96000Y79500D02*
X104299Y87799D01*
X96000Y77000D02*
Y79500D01*
X25000Y104976D02*
Y110815D01*
X38000Y92000D02*
Y95000D01*
X18583Y104976D02*
X28024D01*
X38000Y95000D01*
X24083Y102417D02*
X29500Y97000D01*
X18583Y102417D02*
X24083D01*
X115000Y81000D02*
Y89000D01*
X112500Y78500D02*
X115000Y81000D01*
X112500Y75000D02*
Y78500D01*
Y75000D02*
X115185Y72315D01*
X120244D01*
X98917Y25713D02*
X103713D01*
X109500Y31500D01*
X121000D01*
X17000Y32500D02*
X34000D01*
X36000Y30500D01*
X31500Y39000D02*
X42500D01*
X43000Y38500D01*
X55000D01*
X56500Y40000D01*
Y58000D01*
X41933Y61933D02*
X56067D01*
X34500Y46500D02*
X38500Y50500D01*
Y58500D01*
X41933Y61933D01*
X21500Y39000D02*
X29000Y46500D01*
X34500D01*
X17000Y79500D02*
X27000D01*
X32000Y84500D01*
X49000Y158500D02*
X50673Y156827D01*
X56500D01*
X35000Y147500D02*
Y156000D01*
X37500Y158500D01*
X49000D01*
D12*
X119500Y96484D02*
G03*
X116912Y95412I0J-3659D01*
G01*
X116912Y95412D02*
G03*
X117984Y98000I-2588J2588D01*
G01*
X126000Y13516D02*
G03*
X127734Y14234I0J2452D01*
G01*
X128500Y15000D02*
G03*
X127506Y12167I2450J-2450D01*
G01*
X30572Y136428D02*
G03*
X29315Y133394I3034J-3034D01*
G01*
Y134287D02*
G03*
X28428Y136428I-3028J0D01*
G01*
X109527Y84072D02*
G03*
X110598Y86659I-2588J2588D01*
G01*
D02*
G03*
X111670Y84072I3659J0D01*
G01*
X119428Y52072D02*
G03*
X120244Y54041I-1970J1970D01*
G01*
Y55277D02*
G03*
X121572Y52072I4533J0D01*
G01*
X28480Y129831D02*
G03*
X29315Y131848I-2016J2016D01*
G01*
D02*
G03*
X30150Y129831I2851J0D01*
G01*
X154897Y90905D02*
G03*
X151047Y92500I-3850J-3850D01*
G01*
X86850Y37980D02*
G03*
X85294Y38624I-1556J-1556D01*
G01*
X84374D02*
G03*
X86850Y39650I0J3502D01*
G01*
X82150Y39460D02*
G03*
X84166Y38624I2016J2016D01*
G01*
D02*
G03*
X82150Y37789I0J-2851D01*
G01*
X118480Y14016D02*
G03*
X119315Y16033I-2016J2016D01*
G01*
D02*
G03*
X120150Y14016I2851J0D01*
G01*
X22000Y66469D02*
G03*
X23653Y67153I0J2338D01*
G01*
X26000Y69500D02*
G03*
X23968Y64521I4905J-4905D01*
G01*
X121000Y92500D02*
X155524D01*
X81315Y38624D02*
X87494D01*
X125500Y18000D02*
X128500Y15000D01*
X130000D01*
X120244Y51256D02*
Y56567D01*
Y51256D02*
X120500Y51000D01*
X110598Y83000D02*
Y94559D01*
X113748D02*
X113807Y94500D01*
X29315Y127815D02*
Y137500D01*
X105500Y18000D02*
X119500D01*
X125500D01*
X119315Y12000D02*
Y17815D01*
X119500Y18000D01*
X126000Y12500D02*
X128500Y15000D01*
X126000Y12000D02*
Y12500D01*
X22000Y64500D02*
Y65500D01*
X26000Y69500D01*
X36000D01*
X38000Y71500D01*
Y92000D01*
X113748Y94559D02*
X116059D01*
X119500Y98000D01*
D13*
X111500Y64213D02*
G03*
X114424Y65424I0J4135D01*
G01*
D02*
G03*
X113213Y62500I2924J-2924D01*
G01*
X85500Y80213D02*
G03*
X88424Y81424I0J4135D01*
G01*
D02*
G03*
X87213Y78500I2924J-2924D01*
G01*
X102289Y78211D02*
G03*
X103500Y81135I-2924J2924D01*
G01*
D02*
G03*
X104711Y78211I4135J0D01*
G01*
X84629Y65475D02*
G03*
X85500Y67000I-900J1525D01*
G01*
D02*
G03*
X86371Y65475I1771J0D01*
G01*
X85378Y64065D02*
G03*
X84840Y67660I-2699J1434D01*
G01*
X83987Y64803D02*
G03*
X83335Y69165I-3275J1740D01*
G01*
X71211Y94211D02*
G03*
X74135Y93000I2924J2924D01*
G01*
D02*
G03*
X71211Y91789I0J-4135D01*
G01*
X77713Y98000D02*
G03*
X78924Y95076I4135J0D01*
G01*
D02*
G03*
X76000Y96287I-2924J-2924D01*
G01*
X62026Y66604D02*
G03*
X62685Y68196I-1592J1592D01*
G01*
Y69717D02*
G03*
X63974Y66604I4402J0D01*
G01*
X138244Y122803D02*
G03*
X136295Y127508I-6653J0D01*
G01*
X137246Y126557D02*
G03*
X140606Y125165I3360J3360D01*
G01*
X96650Y89650D02*
G03*
X97705Y92197I-2547J2547D01*
G01*
X171599Y110318D02*
G03*
X169000Y104044I6274J-6274D01*
G01*
Y106036D02*
G03*
X163441Y115529I-10885J0D01*
G01*
X169000Y103346D02*
G03*
X162670Y114155I-12394J0D01*
G01*
X169000Y100657D02*
G03*
X161900Y112782I-13902J0D01*
G01*
X169000Y97968D02*
G03*
X161129Y111408I-15411J0D01*
G01*
X169000Y95279D02*
G03*
X160359Y110035I-16919J0D01*
G01*
X169000Y92590D02*
G03*
X159588Y108662I-18428J0D01*
G01*
X149833Y84011D02*
G03*
X146932Y82933I-272J-3707D01*
G01*
X149718Y82441D02*
G03*
X144500Y80500I-490J-6668D01*
G01*
X153156Y74159D02*
G03*
X154747Y73500I1592J1592D01*
G01*
X156268D02*
G03*
X153156Y72211I0J-4402D01*
G01*
X166319Y72122D02*
G03*
X163422Y70922I0J-4097D01*
G01*
X164192Y71692D02*
G03*
X164941Y73500I-1808J1808D01*
G01*
X99289Y39789D02*
G03*
X101642Y38815I2352J2352D01*
G01*
D02*
G03*
X99289Y37841I0J-3327D01*
G01*
X97341Y40970D02*
G03*
X98000Y42562I-1592J1592D01*
G01*
Y44083D02*
G03*
X99289Y40970I4402J0D01*
G01*
X86815Y41065D02*
G03*
X87494Y42494I-1164J1430D01*
G01*
Y42494D02*
G03*
X88284Y41237I1396J0D01*
G01*
X87983Y42983D02*
G03*
X87511Y39905I1860J-1860D01*
G01*
X89500Y44500D02*
G03*
X88907Y40633I2337J-2337D01*
G01*
X69711Y40780D02*
G03*
X70685Y43132I-2352J2352D01*
G01*
D02*
G03*
X71659Y40780I3327J0D01*
G01*
X114510Y41115D02*
G03*
X115315Y42685I-1130J1570D01*
G01*
D02*
G03*
X116120Y41115I1935J0D01*
G01*
X115489Y39905D02*
G03*
X115017Y42983I-2333J1217D01*
G01*
X114093Y40633D02*
G03*
X113500Y44500I-2930J1529D01*
G01*
X103711Y37841D02*
G03*
X101358Y38815I-2352J-2352D01*
G01*
D02*
G03*
X103711Y39789I0J3327D01*
G01*
X111118Y106845D02*
G03*
X109858Y104859I937J-1987D01*
G01*
D02*
G03*
X108599Y106845I-2197J0D01*
G01*
X89701Y107853D02*
G03*
X85642Y110000I-4059J-2765D01*
G01*
X86182D02*
G03*
X90054Y111604I0J5475D01*
G01*
X93116Y108541D02*
G03*
X91701Y105124I3417J-3417D01*
G01*
X94230Y107428D02*
G03*
X91701Y101323I6105J-6105D01*
G01*
Y103452D02*
G03*
X90054Y107428I-5623J0D01*
G01*
X131789Y108344D02*
G03*
X130815Y105992I2352J-2352D01*
G01*
D02*
G03*
X129841Y108344I-3327J0D01*
G01*
X52673Y82929D02*
G03*
X55361Y81815I2688J2688D01*
G01*
D02*
G03*
X52673Y80701I0J-3802D01*
G01*
X169000Y92000D02*
Y115279D01*
X166500Y89500D02*
X169000Y92000D01*
X163000Y89500D02*
X166500D01*
X147815Y83815D02*
X151000D01*
X144500Y80500D02*
X147815Y83815D01*
X144500Y69500D02*
Y80500D01*
X147500Y66500D02*
X159000D01*
X144500Y69500D02*
X147500Y66500D01*
X120244Y88063D02*
X120307Y88000D01*
X98315Y38815D02*
X104685D01*
X105315D01*
X98000Y39130D02*
Y50071D01*
Y39130D02*
X98315Y38815D01*
X115315D02*
Y42685D01*
X101150Y45350D02*
Y50071D01*
Y45350D02*
X102000Y44500D01*
X113500D01*
X115315Y42685D01*
X94850Y45350D02*
Y50071D01*
X94000Y44500D02*
X94850Y45350D01*
X89500Y44500D02*
X94000D01*
X87494Y42494D02*
X89500Y44500D01*
X87494Y38624D02*
Y42494D01*
X85642Y110000D02*
X90000D01*
X91701Y108299D01*
Y94559D02*
Y108299D01*
X75756Y88063D02*
Y91744D01*
X74500Y93000D02*
X75756Y91744D01*
X70000Y93000D02*
X74500D01*
X79441Y94559D02*
X82252D01*
X76000Y98000D02*
X79441Y94559D01*
X75756Y69165D02*
X83335D01*
X85500Y67000D01*
Y64000D02*
Y67000D01*
X75756Y72315D02*
X90000D01*
X70685Y38624D02*
Y45185D01*
X83000Y57500D01*
X108000Y103000D02*
X109858Y104858D01*
Y110500D01*
X94850Y94559D02*
Y100350D01*
X97500Y103000D01*
X108000D01*
X98000Y94559D02*
Y99000D01*
X130815Y93500D02*
Y110500D01*
X130438Y122063D02*
Y122803D01*
X131197D01*
X83000Y57500D02*
X86000D01*
X90000Y61500D01*
X103500Y77000D02*
Y82500D01*
X107449Y86449D01*
Y94559D01*
X101150Y89650D02*
Y94559D01*
X90000Y78500D02*
X101150Y89650D01*
X90000Y61500D02*
Y72315D01*
Y78500D01*
X151000Y73500D02*
X156500D01*
X161000Y116279D02*
X164500Y119780D01*
X166000Y73500D02*
X167500D01*
X159000Y66500D02*
X166000Y73500D01*
X85000Y128000D02*
X135803D01*
X141000Y122803D01*
X98000Y91000D02*
Y94559D01*
X85500Y78500D02*
X98000Y91000D01*
X115016Y66016D02*
X120244D01*
X111500Y62500D02*
X115016Y66016D01*
X90000Y72315D02*
X99685D01*
X102835Y69165D01*
X120244D01*
X98000Y99000D02*
X99500Y100500D01*
X110000D01*
X113000Y103500D01*
X130815D01*
X164500Y119780D02*
X169000Y115279D01*
X156500Y73500D02*
X159500Y76500D01*
Y86000D01*
X163000Y89500D01*
X49000Y81815D02*
X57185D01*
X62685Y72315D02*
X75756D01*
X62685Y65945D02*
Y72315D01*
Y65945D02*
X63000Y65630D01*
X62685Y72315D02*
Y76315D01*
X57185Y81815D02*
X62685Y76315D01*
D14*
X118507Y154352D02*
G03*
X112533Y156827I-5974J-5974D01*
G01*
X127217D02*
G03*
X121243Y154352I0J-8448D01*
G01*
X120849Y143329D02*
G03*
X119875Y140977I2352J-2352D01*
G01*
D02*
G03*
X118901Y143329I-3327J0D01*
G01*
X129069Y154352D02*
G03*
X123096Y156827I-5974J-5974D01*
G01*
X137779D02*
G03*
X131806Y154352I0J-8448D01*
G01*
X131412Y143329D02*
G03*
X130438Y140977I2352J-2352D01*
G01*
D02*
G03*
X129463Y143329I-3327J0D01*
G01*
X139632Y154352D02*
G03*
X133658Y156827I-5974J-5974D01*
G01*
X146988D02*
G03*
X142515Y154525I0J-5498D01*
G01*
X141974Y143329D02*
G03*
X141000Y140977I2352J-2352D01*
G01*
D02*
G03*
X140026Y143329I-3327J0D01*
G01*
X118901Y134801D02*
G03*
X119875Y137153I-2352J2352D01*
G01*
D02*
G03*
X120849Y134801I3327J0D01*
G01*
X129463D02*
G03*
X130438Y137153I-2352J2352D01*
G01*
D02*
G03*
X131412Y134801I3327J0D01*
G01*
X140026D02*
G03*
X141000Y137153I-2352J2352D01*
G01*
D02*
G03*
X141974Y134801I3327J0D01*
G01*
X142368Y123777D02*
G03*
X144720Y122803I2352J2352D01*
G01*
D02*
G03*
X142368Y121829I0J-3327D01*
G01*
X148500Y120500D02*
G03*
X142005Y121568I-3992J-3992D01*
G01*
X161566Y130708D02*
G03*
X164500Y134815I-1406J4106D01*
G01*
D02*
G03*
X167434Y130708I4340J0D01*
G01*
X155593Y96522D02*
G03*
X158061Y95500I2468J2468D01*
G01*
X153098Y85913D02*
G03*
X155425Y91531I-5619J5619D01*
G01*
X153688Y86503D02*
G03*
X152575Y83815I2688J-2688D01*
G01*
X150114Y51429D02*
G03*
X152802Y50315I2688J2688D01*
G01*
D02*
G03*
X150114Y49201I0J-3802D01*
G01*
X64352Y153221D02*
G03*
X60392Y156827I-3960J-372D01*
G01*
X60824Y152890D02*
G03*
X56500Y156827I-4324J-406D01*
G01*
X65536D02*
G03*
X60330Y154670I0J-7362D01*
G01*
X74090Y156827D02*
G03*
X62835Y152165I0J-15917D01*
G01*
X164874Y42874D02*
Y63374D01*
X149500Y27500D02*
X164874Y42874D01*
X149500Y20000D02*
Y27500D01*
X154000Y138815D02*
X160500D01*
X149500Y143315D02*
X154000Y138815D01*
X149500Y143315D02*
Y154315D01*
X160500Y138815D02*
X164500Y134815D01*
Y119780D02*
Y134815D01*
X173476Y84339D02*
X173685Y84130D01*
X173476Y84339D02*
Y93992D01*
X167500Y84130D02*
X173685D01*
X146988Y156827D02*
X149500Y154315D01*
X119875Y133827D02*
Y144303D01*
X130438Y133827D02*
Y144303D01*
X141000Y133827D02*
Y144303D01*
X142500Y15000D02*
X144500D01*
X164874Y63374D02*
X167815Y66315D01*
X171315D01*
X95000Y132815D02*
Y156827D01*
X141000Y122803D02*
X146197D01*
X145008Y123992D02*
X148500Y120500D01*
Y93500D02*
Y120500D01*
X151000Y83815D02*
X155524Y88339D01*
X171315Y66315D02*
X175500Y70500D01*
Y82315D01*
X173685Y84130D02*
X175500Y82315D01*
X155500Y96000D02*
X156000Y95500D01*
X162500D01*
X149000Y50315D02*
X164874D01*
X144500Y15000D02*
X149500Y20000D01*
X56500Y156827D02*
X146988D01*
X155524Y88339D02*
Y92500D01*
D15*
X111111Y111753D02*
G03*
X114135Y110500I3024J3024D01*
G01*
D02*
G03*
X111111Y109247I0J-4277D01*
G01*
X90889D02*
G03*
X87865Y110500I-3024J-3024D01*
G01*
D02*
G03*
X90889Y111753I0J4277D01*
G01*
X81315Y110500D02*
X92142D01*
X109858D02*
X120185D01*
D16*
X15449Y147866D02*
G03*
X13500Y143162I4705J-4705D01*
G01*
D02*
G03*
X11551Y147866I-6653J0D01*
G01*
X25331Y151764D02*
G03*
X27279Y156468I-4705J4705D01*
G01*
D02*
G03*
X29228Y151764I6653J0D01*
G01*
X13500Y141315D02*
Y149815D01*
X11000Y138815D02*
X13500Y141315D01*
X25000Y158815D02*
X27279Y156535D01*
Y149815D02*
Y156535D01*
X11000Y122815D02*
Y138815D01*
X6500Y117815D02*
Y156500D01*
X8815Y158815D01*
X25000D01*
D17*
X81315Y110500D02*
D03*
X70685D02*
D03*
X120185D02*
D03*
X130815D02*
D03*
X123315Y25500D02*
D03*
X112685D02*
D03*
X119315Y12000D02*
D03*
X108685D02*
D03*
X104685Y38815D02*
D03*
X115315D02*
D03*
X70685Y38624D02*
D03*
X81315D02*
D03*
X87685Y38815D02*
D03*
X98315D02*
D03*
X37185Y127815D02*
D03*
X47815D02*
D03*
X29315D02*
D03*
X18685D02*
D03*
D18*
X92142Y110500D02*
D03*
X109858D02*
D03*
D19*
X76083Y28272D02*
D03*
Y25713D02*
D03*
Y23154D02*
D03*
Y20595D02*
D03*
Y18035D02*
D03*
Y15476D02*
D03*
Y12917D02*
D03*
Y10358D02*
D03*
X98917Y28272D02*
D03*
Y25713D02*
D03*
Y23154D02*
D03*
Y20595D02*
D03*
Y18035D02*
D03*
Y15476D02*
D03*
Y12917D02*
D03*
Y10358D02*
D03*
X18583Y117772D02*
D03*
Y115213D02*
D03*
Y112654D02*
D03*
Y110094D02*
D03*
Y107535D02*
D03*
Y104976D02*
D03*
Y102417D02*
D03*
Y99858D02*
D03*
X41417Y117772D02*
D03*
Y115213D02*
D03*
Y112654D02*
D03*
Y110094D02*
D03*
Y107535D02*
D03*
Y104976D02*
D03*
Y102417D02*
D03*
Y99858D02*
D03*
D20*
X167500Y84130D02*
D03*
Y73500D02*
D03*
X151000Y73185D02*
D03*
Y83815D02*
D03*
X63000Y65630D02*
D03*
Y55000D02*
D03*
D21*
X155524Y93992D02*
D03*
X173476D02*
D03*
D22*
X164500Y119780D02*
D03*
D23*
X120244Y88063D02*
D03*
Y84913D02*
D03*
Y81764D02*
D03*
Y78614D02*
D03*
Y75465D02*
D03*
Y72315D02*
D03*
Y69165D02*
D03*
Y66016D02*
D03*
Y62866D02*
D03*
Y59716D02*
D03*
Y56567D02*
D03*
X75756D02*
D03*
Y59716D02*
D03*
Y62866D02*
D03*
Y66016D02*
D03*
Y69165D02*
D03*
Y72315D02*
D03*
Y75465D02*
D03*
Y78614D02*
D03*
Y81764D02*
D03*
Y84913D02*
D03*
Y88063D02*
D03*
D24*
X113748Y50071D02*
D03*
X110598D02*
D03*
X107449D02*
D03*
X104299D02*
D03*
X101150D02*
D03*
X98000D02*
D03*
X94850D02*
D03*
X91701D02*
D03*
X88551D02*
D03*
X85402D02*
D03*
X82252D02*
D03*
Y94559D02*
D03*
X85402D02*
D03*
X88551D02*
D03*
X91701D02*
D03*
X94850D02*
D03*
X98000D02*
D03*
X101150D02*
D03*
X104299D02*
D03*
X107449D02*
D03*
X110598D02*
D03*
X113748D02*
D03*
D25*
X141000Y122803D02*
D03*
Y133827D02*
D03*
X130438Y122803D02*
D03*
Y133827D02*
D03*
X119875Y122803D02*
D03*
Y133827D02*
D03*
X141000Y144303D02*
D03*
Y155327D02*
D03*
X130438Y144303D02*
D03*
Y155327D02*
D03*
X119875Y144303D02*
D03*
Y155327D02*
D03*
D26*
X85811Y30311D02*
D03*
D27*
X89125Y30375D02*
D03*
D28*
X86211Y21866D02*
D03*
D29*
X92422Y154161D02*
D03*
D30*
X97527Y154277D02*
D03*
D31*
X162939Y52172D02*
D03*
D32*
X163250Y48500D02*
D03*
D33*
X163463Y47926D02*
D03*
D34*
X90000Y72500D02*
D03*
D35*
X85978Y24540D02*
D03*
D36*
X86208Y17072D02*
D03*
D37*
X89367Y21664D02*
D03*
D38*
X89232Y19293D02*
D03*
D39*
X63732Y73707D02*
D03*
D40*
X63789Y71057D02*
D03*
D41*
X129725Y104665D02*
D03*
D42*
X129609Y102452D02*
D03*
D43*
X86345Y128905D02*
D03*
D44*
X86436Y127251D02*
D03*
D45*
X25824Y105700D02*
D03*
D46*
X24228Y105936D02*
D03*
D47*
X146116Y98884D02*
D03*
D48*
X151337Y96156D02*
D03*
D49*
X132477Y100972D02*
D03*
D50*
X129586Y94012D02*
D03*
D51*
X140565Y95750D02*
D03*
D52*
X44500Y153000D02*
D03*
X62000D02*
D03*
X22000Y84500D02*
D03*
D53*
X44500Y143000D02*
D03*
X31500Y39000D02*
D03*
X85000Y122815D02*
D03*
Y132815D02*
D03*
X95000Y122815D02*
D03*
Y132815D02*
D03*
X105000Y122815D02*
D03*
X62000Y143000D02*
D03*
X32000Y84500D02*
D03*
X22000Y74500D02*
D03*
X32000D02*
D03*
X22000Y64500D02*
D03*
X32000D02*
D03*
X22000Y54500D02*
D03*
X32000D02*
D03*
D54*
X135614Y10949D02*
D03*
Y18823D02*
D03*
Y26697D02*
D03*
Y34571D02*
D03*
Y42445D02*
D03*
Y50319D02*
D03*
Y58193D02*
D03*
Y66067D02*
D03*
Y73941D02*
D03*
Y81815D02*
D03*
X49000Y10949D02*
D03*
Y18823D02*
D03*
Y26697D02*
D03*
Y34571D02*
D03*
Y42445D02*
D03*
Y50319D02*
D03*
Y58193D02*
D03*
Y66067D02*
D03*
Y73941D02*
D03*
D55*
Y81815D02*
D03*
D56*
X21500Y39000D02*
D03*
X105000Y132815D02*
D03*
D57*
X149000Y40315D02*
D03*
Y50315D02*
D03*
Y60315D02*
D03*
X174000D02*
D03*
Y40315D02*
D03*
D58*
X157720Y18815D02*
D03*
X171780Y149815D02*
D03*
X27279D02*
D03*
Y18815D02*
D03*
D59*
X171500D02*
D03*
X158000Y149815D02*
D03*
X13500D02*
D03*
Y18815D02*
D03*
D60*
X76000Y98000D02*
D03*
X70000Y93000D02*
D03*
X85500Y64000D02*
D03*
X120500Y51000D02*
D03*
X22000Y94500D02*
D03*
X110598Y83000D02*
D03*
X141500Y103000D02*
D03*
Y112500D02*
D03*
X95000Y62500D02*
D03*
X103500D02*
D03*
X29500Y137500D02*
D03*
X126000Y12000D02*
D03*
X96000Y77000D02*
D03*
X103500D02*
D03*
X61500Y35000D02*
D03*
X37000Y137500D02*
D03*
X29500Y97000D02*
D03*
X85500Y78500D02*
D03*
X111500Y62500D02*
D03*
X119500Y98000D02*
D03*
X162500Y95500D02*
D03*
X87500Y13000D02*
D03*
M02*
