%FSTAX23Y23*%
%MOIN*%
%SFA1B1*%

%IPPOS*%
%ADD9500C,0.028000*%
%ADD9501C,0.031500*%
%ADD9502C,0.035430*%
%ADD9503C,0.047240*%
%LNpcb-1*%
%LPD*%
G54D9500*
X0126Y0012D03*
X00875Y0013D03*
X00615Y0035D03*
X00855Y0064D03*
X0095Y00625D03*
X00855Y00785D03*
X0076Y0098D03*
X007Y0093D03*
X00295Y0097D03*
X0022Y00945D03*
X00295Y01375D03*
X0037D03*
X0096Y0077D03*
X01035D03*
X01105Y0083D03*
X01115Y00625D03*
X01035D03*
X01205Y0051D03*
X01195Y0098D03*
X01415Y0103D03*
Y01125D03*
X01625Y00955D03*
G54D9501*
X01356Y00109D03*
X0049D03*
Y00188D03*
Y00266D03*
Y00345D03*
Y00424D03*
Y00503D03*
Y00581D03*
Y0066D03*
Y00739D03*
Y00818D03*
X01356D03*
Y00739D03*
Y0066D03*
Y00581D03*
Y00503D03*
Y00424D03*
Y00345D03*
Y00266D03*
Y00188D03*
G54D9502*
X00215Y0039D03*
X00315D03*
X0032Y00545D03*
Y00645D03*
Y00745D03*
Y00845D03*
X0022D03*
Y00745D03*
Y00645D03*
Y00545D03*
X00445Y0143D03*
Y0153D03*
X0062D03*
Y0143D03*
X0085Y01328D03*
Y01228D03*
X0095D03*
Y01328D03*
X0105D03*
Y01228D03*
X0149Y00603D03*
Y00503D03*
Y00403D03*
X0174D03*
Y00603D03*
G54D9503*
X00135Y00188D03*
X00272D03*
Y01498D03*
X00135D03*
X0158D03*
X01717D03*
X01715Y00188D03*
X01577D03*
M02*